<svg width="14" height="12" viewBox="0 0 14 12" fill="none" xmlns="http://www.w3.org/2000/svg">
<path fill-rule="evenodd" clip-rule="evenodd" d="M5.77721 0.80822C5.57718 0.608198 5.25292 0.608198 5.05289 0.80822L0.272396 5.58867C0.176308 5.68469 0.122357 5.81499 0.122357 5.95082C0.122357 6.08666 0.176308 6.21696 0.272396 6.31305L5.05289 11.0935C5.25292 11.2936 5.57718 11.2936 5.77721 11.0935C5.97724 10.8935 5.97724 10.5692 5.77721 10.3692L1.87113 6.46302L12.9273 6.46302C13.2101 6.46302 13.4395 6.23369 13.4395 5.95082C13.4395 5.66796 13.2101 5.43863 12.9273 5.43863L1.87113 5.43863L5.77721 1.53257C5.97724 1.33255 5.97724 1.00825 5.77721 0.80822Z" fill="url(#paint0_linear_401_13)"/>
<defs>
<linearGradient id="paint0_linear_401_13" x1="1.47337" y1="0.926187" x2="7.45981" y2="13.3366" gradientUnits="userSpaceOnUse">
<stop stop-color="#00BDE7"/>
<stop offset="1" stop-color="#12688D"/>
</linearGradient>
</defs>
</svg>
