<svg width="107" height="27" viewBox="0 0 107 27" fill="none" xmlns="http://www.w3.org/2000/svg">
<path d="M0.932617 24.7667C1.84601 24.7074 2.50437 24.5769 2.90769 24.3753C3.61943 24.0075 3.9753 23.3373 3.9753 22.3646V4.39322C3.9753 3.4561 3.63722 2.80367 2.96107 2.43594C2.56962 2.22242 1.89346 2.07414 0.932617 1.9911V1.06584H12.0713C16.5671 1.06584 19.9953 2.26394 22.3559 4.66012C24.503 6.84279 25.5766 9.77278 25.5766 13.4501C25.5766 16.7478 24.4971 19.5414 22.3381 21.8308C19.9064 24.4049 16.6087 25.692 12.445 25.692H0.932617V24.7667ZM9.86493 22.329C9.90052 23.0764 10.0369 23.6161 10.2742 23.9482C10.5233 24.2804 11.0452 24.4464 11.84 24.4464C13.9989 24.4464 15.7724 23.6873 17.1602 22.1689C18.5481 20.6386 19.2421 17.7087 19.2421 13.3789C19.2421 10.8048 18.8684 8.59248 18.1211 6.74196C16.9111 3.76452 14.8708 2.2758 12.0001 2.2758C11.0512 2.2758 10.4343 2.47746 10.1496 2.88078C9.95983 3.14175 9.86493 3.6459 9.86493 4.39322V22.329Z" fill="#201F22"/>
<path d="M27.5694 17.3469C27.5694 14.8083 28.3464 12.6909 29.9004 10.9946C31.4662 9.29828 33.4294 8.45013 35.79 8.45013C38.198 8.45013 40.1672 9.31608 41.6974 11.048C43.2395 12.7799 44.0106 14.8795 44.0106 17.3469C44.0106 19.7786 43.2514 21.8723 41.733 23.628C40.2146 25.3717 38.2336 26.2436 35.79 26.2436C33.4175 26.2436 31.4543 25.3954 29.9004 23.6991C28.3464 21.991 27.5694 19.8735 27.5694 17.3469ZM32.9253 17.3469C32.9253 19.8973 33.0557 21.6825 33.3167 22.7027C33.7319 24.2804 34.5563 25.0692 35.79 25.0692C36.9644 25.0692 37.7354 24.4642 38.1031 23.2543C38.4709 22.0443 38.6547 20.0752 38.6547 17.3469C38.6547 14.6304 38.459 12.6672 38.0676 11.4572C37.688 10.2354 36.9347 9.6245 35.8078 9.6245C34.5741 9.6245 33.7497 10.4133 33.3345 11.991C33.0617 13.0468 32.9253 14.8321 32.9253 17.3469Z" fill="#201F22"/>
<path d="M45.6476 24.8201C46.3475 24.7371 46.8338 24.571 47.1066 24.3219C47.3795 24.0728 47.5278 23.5924 47.5515 22.8806L47.5871 21.813V11.9021C47.5871 11.1429 47.4566 10.6269 47.1956 10.354C46.9346 10.0812 46.4186 9.89733 45.6476 9.80243V8.91276H52.5692V11.7775C53.3403 10.7692 54.1054 9.9685 54.8646 9.37539C55.6238 8.78227 56.5016 8.48572 57.498 8.48572C58.2453 8.48572 58.9156 8.72889 59.5087 9.21525C60.1137 9.68974 60.4161 10.3896 60.4161 11.3149C60.4161 12.0266 60.2026 12.6138 59.7756 13.0764C59.3604 13.5391 58.8147 13.7704 58.1386 13.7704C57.3675 13.7704 56.6973 13.4086 56.1279 12.685C55.5704 11.9614 55.1789 11.5996 54.9536 11.5996C54.4672 11.5996 53.9749 11.9021 53.4767 12.507C52.9903 13.1002 52.7472 13.9542 52.7472 15.0693V21.9554C52.7472 23.1653 52.9192 23.9245 53.2632 24.2329C53.619 24.5295 54.3189 24.7252 55.3628 24.8201V25.692H45.6476V24.8201Z" fill="#201F22"/>
<path d="M61.6795 24.8201C62.4268 24.7608 62.9606 24.5947 63.2809 24.3219C63.613 24.0491 63.7791 23.4797 63.7791 22.6137V10.7633H61.6795V9.16187H63.7791V7.80956C63.7791 6.11326 64.046 4.71943 64.5798 3.6281C65.5881 1.58779 67.4505 0.567627 70.167 0.567627C71.6142 0.567627 72.836 0.899772 73.8324 1.56406C74.8407 2.21649 75.3449 3.08244 75.3449 4.16191C75.3449 4.83806 75.1313 5.38372 74.7043 5.7989C74.2891 6.21408 73.7316 6.42168 73.0317 6.42168C72.4505 6.42168 71.9522 6.23188 71.5371 5.85228C71.1219 5.47269 70.9143 5.01599 70.9143 4.48219C70.9143 4.07887 71.0448 3.65776 71.3057 3.21885C71.5786 2.76808 71.715 2.49525 71.715 2.40035C71.715 2.1038 71.6082 1.914 71.3947 1.83096C71.1812 1.74793 70.9499 1.70641 70.7008 1.70641C70.1077 1.70641 69.6509 1.87841 69.3307 2.22242C69.0104 2.56643 68.8502 3.30782 68.8502 4.4466V9.16187H72.0175V10.7633H68.8502V21.9554C68.8502 23.2128 69.0282 23.9838 69.384 24.2685C69.7518 24.5532 70.5584 24.7371 71.804 24.8201V25.692H61.6795V24.8201Z" fill="#201F22"/>
<path d="M80.7719 8.91276V21.2792C80.7719 22.0147 80.8608 22.5544 81.0388 22.8984C81.3472 23.5034 81.9581 23.8059 82.8715 23.8059C83.4527 23.8059 84.0221 23.622 84.5797 23.2543C84.8999 23.0526 85.3033 22.7146 85.7896 22.2401V11.9021C85.7896 11.1429 85.6354 10.615 85.327 10.3184C85.0304 10.01 84.4254 9.83802 83.5121 9.80243V8.91276H90.7718V22.0265C90.7718 22.7857 90.9141 23.3136 91.1988 23.6102C91.4835 23.8949 92.041 24.0728 92.8714 24.144V24.9803C90.6176 25.1938 89.1941 25.3539 88.601 25.4607C88.0197 25.5556 87.0826 25.8047 85.7896 26.208V23.8059C84.9237 24.5532 84.206 25.0811 83.6366 25.3895C82.6402 25.9352 81.6022 26.208 80.5228 26.208C79.3484 26.208 78.2511 25.8343 77.231 25.087C76.2227 24.3397 75.7185 23.0111 75.7185 21.1013V11.9021C75.7185 11.131 75.594 10.6269 75.3449 10.3896C75.0957 10.1524 74.6153 9.95664 73.9036 9.80243V8.91276H80.7719Z" fill="#201F22"/>
<path d="M94.5262 20.176H95.5404C95.8963 21.9198 96.5606 23.1535 97.5333 23.8771C98.506 24.5888 99.5024 24.9447 100.523 24.9447C101.46 24.9447 102.148 24.7371 102.587 24.3219C103.026 23.8949 103.245 23.3373 103.245 22.6493C103.245 21.9969 103.008 21.4394 102.533 20.9767C102.272 20.7276 101.851 20.4607 101.27 20.176L98.5653 18.8593C97.1418 18.1594 96.1217 17.4002 95.5048 16.5817C94.8761 15.7632 94.5618 14.7965 94.5618 13.6814C94.5618 12.2698 95.0541 11.0539 96.0386 10.0337C97.0232 9.00173 98.3992 8.48572 100.167 8.48572C100.938 8.48572 101.756 8.6162 102.622 8.87717C103.488 9.12628 104.028 9.25084 104.241 9.25084C104.538 9.25084 104.746 9.19152 104.864 9.0729C104.995 8.94242 105.101 8.76448 105.184 8.5391H105.985V13.806H105.06C104.716 12.5723 104.152 11.5818 103.37 10.8345C102.587 10.0871 101.673 9.71346 100.629 9.71346C99.8227 9.71346 99.2177 9.93885 98.8144 10.3896C98.423 10.8404 98.2272 11.3267 98.2272 11.8487C98.2272 12.2757 98.4052 12.7028 98.761 13.1298C99.105 13.5687 99.7575 14.0195 100.718 14.4821L102.711 15.443C103.945 16.0361 104.846 16.6114 105.416 17.1689C106.365 18.1179 106.839 19.2863 106.839 20.6742C106.839 22.0265 106.347 23.2899 105.362 24.4642C104.39 25.6267 102.925 26.208 100.967 26.208C100.481 26.208 99.9888 26.1546 99.4906 26.0479C99.0042 25.953 98.3992 25.781 97.6756 25.5319L97.0529 25.3183C96.8275 25.2353 96.6851 25.1878 96.6258 25.176C96.5784 25.1641 96.5131 25.1582 96.4301 25.1582C96.2284 25.1582 96.0505 25.2412 95.8963 25.4073C95.754 25.5615 95.5879 25.8284 95.3981 26.208H94.5262V20.176Z" fill="#201F22"/>
</svg>
