<svg width="138" height="33" viewBox="0 0 138 33" fill="none" xmlns="http://www.w3.org/2000/svg">
<path d="M48.2543 21.3541C52.1849 21.3541 54.7948 19.5303 54.7948 16.3858C54.7948 13.23 52.2015 12.2423 49.7119 11.4996L49.4252 11.4149C47.2335 10.772 45.2041 10.2628 45.2041 8.55597C45.2041 7.20384 46.3047 6.35482 48.2228 6.35482C49.8894 6.35482 51.0843 7.04661 51.6189 8.52453L54.1659 7.51829C53.4427 5.31713 51.273 4.09077 48.2543 4.09077C44.6066 4.09077 42.2482 5.8517 42.2482 8.7132C42.2482 14.4048 51.7761 12.6124 51.7761 16.6059C51.7761 18.1467 50.424 19.0272 48.3486 19.0272C46.0531 19.0272 44.5123 18.0209 43.9777 16.3229L41.4307 17.3292C42.3111 19.9705 44.8267 21.3541 48.2543 21.3541ZM72.7395 26.6369V4.43667H70.2553V7.51829C68.9346 5.38002 66.7335 4.09077 63.9663 4.09077C59.2496 4.09077 55.8849 7.80129 55.8849 12.7382C55.8849 17.6751 59.3439 21.3541 64.0292 21.3541C66.6392 21.3541 68.746 20.1907 70.0667 18.2725V26.6369H72.7395ZM64.3437 18.9957C61.0105 18.9957 58.5263 16.3229 58.5263 12.7382C58.5263 9.12199 61.0105 6.44915 64.3437 6.44915C67.7712 6.44915 70.161 9.0591 70.161 12.7382C70.161 16.4172 67.8026 18.9957 64.3437 18.9957ZM82.5399 21.3541C84.9926 21.3541 86.9736 20.1907 88.0742 18.6499V21.0082H90.6213V4.43667H87.9484V14.845C87.917 16.9518 86.0303 18.9643 83.2317 18.9643C80.4016 18.9957 78.6092 17.1405 78.6092 14.3419V4.43667H75.9364V14.6563C75.9364 18.587 78.2948 21.3541 82.5399 21.3541ZM101.145 21.3541C103.944 21.3541 106.113 20.0334 107.371 17.8323V21.0082H109.855V4.43667H107.371V7.64407C106.113 5.5058 103.944 4.248 101.145 4.248C96.4596 4.248 93.0006 7.80129 93.0006 12.7067C93.0006 17.6751 96.4281 21.3541 101.145 21.3541ZM101.459 18.9957C98.1262 18.9957 95.642 16.3229 95.642 12.7067C95.642 9.15343 98.1262 6.44915 101.459 6.44915C104.918 6.44915 107.277 9.02765 107.277 12.7067C107.277 16.4172 104.887 18.9957 101.459 18.9957ZM115.945 21.0082V11.0087C115.945 8.65031 118.052 6.60638 121.071 6.57493V4.09077C118.744 4.09077 116.857 5.31713 115.788 6.85794V4.43667H113.272V21.0082H115.945ZM129.393 21.3856C133.324 21.3856 135.619 19.6875 136.846 17.3292L134.519 15.9141C133.701 17.8323 132.192 18.87 129.487 18.87C126.437 18.87 124.016 16.7946 123.544 13.713H137.317C137.349 13.3985 137.38 12.8325 137.38 12.3608C137.38 7.98996 134.204 4.05933 129.204 4.05933C124.519 4.05933 120.84 7.92707 120.84 12.7382C120.84 17.6751 124.299 21.3856 129.393 21.3856ZM134.644 11.386H123.576C124.079 8.24152 126.5 6.38626 129.299 6.38626C132.066 6.38626 134.236 8.27297 134.644 11.386Z" fill="#201F22"/>
<path d="M79.8683 31.1293C79.9543 31.1293 80.0452 31.1238 80.141 31.1127C80.2368 31.1017 80.3412 31.0851 80.4542 31.063V30.7755H80.3879C80.0759 30.7755 79.8535 30.7381 79.7209 30.6632C79.5882 30.5882 79.4838 30.4476 79.4077 30.2412C79.3733 30.1552 79.3266 29.9814 79.2676 29.7198C79.2087 29.4582 79.1374 29.2598 79.0539 29.1247C78.9802 29.0018 78.8795 28.8993 78.7517 28.817C78.624 28.7347 78.4655 28.6677 78.2764 28.6162C78.6817 28.5277 78.9864 28.3785 79.1903 28.1684C79.3942 27.9584 79.4961 27.69 79.4961 27.3633C79.4961 26.9039 79.3475 26.563 79.0502 26.3407C78.753 26.1184 78.296 26.0072 77.6794 26.0072H75.7559V26.3094L76.1833 26.3536L76.3123 26.4604V30.6171L76.1833 30.724L75.7559 30.7608V31.0703H77.5504V30.7608L77.1193 30.724L76.9903 30.6171V28.8225L77.0161 28.8188C77.1783 28.8115 77.2962 28.8078 77.3699 28.8078C77.7163 28.8078 77.9748 28.8667 78.1456 28.9846C78.3163 29.1026 78.452 29.3151 78.5528 29.6221C78.5798 29.7032 78.6154 29.8261 78.6596 29.9906C78.7775 30.4476 78.9262 30.7547 79.1055 30.9119C79.1915 30.9856 79.2965 31.0402 79.4206 31.0759C79.5446 31.1115 79.6939 31.1293 79.8683 31.1293ZM77.4067 28.4651C77.3429 28.4651 77.2765 28.4645 77.2077 28.4632C77.139 28.462 77.0665 28.4602 76.9903 28.4577V26.3536H77.3551C77.844 26.3536 78.1978 26.4383 78.4164 26.6078C78.6351 26.7774 78.7444 27.05 78.7444 27.4259C78.7444 27.7895 78.6381 28.0536 78.4256 28.2182C78.2131 28.3828 77.8735 28.4651 77.4067 28.4651ZM81.8203 31.1367C82.0635 31.1367 82.3055 31.0986 82.5463 31.0224C82.787 30.9463 83.0192 30.8345 83.2427 30.6871V30.2707C83.0167 30.4206 82.8073 30.5311 82.6144 30.6024C82.4216 30.6736 82.2355 30.7092 82.0562 30.7092C81.668 30.7092 81.3597 30.571 81.1312 30.2947C80.9028 30.0183 80.7885 29.643 80.7885 29.1689V29.0841H83.2317C83.2366 29.0547 83.2397 29.024 83.2409 28.992C83.2421 28.9601 83.2427 28.9134 83.2427 28.852C83.2427 28.3926 83.1205 28.0296 82.8761 27.7631C82.6316 27.4965 82.3006 27.3633 81.883 27.3633C81.372 27.3633 80.9538 27.542 80.6283 27.8994C80.3027 28.2569 80.14 28.7181 80.14 29.2831C80.14 29.8334 80.2954 30.2799 80.6061 30.6226C80.9169 30.9653 81.3216 31.1367 81.8203 31.1367ZM82.5684 28.7672H80.8254C80.8475 28.4602 80.9501 28.2065 81.1331 28.0063C81.3161 27.8061 81.5329 27.706 81.7835 27.706C82.039 27.706 82.2337 27.787 82.3676 27.9492C82.5014 28.1113 82.5684 28.3447 82.5684 28.6493V28.7672ZM84.5978 31.1219C84.7747 31.1219 84.9645 31.082 85.1672 31.0022C85.3698 30.9223 85.5928 30.7989 85.836 30.6318L85.9355 31.0703H86.9967V30.7977L86.5988 30.7608L86.4698 30.6392V28.4503C86.4698 28.0695 86.3801 27.7932 86.2008 27.6212C86.0215 27.4492 85.734 27.3633 85.3385 27.3633C84.8889 27.3633 84.5223 27.4443 84.2385 27.6065C83.9548 27.7686 83.8129 27.9725 83.8129 28.2182C83.8129 28.3066 83.8295 28.3674 83.8627 28.4006C83.8958 28.4337 83.9579 28.4503 84.0488 28.4503H84.5683V27.8165C84.6691 27.7772 84.7661 27.7477 84.8595 27.7281C84.9528 27.7084 85.0474 27.6986 85.1432 27.6986C85.3987 27.6986 85.578 27.76 85.6812 27.8828C85.7844 28.0057 85.836 28.2255 85.836 28.5425V28.782C84.8951 29.008 84.2926 29.2131 84.0285 29.3974C83.7644 29.5816 83.6324 29.8346 83.6324 30.1565C83.6324 30.4464 83.7202 30.6797 83.8958 30.8566C84.0715 31.0335 84.3055 31.1219 84.5978 31.1219ZM84.9 30.7166C84.7157 30.7166 84.569 30.6607 84.4596 30.5489C84.3503 30.4371 84.2957 30.2867 84.2957 30.0975C84.2957 29.8617 84.3945 29.6713 84.5923 29.5263C84.7901 29.3814 85.2046 29.2217 85.836 29.0473V30.3776C85.637 30.4906 85.4607 30.5753 85.3072 30.6318C85.1536 30.6883 85.0179 30.7166 84.9 30.7166ZM88.8677 31.0703V30.7977L88.4366 30.7608L88.3002 30.6392V25.5171H88.0128L87.0916 25.7861V26.0219H87.6738V30.6392L87.5448 30.7608L87.0989 30.7977V31.0703H88.8677ZM94.747 31.0703V29.8396H94.3564L94.2274 30.6024L94.1205 30.724H92.0975V28.6088H93.3356L93.4425 28.723L93.5162 29.2684H93.8736V27.6065H93.5162L93.4425 28.1555L93.3356 28.2624H92.0975V26.3536H93.8442L93.9473 26.4678L94.0542 27.109H94.478V26.0072H90.863V26.3094L91.2905 26.3536L91.4194 26.4604V30.6171L91.2905 30.724L90.863 30.7608V31.0703H94.747ZM96.0063 31.1367C96.4485 31.1367 96.7942 31.0366 97.0436 30.8363C97.2929 30.6361 97.4176 30.3591 97.4176 30.0054C97.4176 29.8703 97.393 29.7468 97.3439 29.635C97.2948 29.5233 97.2235 29.4305 97.1302 29.3568C97.0024 29.2512 96.7961 29.1333 96.5111 29.0031C96.43 28.9662 96.3698 28.938 96.3305 28.9183C96.08 28.7979 95.9104 28.6886 95.822 28.5904C95.7336 28.4921 95.6893 28.3729 95.6893 28.2329C95.6893 28.0609 95.7446 27.9271 95.8552 27.8313C95.9657 27.7354 96.1193 27.6875 96.3158 27.6875C96.4067 27.6875 96.4976 27.7011 96.5885 27.7281C96.6794 27.7551 96.7752 27.7956 96.8759 27.8497L96.9349 28.384H97.307V27.5291C97.1793 27.475 97.0423 27.4339 96.8962 27.4056C96.75 27.3774 96.5922 27.3633 96.4227 27.3633C95.9977 27.3633 95.6685 27.4554 95.4351 27.6396C95.2017 27.8239 95.085 28.0843 95.085 28.4208C95.085 28.6419 95.1532 28.8274 95.2895 28.9773C95.4259 29.1271 95.6832 29.2868 96.0615 29.4563C96.3956 29.6086 96.6069 29.7345 96.6953 29.834C96.7838 29.9335 96.828 30.0594 96.828 30.2117C96.828 30.3935 96.7635 30.5403 96.6345 30.6521C96.5056 30.7639 96.3342 30.8198 96.1205 30.8198C96.0124 30.8198 95.9049 30.805 95.7981 30.7755C95.6912 30.7461 95.5849 30.7006 95.4793 30.6392L95.3872 29.998H95.0261V30.9782C95.1661 31.0323 95.319 31.0722 95.4848 31.098C95.6507 31.1238 95.8245 31.1367 96.0063 31.1367ZM98.9238 31.0925C99.0785 31.0925 99.2395 31.0783 99.4065 31.0501C99.5736 31.0218 99.7431 30.9807 99.915 30.9266V30.6466C99.8217 30.6687 99.7314 30.6846 99.6442 30.6945C99.557 30.7043 99.4728 30.7092 99.3918 30.7092C99.1559 30.7092 98.9926 30.6533 98.9017 30.5415C98.8108 30.4298 98.7653 30.2105 98.7653 29.8838V27.8939H99.915V27.5401H98.7653V26.7368H98.4853L98.161 27.4406L97.6635 27.6581V27.8939H98.1389V30.3297C98.1389 30.6195 98.1972 30.8192 98.3139 30.9285C98.4306 31.0378 98.6339 31.0925 98.9238 31.0925ZM101.027 31.1219C101.204 31.1219 101.394 31.082 101.596 31.0022C101.799 30.9223 102.022 30.7989 102.265 30.6318L102.365 31.0703H103.426V30.7977L103.028 30.7608L102.899 30.6392V28.4503C102.899 28.0695 102.809 27.7932 102.63 27.6212C102.451 27.4492 102.163 27.3633 101.768 27.3633C101.318 27.3633 100.951 27.4443 100.668 27.6065C100.384 27.7686 100.242 27.9725 100.242 28.2182C100.242 28.3066 100.259 28.3674 100.292 28.4006C100.325 28.4337 100.387 28.4503 100.478 28.4503H100.997V27.8165C101.098 27.7772 101.195 27.7477 101.289 27.7281C101.382 27.7084 101.476 27.6986 101.572 27.6986C101.828 27.6986 102.007 27.76 102.11 27.8828C102.213 28.0057 102.265 28.2255 102.265 28.5425V28.782C101.324 29.008 100.722 29.2131 100.458 29.3974C100.193 29.5816 100.061 29.8346 100.061 30.1565C100.061 30.4464 100.149 30.6797 100.325 30.8566C100.501 31.0335 100.735 31.1219 101.027 31.1219ZM101.329 30.7166C101.145 30.7166 100.998 30.6607 100.889 30.5489C100.779 30.4371 100.725 30.2867 100.725 30.0975C100.725 29.8617 100.824 29.6713 101.021 29.5263C101.219 29.3814 101.634 29.2217 102.265 29.0473V30.3776C102.066 30.4906 101.89 30.5753 101.736 30.6318C101.583 30.6883 101.447 30.7166 101.329 30.7166ZM104.766 31.0925C104.921 31.0925 105.082 31.0783 105.249 31.0501C105.416 31.0218 105.585 30.9807 105.757 30.9266V30.6466C105.664 30.6687 105.574 30.6846 105.487 30.6945C105.399 30.7043 105.315 30.7092 105.234 30.7092C104.998 30.7092 104.835 30.6533 104.744 30.5415C104.653 30.4298 104.608 30.2105 104.608 29.8838V27.8939H105.757V27.5401H104.608V26.7368H104.328L104.003 27.4406L103.506 27.6581V27.8939H103.981V30.3297C103.981 30.6195 104.04 30.8192 104.156 30.9285C104.273 31.0378 104.476 31.0925 104.766 31.0925ZM107.547 31.1367C107.791 31.1367 108.033 31.0986 108.273 31.0224C108.514 30.9463 108.746 30.8345 108.97 30.6871V30.2707C108.744 30.4206 108.534 30.5311 108.341 30.6024C108.149 30.6736 107.963 30.7092 107.783 30.7092C107.395 30.7092 107.087 30.571 106.858 30.2947C106.63 30.0183 106.516 29.643 106.516 29.1689V29.0841H108.959C108.964 29.0547 108.967 29.024 108.968 28.992C108.969 28.9601 108.97 28.9134 108.97 28.852C108.97 28.3926 108.848 28.0296 108.603 27.7631C108.359 27.4965 108.028 27.3633 107.61 27.3633C107.099 27.3633 106.681 27.542 106.355 27.8994C106.03 28.2569 105.867 28.7181 105.867 29.2831C105.867 29.8334 106.022 30.2799 106.333 30.6226C106.644 30.9653 107.049 31.1367 107.547 31.1367ZM108.295 28.7672H106.552C106.575 28.4602 106.677 28.2065 106.86 28.0063C107.043 27.8061 107.26 27.706 107.51 27.706C107.766 27.706 107.961 27.787 108.095 27.9492C108.228 28.1113 108.295 28.3447 108.295 28.6493V28.7672ZM112.701 31.1625C113.29 31.1625 113.763 31.0231 114.119 30.7442C114.476 30.4654 114.654 30.0987 114.654 29.6443C114.654 29.4797 114.626 29.3274 114.571 29.1873C114.515 29.0473 114.433 28.9232 114.322 28.8151C114.128 28.6235 113.811 28.4417 113.371 28.2698C113.288 28.2378 113.225 28.2133 113.183 28.1961C112.736 28.0069 112.448 27.8454 112.319 27.7115C112.19 27.5776 112.126 27.4087 112.126 27.2048C112.126 26.9247 112.218 26.703 112.402 26.5397C112.586 26.3763 112.836 26.2946 113.15 26.2946C113.283 26.2946 113.406 26.3075 113.519 26.3333C113.632 26.3591 113.736 26.399 113.832 26.4531L113.942 26.5784L114.057 27.2969H114.451V26.1288C114.23 26.0576 114.013 26.0041 113.801 25.9685C113.588 25.9329 113.376 25.9151 113.165 25.9151C112.639 25.9151 112.217 26.0483 111.899 26.3149C111.581 26.5814 111.422 26.9309 111.422 27.3633C111.422 27.6703 111.505 27.9203 111.673 28.1132C111.84 28.306 112.181 28.5142 112.697 28.7378C112.739 28.755 112.799 28.7807 112.878 28.8151C113.6 29.1222 113.961 29.4686 113.961 29.8543C113.961 30.1319 113.858 30.3524 113.653 30.5158C113.448 30.6791 113.17 30.7608 112.819 30.7608C112.652 30.7608 112.497 30.7461 112.354 30.7166C112.212 30.6871 112.085 30.6441 111.975 30.5876L111.875 30.4586L111.787 29.5927H111.341V30.9193C111.52 30.9979 111.726 31.0581 111.958 31.0998C112.19 31.1416 112.438 31.1625 112.701 31.1625ZM116.864 31.1367C117.375 31.1367 117.795 30.9604 118.126 30.6079C118.456 30.2553 118.621 29.8027 118.621 29.25C118.621 28.6972 118.457 28.2446 118.128 27.8921C117.798 27.5395 117.377 27.3633 116.864 27.3633C116.348 27.3633 115.927 27.5389 115.602 27.8902C115.276 28.2415 115.113 28.6948 115.113 29.25C115.113 29.8052 115.277 30.2584 115.605 30.6097C115.933 30.961 116.353 31.1367 116.864 31.1367ZM116.864 30.8124C116.552 30.8124 116.3 30.6705 116.108 30.3868C115.917 30.103 115.821 29.7241 115.821 29.25C115.821 28.7758 115.916 28.3969 116.106 28.1132C116.297 27.8294 116.549 27.6875 116.864 27.6875C117.178 27.6875 117.432 27.83 117.625 28.115C117.817 28.4 117.914 28.7783 117.914 29.25C117.914 29.7266 117.818 30.1061 117.626 30.3886C117.435 30.6711 117.181 30.8124 116.864 30.8124ZM120.629 31.0703V30.7977L120.198 30.7608L120.061 30.6392V25.5171H119.774L118.853 25.7861V26.0219H119.435V30.6392L119.306 30.7608L118.86 30.7977V31.0703H120.629ZM122.271 31.144C122.451 31.144 122.64 31.1035 122.841 31.0224C123.041 30.9414 123.259 30.8161 123.495 30.6466V31.0703H124.611V30.7977L124.257 30.7608L124.121 30.6392V27.3633H123.834L122.957 27.6433V27.8792H123.495V30.4365C123.337 30.5127 123.187 30.5692 123.043 30.606C122.9 30.6429 122.758 30.6613 122.618 30.6613C122.367 30.6613 122.183 30.5968 122.065 30.4679C121.947 30.3389 121.888 30.1368 121.888 29.8617V27.3633H121.601L120.724 27.6433V27.8792H121.262V29.9906C121.262 30.3641 121.348 30.6496 121.521 30.8474C121.695 31.0452 121.945 31.144 122.271 31.144ZM126.018 31.0925C126.173 31.0925 126.334 31.0783 126.501 31.0501C126.668 31.0218 126.837 30.9807 127.009 30.9266V30.6466C126.916 30.6687 126.826 30.6846 126.738 30.6945C126.651 30.7043 126.567 30.7092 126.486 30.7092C126.25 30.7092 126.087 30.6533 125.996 30.5415C125.905 30.4298 125.859 30.2105 125.859 29.8838V27.8939H127.009V27.5401H125.859V26.7368H125.579L125.255 27.4406L124.758 27.6581V27.8939H125.233V30.3297C125.233 30.6195 125.291 30.8192 125.408 30.9285C125.525 31.0378 125.728 31.0925 126.018 31.0925ZM127.999 26.5968C128.122 26.5968 128.226 26.555 128.311 26.4715C128.396 26.388 128.438 26.286 128.438 26.1656C128.438 26.0453 128.396 25.9421 128.311 25.8561C128.226 25.7701 128.122 25.7271 127.999 25.7271C127.879 25.7271 127.776 25.7695 127.692 25.8543C127.607 25.939 127.565 26.0428 127.565 26.1656C127.565 26.286 127.607 26.388 127.692 26.4715C127.776 26.555 127.879 26.5968 127.999 26.5968ZM128.799 31.0703V30.7977L128.394 30.7608L128.265 30.6392V27.4038H127.97L127.104 27.6728V27.9086H127.631V30.6392L127.502 30.7608L127.104 30.7977V31.0703H128.799ZM130.729 31.1367C131.24 31.1367 131.661 30.9604 131.991 30.6079C132.322 30.2553 132.487 29.8027 132.487 29.25C132.487 28.6972 132.322 28.2446 131.993 27.8921C131.664 27.5395 131.242 27.3633 130.729 27.3633C130.213 27.3633 129.792 27.5389 129.467 27.8902C129.141 28.2415 128.979 28.6948 128.979 29.25C128.979 29.8052 129.143 30.2584 129.471 30.6097C129.799 30.961 130.218 31.1367 130.729 31.1367ZM130.729 30.8124C130.417 30.8124 130.165 30.6705 129.974 30.3868C129.782 30.103 129.686 29.7241 129.686 29.25C129.686 28.7758 129.781 28.3969 129.972 28.1132C130.162 27.8294 130.415 27.6875 130.729 27.6875C131.043 27.6875 131.297 27.83 131.49 28.115C131.683 28.4 131.779 28.7783 131.779 29.25C131.779 29.7266 131.683 30.1061 131.492 30.3886C131.3 30.6711 131.046 30.8124 130.729 30.8124ZM134.395 31.0703V30.7977L134.033 30.7608L133.904 30.6392V28.1113C134.067 28.0278 134.218 27.9658 134.358 27.9252C134.498 27.8847 134.628 27.8644 134.748 27.8644C135.023 27.8644 135.219 27.9234 135.336 28.0413C135.453 28.1592 135.511 28.3594 135.511 28.6419V30.6392L135.382 30.7608L135.021 30.7977V31.0703H136.672V30.7977L136.267 30.7608L136.138 30.6392V28.513C136.138 28.1396 136.05 27.8546 135.876 27.6581C135.702 27.4615 135.45 27.3633 135.121 27.3633C134.98 27.3633 134.818 27.397 134.634 27.4646C134.45 27.5322 134.207 27.6495 133.904 27.8165V27.4038H133.617L132.74 27.6728V27.9086H133.278V30.6392L133.149 30.7608L132.74 30.7977V31.0703H134.395Z" fill="#201F22"/>
<path fill-rule="evenodd" clip-rule="evenodd" d="M0.456055 0.883057H31.9011V32.3282H0.456055V0.883057ZM23.8596 8.92434L8.496 8.9227V24.2877L8.4909 24.2925L8.49106 24.2936H23.8666L23.8653 8.91888L23.8646 8.91875L23.8596 8.92434Z" fill="#201F22"/>
</svg>
