<svg width="115" height="36" viewBox="0 0 115 36" fill="none" xmlns="http://www.w3.org/2000/svg">
<path d="M39.7247 22.7505V14.7221H41.5801C42.9726 14.7221 44.1589 14.2243 45.1391 13.2285C46.1193 12.2327 46.6094 11.0347 46.6094 9.63442V6.54211C46.6094 5.08737 46.1777 3.88934 45.3142 2.94804C44.3884 1.96006 43.1437 1.46606 41.5801 1.46606H36.5273V22.7505H39.7247ZM41.6617 11.5481H39.7247V4.74508H41.6617C42.2219 4.74508 42.6672 4.91428 42.9978 5.25268C43.3285 5.59108 43.4938 6.04034 43.4938 6.60046V9.70443C43.4938 10.2101 43.3168 10.6438 42.9628 11.0055C42.6089 11.3673 42.1752 11.5481 41.6617 11.5481ZM51.7064 22.7505L52.4882 17.8611H55.8372L56.5957 22.7505H59.9564L56.3973 1.46606H51.9747L48.369 22.7505H51.7064ZM55.3588 14.7338H52.9783L54.1685 6.34374L55.3588 14.7338ZM67.1188 22.7505V14.7221H68.9741C70.3666 14.7221 71.553 14.2243 72.5332 13.2285C73.5134 12.2327 74.0035 11.0347 74.0035 9.63442V6.54211C74.0035 5.08737 73.5718 3.88934 72.7082 2.94804C71.7825 1.96006 70.5378 1.46606 68.9741 1.46606H63.9214V22.7505H67.1188ZM69.0558 11.5481H67.1188V4.74508H69.0558C69.6159 4.74508 70.0613 4.91428 70.3919 5.25268C70.7226 5.59108 70.8879 6.04034 70.8879 6.60046V9.70443C70.8879 10.2101 70.7109 10.6438 70.3569 11.0055C70.003 11.3673 69.5693 11.5481 69.0558 11.5481ZM86.9537 22.7505V19.5415H81.0258V13.7186H85.3551V10.4979H81.0258V4.67506H86.9537V1.46606H77.8285V22.7505H86.9537ZM93.626 22.7505V14.7221H95.4697C95.5708 14.7221 95.6681 14.7182 95.7614 14.7105L97.7218 22.7505H101.188L98.8071 13.4502C99.9506 12.4156 100.522 11.1436 100.522 9.63442V6.54211C100.522 5.00957 100.153 3.81155 99.4138 2.94804C98.5815 1.96006 97.2706 1.46606 95.4814 1.46606H90.4287V22.7505H93.626ZM95.5631 11.5481H93.626V4.74508H95.5631C96.7844 4.74508 97.3951 5.36354 97.3951 6.60046V9.70443C97.3951 10.2101 97.2181 10.6438 96.8642 11.0055C96.5102 11.3673 96.0765 11.5481 95.5631 11.5481ZM114.371 22.7505V19.5648H108.467L114.371 4.67506V1.46606H105.013V4.67506H110.929L105.013 19.5648V22.7505H114.371Z" fill="#201F22"/>
<path d="M38.8966 33.6514V33.1835H36.5797V28.5044H36.0137V33.6514H38.8966ZM41.0323 33.7721C41.4046 33.7721 41.7266 33.6979 41.9983 33.5495C42.27 33.4011 42.4888 33.196 42.6549 32.9344L42.2473 32.6627C42.1266 32.864 41.9669 33.0212 41.7681 33.1344C41.5694 33.2476 41.3191 33.3042 41.0172 33.3042C40.6449 33.3042 40.3506 33.1759 40.1342 32.9193C39.9179 32.6627 39.7997 32.3533 39.7795 31.9911H42.6851C42.6901 31.9407 42.6926 31.8678 42.6926 31.7722C42.6926 31.4401 42.6197 31.1395 42.4738 30.8704C42.3278 30.6012 42.1266 30.3886 41.87 30.2326C41.6134 30.0767 41.3266 29.9987 41.0097 29.9987C40.6726 29.9987 40.372 30.0792 40.1078 30.2402C39.8437 30.4012 39.6374 30.6251 39.489 30.9119C39.3406 31.1986 39.2664 31.5232 39.2664 31.8854C39.2664 32.2476 39.3418 32.5722 39.4928 32.8589C39.6437 33.1457 39.8525 33.3696 40.1191 33.5306C40.3858 33.6916 40.6902 33.7721 41.0323 33.7721ZM42.1794 31.5684H39.8097C39.8651 31.2515 39.9971 30.9886 40.2059 30.7798C40.4147 30.571 40.6826 30.4666 41.0097 30.4666C41.3468 30.4666 41.6134 30.5584 41.8096 30.7421C42.0059 30.9257 42.1291 31.2012 42.1794 31.5684ZM44.9868 33.7721C45.2384 33.7721 45.4698 33.7155 45.6812 33.6023C45.8925 33.4891 46.0711 33.3319 46.217 33.1306V33.6514H46.7302V30.1194H46.217V30.6477C46.0711 30.4414 45.8912 30.2817 45.6774 30.1685C45.4636 30.0553 45.2283 29.9987 44.9718 29.9987C44.6347 29.9987 44.334 30.0792 44.0699 30.2402C43.8058 30.4012 43.5995 30.6238 43.4511 30.9081C43.3026 31.1924 43.2284 31.5156 43.2284 31.8779C43.2284 32.2451 43.3039 32.5722 43.4548 32.8589C43.6058 33.1457 43.8146 33.3696 44.0812 33.5306C44.3479 33.6916 44.6498 33.7721 44.9868 33.7721ZM44.9718 33.3042C44.7353 33.3042 44.524 33.2438 44.3378 33.1231C44.1517 33.0023 44.0058 32.8338 43.9001 32.6174C43.7944 32.4011 43.7416 32.1546 43.7416 31.8779C43.7416 31.6062 43.7944 31.3634 43.9001 31.1496C44.0058 30.9358 44.1517 30.7685 44.3378 30.6477C44.524 30.527 44.7353 30.4666 44.9718 30.4666C45.2133 30.4666 45.4283 30.527 45.617 30.6477C45.8057 30.7685 45.9528 30.937 46.0585 31.1534C46.1641 31.3697 46.217 31.6137 46.217 31.8854C46.217 32.1571 46.1641 32.4011 46.0585 32.6174C45.9528 32.8338 45.8057 33.0023 45.617 33.1231C45.4283 33.2438 45.2133 33.3042 44.9718 33.3042ZM49.2206 33.7721C49.4722 33.7721 49.7036 33.7155 49.9149 33.6023C50.1262 33.4891 50.3048 33.3319 50.4507 33.1306V33.6514H50.9639V28.1724H50.4507V30.6477C50.3048 30.4414 50.125 30.2817 49.9111 30.1685C49.6973 30.0553 49.4621 29.9987 49.2055 29.9987C48.8684 29.9987 48.5678 30.0792 48.3037 30.2402C48.0395 30.4012 47.8333 30.6238 47.6848 30.9081C47.5364 31.1924 47.4622 31.5156 47.4622 31.8779C47.4622 32.2451 47.5377 32.5722 47.6886 32.8589C47.8395 33.1457 48.0483 33.3696 48.315 33.5306C48.5816 33.6916 48.8835 33.7721 49.2206 33.7721ZM49.2055 33.3042C48.9691 33.3042 48.7577 33.2438 48.5716 33.1231C48.3854 33.0023 48.2395 32.8338 48.1339 32.6174C48.0282 32.4011 47.9754 32.1546 47.9754 31.8779C47.9754 31.6062 48.0282 31.3634 48.1339 31.1496C48.2395 30.9358 48.3854 30.7685 48.5716 30.6477C48.7577 30.527 48.9691 30.4666 49.2055 30.4666C49.447 30.4666 49.6621 30.527 49.8508 30.6477C50.0394 30.7685 50.1866 30.937 50.2923 31.1534C50.3979 31.3697 50.4507 31.6137 50.4507 31.8854C50.4507 32.1571 50.3979 32.4011 50.2923 32.6174C50.1866 32.8338 50.0394 33.0023 49.8508 33.1231C49.6621 33.2438 49.447 33.3042 49.2055 33.3042ZM52.4507 29.4327C52.5613 29.4327 52.6569 29.3924 52.7374 29.3119C52.8179 29.2314 52.8582 29.1358 52.8582 29.0252C52.8582 28.9094 52.8179 28.8126 52.7374 28.7346C52.6569 28.6566 52.5613 28.6176 52.4507 28.6176C52.3349 28.6176 52.2381 28.6566 52.1601 28.7346C52.0821 28.8126 52.0431 28.9069 52.0431 29.0176C52.0431 29.1333 52.0821 29.2314 52.1601 29.3119C52.2381 29.3924 52.3349 29.4327 52.4507 29.4327ZM52.7072 33.6514V30.1194H52.1941V33.6514H52.7072ZM54.4506 33.6514V31.8854C54.4506 31.4527 54.5411 31.1081 54.7222 30.8515C54.9034 30.5949 55.1751 30.4666 55.5373 30.4666C56.1612 30.4666 56.4731 30.8163 56.4731 31.5156V33.6514H56.9863V31.2892C56.9863 31.0225 56.9247 30.7911 56.8014 30.5949C56.6781 30.3987 56.5121 30.2503 56.3033 30.1496C56.0945 30.049 55.8669 29.9987 55.6203 29.9987C55.3587 29.9987 55.1285 30.0603 54.9298 30.1836C54.7311 30.3069 54.5713 30.4817 54.4506 30.7081V30.1194H53.9374V33.6514H54.4506ZM59.7182 35.1607C60.0201 35.1607 60.2893 35.0903 60.5258 34.9494C60.7622 34.8085 60.9459 34.6136 61.0767 34.3645C61.2075 34.1155 61.2729 33.8325 61.2729 33.5155V30.1194H60.7597V30.6477C60.6138 30.4414 60.4339 30.2817 60.2201 30.1685C60.0063 30.0553 59.7711 29.9987 59.5145 29.9987C59.1774 29.9987 58.8768 30.0792 58.6126 30.2402C58.3485 30.4012 58.1422 30.6238 57.9938 30.9081C57.8454 31.1924 57.7712 31.5156 57.7712 31.8779C57.7712 32.2451 57.8466 32.5722 57.9976 32.8589C58.1485 33.1457 58.3573 33.3696 58.624 33.5306C58.8906 33.6916 59.1925 33.7721 59.5296 33.7721C59.7811 33.7721 60.0126 33.7155 60.2239 33.6023C60.4352 33.4891 60.6138 33.3319 60.7597 33.1306V33.5155C60.7597 33.8576 60.6629 34.1394 60.4692 34.3608C60.2755 34.5821 60.0252 34.6928 59.7182 34.6928H58.2542V35.1607H59.7182ZM59.5145 33.3042C59.278 33.3042 59.0667 33.2438 58.8806 33.1231C58.6944 33.0023 58.5485 32.8338 58.4428 32.6174C58.3372 32.4011 58.2843 32.1546 58.2843 31.8779C58.2843 31.6062 58.3372 31.3634 58.4428 31.1496C58.5485 30.9358 58.6944 30.7685 58.8806 30.6477C59.0667 30.527 59.278 30.4666 59.5145 30.4666C59.756 30.4666 59.9711 30.527 60.1597 30.6477C60.3484 30.7685 60.4956 30.937 60.6012 31.1534C60.7069 31.3697 60.7597 31.6137 60.7597 31.8854C60.7597 32.1571 60.7069 32.4011 60.6012 32.6174C60.4956 32.8338 60.3484 33.0023 60.1597 33.1231C59.9711 33.2438 59.756 33.3042 59.5145 33.3042ZM64.601 33.6514V31.6816H65.6953C66.1733 31.6816 66.5569 31.5408 66.8462 31.259C67.1355 30.9773 67.2802 30.5899 67.2802 30.0968C67.2802 29.5987 67.1418 29.2088 66.8651 28.927C66.5884 28.6453 66.2186 28.5044 65.7557 28.5044H64.035V33.6514H64.601ZM65.6802 31.2137H64.601V28.9723H65.6802C66.0173 28.9723 66.2739 29.0679 66.45 29.2591C66.6261 29.4503 66.7141 29.7295 66.7141 30.0968C66.7141 30.4641 66.6261 30.7421 66.45 30.9307C66.2739 31.1194 66.0173 31.2137 65.6802 31.2137ZM69.4838 33.7721C69.7354 33.7721 69.9668 33.7155 70.1781 33.6023C70.3895 33.4891 70.5681 33.3319 70.714 33.1306V33.6514H71.2271V30.1194H70.714V30.6477C70.5681 30.4414 70.3882 30.2817 70.1744 30.1685C69.9605 30.0553 69.7253 29.9987 69.4687 29.9987C69.1316 29.9987 68.831 30.0792 68.5669 30.2402C68.3028 30.4012 68.0965 30.6238 67.9481 30.9081C67.7996 31.1924 67.7254 31.5156 67.7254 31.8779C67.7254 32.2451 67.8009 32.5722 67.9518 32.8589C68.1028 33.1457 68.3116 33.3696 68.5782 33.5306C68.8449 33.6916 69.1467 33.7721 69.4838 33.7721ZM69.4687 33.3042C69.2323 33.3042 69.021 33.2438 68.8348 33.1231C68.6487 33.0023 68.5027 32.8338 68.3971 32.6174C68.2914 32.4011 68.2386 32.1546 68.2386 31.8779C68.2386 31.6062 68.2914 31.3634 68.3971 31.1496C68.5027 30.9358 68.6487 30.7685 68.8348 30.6477C69.021 30.527 69.2323 30.4666 69.4687 30.4666C69.7102 30.4666 69.9253 30.527 70.114 30.6477C70.3027 30.7685 70.4498 30.937 70.5555 31.1534C70.6611 31.3697 70.714 31.6137 70.714 31.8854C70.714 32.1571 70.6611 32.4011 70.5555 32.6174C70.4498 32.8338 70.3027 33.0023 70.114 33.1231C69.9253 33.2438 69.7102 33.3042 69.4687 33.3042ZM72.6988 35.1607V33.1231C72.8447 33.3294 73.0246 33.4891 73.2384 33.6023C73.4522 33.7155 73.6874 33.7721 73.944 33.7721C74.2811 33.7721 74.5817 33.6916 74.8459 33.5306C75.11 33.3696 75.3163 33.147 75.4647 32.8627C75.6131 32.5785 75.6873 32.2552 75.6873 31.8929C75.6873 31.5257 75.6119 31.1986 75.4609 30.9119C75.31 30.6251 75.1012 30.4012 74.8345 30.2402C74.5679 30.0792 74.266 29.9987 73.9289 29.9987C73.6774 29.9987 73.4459 30.0553 73.2346 30.1685C73.0233 30.2817 72.8447 30.4389 72.6988 30.6402V30.1194H72.1856V35.1607H72.6988ZM73.944 33.3042C73.7025 33.3042 73.4874 33.2438 73.2988 33.1231C73.1101 33.0023 72.9629 32.8338 72.8573 32.6174C72.7516 32.4011 72.6988 32.1571 72.6988 31.8854C72.6988 31.6137 72.7516 31.3697 72.8573 31.1534C72.9629 30.937 73.1101 30.7685 73.2988 30.6477C73.4874 30.527 73.7025 30.4666 73.944 30.4666C74.1805 30.4666 74.3918 30.527 74.5779 30.6477C74.7641 30.7685 74.91 30.937 75.0157 31.1534C75.1213 31.3697 75.1741 31.6162 75.1741 31.8929C75.1741 32.1646 75.1213 32.4074 75.0157 32.6212C74.91 32.835 74.7641 33.0023 74.5779 33.1231C74.3918 33.2438 74.1805 33.3042 73.944 33.3042ZM77.9589 33.7721C78.3312 33.7721 78.6532 33.6979 78.9249 33.5495C79.1966 33.4011 79.4155 33.196 79.5815 32.9344L79.174 32.6627C79.0532 32.864 78.8935 33.0212 78.6947 33.1344C78.496 33.2476 78.2457 33.3042 77.9438 33.3042C77.5715 33.3042 77.2772 33.1759 77.0608 32.9193C76.8445 32.6627 76.7263 32.3533 76.7061 31.9911H79.6117C79.6167 31.9407 79.6192 31.8678 79.6192 31.7722C79.6192 31.4401 79.5463 31.1395 79.4004 30.8704C79.2545 30.6012 79.0532 30.3886 78.7966 30.2326C78.54 30.0767 78.2532 29.9987 77.9363 29.9987C77.5992 29.9987 77.2986 30.0792 77.0344 30.2402C76.7703 30.4012 76.564 30.6251 76.4156 30.9119C76.2672 31.1986 76.193 31.5232 76.193 31.8854C76.193 32.2476 76.2684 32.5722 76.4194 32.8589C76.5703 33.1457 76.7791 33.3696 77.0457 33.5306C77.3124 33.6916 77.6168 33.7721 77.9589 33.7721ZM79.106 31.5684H76.7363C76.7917 31.2515 76.9237 30.9886 77.1325 30.7798C77.3413 30.571 77.6092 30.4666 77.9363 30.4666C78.2734 30.4666 78.54 30.5584 78.7362 30.7421C78.9325 30.9257 79.0557 31.2012 79.106 31.5684ZM80.8871 33.6514V31.9609C80.8871 31.6489 80.9437 31.3785 81.0569 31.1496C81.1701 30.9207 81.3198 30.7458 81.5059 30.6251C81.6921 30.5043 81.8933 30.444 82.1097 30.444C82.2354 30.444 82.3512 30.4691 82.4568 30.5194V30.0515C82.3461 30.0163 82.2304 29.9987 82.1097 29.9987C81.848 29.9987 81.6128 30.0716 81.404 30.2176C81.1952 30.3635 81.0229 30.5672 80.8871 30.8288V30.1194H80.3739V33.6514H80.8871ZM86.6529 33.7721C87.0654 33.7721 87.4214 33.669 87.7207 33.4627C88.0201 33.2564 88.2603 32.957 88.4415 32.5646L87.966 32.2778C87.7949 32.6149 87.61 32.8627 87.4113 33.0212C87.2126 33.1797 86.9346 33.2589 86.5774 33.2589C86.2906 33.2589 86.039 33.1721 85.8227 32.9986C85.6064 32.825 85.4403 32.5747 85.3246 32.2476C85.2089 31.9206 85.151 31.5332 85.151 31.0854C85.151 30.4012 85.2781 29.8666 85.5322 29.4817C85.7862 29.0968 86.1372 28.9044 86.5849 28.9044C86.8969 28.9044 87.161 28.9686 87.3773 29.0968C87.5937 29.2251 87.7824 29.4377 87.9434 29.7346L88.3962 29.4704C88.2251 29.1283 87.9874 28.8629 87.683 28.6742C87.3786 28.4856 87.0126 28.3912 86.5849 28.3912C86.1673 28.3912 85.8064 28.4981 85.502 28.712C85.1976 28.9258 84.9636 29.2352 84.8001 29.6402C84.6366 30.0452 84.5548 30.5295 84.5548 31.093C84.5548 31.6515 84.6391 32.1307 84.8077 32.5307C84.9762 32.9306 85.2177 33.2375 85.5322 33.4514C85.8466 33.6652 86.2202 33.7721 86.6529 33.7721ZM90.7206 33.7721C91.0577 33.7721 91.3583 33.6916 91.6224 33.5306C91.8866 33.3696 92.0929 33.1457 92.2413 32.8589C92.3897 32.5722 92.4639 32.2476 92.4639 31.8854C92.4639 31.5232 92.3884 31.1986 92.2375 30.9119C92.0866 30.6251 91.8778 30.4012 91.6111 30.2402C91.3445 30.0792 91.0426 29.9987 90.7055 29.9987C90.3684 29.9987 90.0678 30.0792 89.8037 30.2402C89.5395 30.4012 89.3332 30.6238 89.1848 30.9081C89.0364 31.1924 88.9622 31.5156 88.9622 31.8779C88.9622 32.2401 89.0377 32.5659 89.1886 32.8552C89.3395 33.1445 89.5483 33.3696 89.815 33.5306C90.0816 33.6916 90.3835 33.7721 90.7206 33.7721ZM90.7055 33.3042C90.469 33.3042 90.2577 33.2438 90.0716 33.1231C89.8854 33.0023 89.7395 32.8338 89.6339 32.6174C89.5282 32.4011 89.4754 32.1546 89.4754 31.8779C89.4754 31.6062 89.5282 31.3634 89.6339 31.1496C89.7395 30.9358 89.8854 30.7685 90.0716 30.6477C90.2577 30.527 90.469 30.4666 90.7055 30.4666C90.947 30.4666 91.1621 30.527 91.3508 30.6477C91.5394 30.7685 91.6866 30.937 91.7922 31.1534C91.8979 31.3697 91.9507 31.6137 91.9507 31.8854C91.9507 32.1571 91.8979 32.4011 91.7922 32.6174C91.6866 32.8338 91.5394 33.0023 91.3508 33.1231C91.1621 33.2438 90.947 33.3042 90.7055 33.3042ZM93.7016 33.6514V31.8854C93.7016 31.4527 93.7783 31.1081 93.9318 30.8515C94.0852 30.5949 94.3154 30.4666 94.6223 30.4666C94.8487 30.4666 95.0323 30.5484 95.1732 30.7119C95.3141 30.8754 95.3845 31.1433 95.3845 31.5156V33.6514H95.8977V31.659C95.9229 31.2917 96.0122 31.0012 96.1656 30.7873C96.3191 30.5735 96.5342 30.4666 96.8109 30.4666C97.0373 30.4666 97.2209 30.5484 97.3618 30.7119C97.5027 30.8754 97.5731 31.1433 97.5731 31.5156V33.6514H98.0863V31.2892C98.0863 30.8867 97.9781 30.571 97.7618 30.3421C97.5454 30.1132 97.2738 29.9987 96.9467 29.9987C96.6952 29.9987 96.4738 30.0691 96.2826 30.21C96.0914 30.3509 95.9405 30.5471 95.8298 30.7987C95.7543 30.5421 95.621 30.3446 95.4298 30.2062C95.2386 30.0679 95.0147 29.9987 94.7581 29.9987C94.5267 29.9987 94.3217 30.0566 94.1431 30.1723C93.9645 30.288 93.8173 30.454 93.7016 30.6704V30.1194H93.1884V33.6514H93.7016ZM99.5202 35.1607V33.1231C99.6661 33.3294 99.846 33.4891 100.06 33.6023C100.274 33.7155 100.509 33.7721 100.765 33.7721C101.103 33.7721 101.403 33.6916 101.667 33.5306C101.931 33.3696 102.138 33.147 102.286 32.8627C102.435 32.5785 102.509 32.2552 102.509 31.8929C102.509 31.5257 102.433 31.1986 102.282 30.9119C102.131 30.6251 101.923 30.4012 101.656 30.2402C101.389 30.0792 101.087 29.9987 100.75 29.9987C100.499 29.9987 100.267 30.0553 100.056 30.1685C99.8447 30.2817 99.6661 30.4389 99.5202 30.6402V30.1194H99.007V35.1607H99.5202ZM100.765 33.3042C100.524 33.3042 100.309 33.2438 100.12 33.1231C99.9315 33.0023 99.7843 32.8338 99.6787 32.6174C99.573 32.4011 99.5202 32.1571 99.5202 31.8854C99.5202 31.6137 99.573 31.3697 99.6787 31.1534C99.7843 30.937 99.9315 30.7685 100.12 30.6477C100.309 30.527 100.524 30.4666 100.765 30.4666C101.002 30.4666 101.213 30.527 101.399 30.6477C101.586 30.7685 101.731 30.937 101.837 31.1534C101.943 31.3697 101.996 31.6162 101.996 31.8929C101.996 32.1646 101.943 32.4074 101.837 32.6212C101.731 32.835 101.586 33.0023 101.399 33.1231C101.213 33.2438 101.002 33.3042 100.765 33.3042ZM104.773 33.7721C105.024 33.7721 105.256 33.7155 105.467 33.6023C105.678 33.4891 105.857 33.3319 106.003 33.1306V33.6514H106.516V30.1194H106.003V30.6477C105.857 30.4414 105.677 30.2817 105.463 30.1685C105.249 30.0553 105.014 29.9987 104.758 29.9987C104.421 29.9987 104.12 30.0792 103.856 30.2402C103.592 30.4012 103.385 30.6238 103.237 30.9081C103.089 31.1924 103.014 31.5156 103.014 31.8779C103.014 32.2451 103.09 32.5722 103.241 32.8589C103.392 33.1457 103.601 33.3696 103.867 33.5306C104.134 33.6916 104.436 33.7721 104.773 33.7721ZM104.758 33.3042C104.521 33.3042 104.31 33.2438 104.124 33.1231C103.938 33.0023 103.792 32.8338 103.686 32.6174C103.58 32.4011 103.528 32.1546 103.528 31.8779C103.528 31.6062 103.58 31.3634 103.686 31.1496C103.792 30.9358 103.938 30.7685 104.124 30.6477C104.31 30.527 104.521 30.4666 104.758 30.4666C104.999 30.4666 105.214 30.527 105.403 30.6477C105.592 30.7685 105.739 30.937 105.844 31.1534C105.95 31.3697 106.003 31.6137 106.003 31.8854C106.003 32.1571 105.95 32.4011 105.844 32.6174C105.739 32.8338 105.592 33.0023 105.403 33.1231C105.214 33.2438 104.999 33.3042 104.758 33.3042ZM107.98 33.6514V31.8854C107.98 31.4527 108.071 31.1081 108.252 30.8515C108.433 30.5949 108.705 30.4666 109.067 30.4666C109.691 30.4666 110.003 30.8163 110.003 31.5156V33.6514H110.516V31.2892C110.516 31.0225 110.454 30.7911 110.331 30.5949C110.208 30.3987 110.042 30.2503 109.833 30.1496C109.624 30.049 109.396 29.9987 109.15 29.9987C108.888 29.9987 108.658 30.0603 108.459 30.1836C108.261 30.3069 108.101 30.4817 107.98 30.7081V30.1194H107.467V33.6514H107.98ZM112.523 35.1607L114.433 30.1194H113.95L112.825 33.0476L111.655 30.1194H111.12L112.569 33.7193L112.01 35.1607H112.523Z" fill="#201F22"/>
<path fill-rule="evenodd" clip-rule="evenodd" d="M18.2287 6.39844V30.883C16.2913 32.0761 13.9848 33.059 11.4363 33.7041C9.332 34.2375 7.2641 34.4894 5.33121 34.4894C3.46757 34.4894 1.72949 34.2554 0.200195 33.8119V9.32752C0.201017 9.32752 0.202456 9.32814 0.203278 9.32814C0.772705 9.49293 1.3709 9.629 1.99438 9.73473C2.5712 9.83281 3.1694 9.90488 3.78547 9.94927C4.28935 9.98685 4.80514 10.0056 5.33121 10.0056C7.26492 10.0056 9.332 9.7529 11.4363 9.22015C13.9848 8.57424 16.2913 7.59217 18.2287 6.39844ZM14.6461 12.0194C14.4947 12.0709 14.3424 12.1214 14.1895 12.1708L14.6461 12.1705L14.6461 12.0194Z" fill="#201F22"/>
<path fill-rule="evenodd" clip-rule="evenodd" d="M24.9374 0.948242V27.9909C22.7747 29.3087 20.2 30.3943 17.3551 31.1067C15.0061 31.6958 12.6978 31.9741 10.5401 31.9741C8.4598 31.9741 6.51962 31.7157 4.8125 31.2258V4.18335C4.81342 4.18335 4.81502 4.18404 4.81594 4.18404C5.45158 4.36603 6.11934 4.51633 6.81531 4.6331C7.4592 4.74143 8.12696 4.82103 8.81467 4.87006C9.37714 4.91157 9.9529 4.93232 10.5401 4.93232C12.6987 4.93232 15.0061 4.65317 17.3551 4.06476C20.2 3.35137 22.7747 2.26669 24.9374 0.948242Z" fill="#201F22"/>
</svg>
