<svg width="146" height="37" viewBox="0 0 146 37" fill="none" xmlns="http://www.w3.org/2000/svg">
<path fill-rule="evenodd" clip-rule="evenodd" d="M0.879883 16.7014V23.3301L19.7469 7.73757V1.10889L0.879883 16.7014Z" fill="#201F22"/>
<path fill-rule="evenodd" clip-rule="evenodd" d="M0.879883 29.6989V36.3274L19.7469 20.7349V14.1062L0.879883 29.6989Z" fill="#201F22"/>
<path fill-rule="evenodd" clip-rule="evenodd" d="M9.2666 16.7014V23.3301L28.1337 7.73757V1.10889L9.2666 16.7014Z" fill="#201F22"/>
<path fill-rule="evenodd" clip-rule="evenodd" d="M9.2666 29.6989V36.3274L28.1337 20.7349V14.1062L9.2666 29.6989Z" fill="#201F22"/>
<path d="M50.1035 23.7146C51.2294 23.7146 52.3759 23.6071 53.5428 23.3922C54.7097 23.1772 55.9124 22.8548 57.151 22.4249V15.0857L57.6423 14.6557L59.4694 14.5022V12.9514H50.2877V14.5022L52.6215 14.6557L53.1129 15.0857V21.5036C52.7239 21.5344 52.381 21.5574 52.0841 21.5727C51.7873 21.5881 51.557 21.5958 51.3932 21.5958C48.9468 21.5958 47.0352 20.805 45.6585 19.2236C44.2817 17.6421 43.5934 15.449 43.5934 12.6444C43.5934 9.91134 44.2664 7.76433 45.6124 6.20333C46.9585 4.64234 48.8086 3.86184 51.1629 3.86184C51.6338 3.86184 52.0841 3.90278 52.5141 3.98467C52.944 4.06656 53.3637 4.19451 53.7731 4.36852L54.2491 4.93662L54.8479 8.26845H57.151V2.92524C55.9841 2.57722 54.8453 2.3162 53.7347 2.14219C52.6241 1.96817 51.5468 1.88117 50.5027 1.88117C47.0429 1.88117 44.2664 2.86127 42.1731 4.82147C40.0798 6.78167 39.0332 9.3893 39.0332 12.6444C39.0332 15.9301 40.0568 18.5966 42.104 20.6438C44.1512 22.691 46.8177 23.7146 50.1035 23.7146ZM68.1097 23.5764C70.5663 23.5764 72.5368 22.8599 74.021 21.4269C75.5052 19.9938 76.2473 18.1002 76.2473 15.7459C76.2473 13.2585 75.5359 11.2855 74.1131 9.82689C72.6903 8.36825 70.771 7.63894 68.3553 7.63894C65.8987 7.63894 63.9283 8.37337 62.444 9.84224C60.9598 11.3111 60.2177 13.2585 60.2177 15.6845C60.2177 18.049 60.9419 19.9554 62.3903 21.4038C63.8387 22.8522 65.7452 23.5764 68.1097 23.5764ZM68.2018 21.9182C67.0656 21.9182 66.1776 21.3603 65.5379 20.2446C64.8981 19.1289 64.5782 17.5679 64.5782 15.5616C64.5782 13.5861 64.9007 12.0507 65.5456 10.9554C66.1904 9.86016 67.0861 9.31253 68.2325 9.31253C69.3892 9.31253 70.2925 9.87039 70.9425 10.9861C71.5925 12.1018 71.9175 13.6577 71.9175 15.6538C71.9175 17.66 71.5951 19.2057 70.9502 20.2907C70.3053 21.3757 69.3892 21.9182 68.2018 21.9182ZM83.0451 23.3308C84.2836 23.3308 85.3405 23.2719 86.2157 23.1542C87.0909 23.0365 87.8151 22.8548 88.3883 22.6091C90.0056 21.8824 91.2365 20.8562 92.0809 19.5306C92.9254 18.2051 93.3476 16.6313 93.3476 14.8093C93.3476 12.7109 92.7693 10.9964 91.6126 9.66567C90.456 8.33499 88.9717 7.66964 87.16 7.66964C86.4742 7.66964 85.7576 7.7848 85.0104 8.01511C84.2632 8.24542 83.4596 8.60112 82.5998 9.08222V0.100098H81.0951L76.4275 1.57409V2.80241H78.6999V23.2694L82.1853 23.3308H83.0451ZM83.5978 21.6572C83.3317 21.6572 83.127 21.6546 82.9837 21.6495C82.8404 21.6444 82.7124 21.6367 82.5998 21.6265V10.372C83.0093 10.2901 83.3752 10.2287 83.6976 10.1877C84.0201 10.1468 84.3143 10.1263 84.5805 10.1263C86.0442 10.1263 87.1702 10.5997 87.9584 11.5465C88.7465 12.4934 89.1406 13.8522 89.1406 15.623C89.1406 17.6907 88.6928 19.2133 87.7972 20.1909C86.9015 21.1684 85.5017 21.6572 83.5978 21.6572ZM102.31 23.5764C104.767 23.5764 106.737 22.8599 108.222 21.4269C109.706 19.9938 110.448 18.1002 110.448 15.7459C110.448 13.2585 109.737 11.2855 108.314 9.82689C106.891 8.36825 104.972 7.63894 102.556 7.63894C100.099 7.63894 98.1289 8.37337 96.6447 9.84224C95.1604 11.3111 94.4183 13.2585 94.4183 15.6845C94.4183 18.049 95.1425 19.9554 96.5909 21.4038C98.0393 22.8522 99.9458 23.5764 102.31 23.5764ZM102.402 21.9182C101.266 21.9182 100.378 21.3603 99.7385 20.2446C99.0988 19.1289 98.7789 17.5679 98.7789 15.5616C98.7789 13.5861 99.1013 12.0507 99.7462 10.9554C100.391 9.86016 101.287 9.31253 102.433 9.31253C103.59 9.31253 104.493 9.87039 105.143 10.9861C105.793 12.1018 106.118 13.6577 106.118 15.6538C106.118 17.66 105.796 19.2057 105.151 20.2907C104.506 21.3757 103.59 21.9182 102.402 21.9182ZM119.088 23.3308V21.9182L117.706 21.7954L117.276 21.3194V10.9401C117.891 10.766 118.446 10.633 118.942 10.5409C119.439 10.4487 119.876 10.4027 120.255 10.4027C121.238 10.4027 121.954 10.6765 122.405 11.2241C122.855 11.7717 123.08 12.629 123.08 13.7959V21.3194L122.65 21.7954L121.299 21.9182V23.3308H128.992V21.9182L127.333 21.7954L126.919 21.3194V12.89C126.919 11.1294 126.566 9.81921 125.859 8.95938C125.153 8.09956 124.083 7.66964 122.65 7.66964C122.005 7.66964 121.248 7.82319 120.378 8.13027C119.508 8.43735 118.474 8.92356 117.276 9.5889V7.73106H115.756L111.227 9.20505V10.4641H113.376V21.3194L112.931 21.7954L111.319 21.9182V23.3308H119.088ZM133.701 23.6071C134.5 23.6071 135.334 23.4434 136.204 23.1158C137.074 22.7883 138.041 22.2611 139.106 21.5344L139.52 23.3308H145.125V21.9489L143.451 21.7954L143.036 21.3501V13.2125C143.036 11.155 142.596 9.71173 141.716 8.88262C140.836 8.0535 139.316 7.63894 137.156 7.63894C135.231 7.63894 133.609 8.00232 132.289 8.72907C130.968 9.45583 130.308 10.3105 130.308 11.2932C130.308 11.6924 130.423 11.9841 130.653 12.1684C130.884 12.3526 131.25 12.4448 131.751 12.4448H134.653V9.49678C134.94 9.43536 135.206 9.3893 135.452 9.35859C135.697 9.32788 135.933 9.31253 136.158 9.31253C137.192 9.31253 137.949 9.57355 138.43 10.0956C138.911 10.6176 139.152 11.4467 139.152 12.5829V13.5195C135.027 14.451 132.401 15.316 131.275 16.1144C130.149 16.9128 129.586 18.049 129.586 19.523C129.586 20.7206 129.97 21.7007 130.738 22.4633C131.506 23.2259 132.493 23.6071 133.701 23.6071ZM136.066 21.1966C135.349 21.1966 134.781 20.9842 134.361 20.5594C133.942 20.1346 133.732 19.5588 133.732 18.832C133.732 17.9006 134.111 17.1636 134.868 16.6211C135.626 16.0785 137.038 15.577 139.106 15.1164V20.2446C138.492 20.5619 137.931 20.7999 137.425 20.9586C136.918 21.1172 136.465 21.1966 136.066 21.1966Z" fill="#201F22"/>
<path d="M42.7475 34.6512V34.29L42.1499 34.247L42.0081 34.1224V32.1405L43.8395 29.2085L44.3769 29.0967V28.7441H42.5799V29.0967L43.1172 29.1913L43.1989 29.3159L41.72 31.6676L40.3701 29.2471L40.4604 29.1483L40.9634 29.0967V28.7441H38.917V29.0967L39.4544 29.1827L41.2084 32.2565V34.1224L41.0666 34.247L40.469 34.29V34.6512H42.7475ZM45.4247 34.7285C46.0209 34.7285 46.5117 34.5229 46.8972 34.1116C47.2827 33.7003 47.4754 33.1723 47.4754 32.5274C47.4754 31.8825 47.2834 31.3544 46.8993 30.9432C46.5153 30.5319 46.0237 30.3262 45.4247 30.3262C44.8229 30.3262 44.332 30.5312 43.9523 30.941C43.5725 31.3509 43.3826 31.8797 43.3826 32.5274C43.3826 33.1751 43.574 33.7039 43.9566 34.1138C44.3392 34.5236 44.8286 34.7285 45.4247 34.7285ZM45.4247 34.3502C45.0607 34.3502 44.767 34.1847 44.5434 33.8537C44.3199 33.5226 44.2081 33.0805 44.2081 32.5274C44.2081 31.9742 44.3191 31.5321 44.5413 31.2011C44.7634 30.8701 45.0579 30.7046 45.4247 30.7046C45.7916 30.7046 46.0875 30.8708 46.3125 31.2033C46.5375 31.5357 46.65 31.9771 46.65 32.5274C46.65 33.0834 46.5382 33.5262 46.3147 33.8558C46.0911 34.1854 45.7945 34.3502 45.4247 34.3502ZM49.5422 34.7371C49.7514 34.7371 49.9728 34.6899 50.2064 34.5953C50.44 34.5007 50.6943 34.3545 50.9695 34.1568V34.6512H52.2721V34.333L51.8594 34.29L51.7003 34.1482V30.3262H51.365L50.3418 30.653V30.9281H50.9695V33.9117C50.786 34.0006 50.6105 34.0665 50.4428 34.1095C50.2752 34.1525 50.1096 34.174 49.9463 34.174C49.6539 34.174 49.439 34.0987 49.3014 33.9483C49.1638 33.7978 49.095 33.562 49.095 33.241V30.3262H48.7597L47.7365 30.653V30.9281H48.3642V33.3915C48.3642 33.8272 48.4652 34.1603 48.6673 34.3911C48.8693 34.6218 49.161 34.7371 49.5422 34.7371ZM54.6097 34.6512V34.333L53.9949 34.29L53.8444 34.1482V31.6332C54.0307 31.4125 54.202 31.2498 54.3582 31.1452C54.5144 31.0406 54.6627 30.9883 54.8031 30.9883C54.8949 30.9883 54.9787 31.0062 55.0546 31.042C55.1306 31.0779 55.1972 31.1302 55.2546 31.199H55.534V30.4423C55.4423 30.4022 55.3534 30.3728 55.2675 30.3542C55.1815 30.3355 55.0941 30.3262 55.0052 30.3262C54.945 30.3262 54.8999 30.3277 54.8698 30.3305C54.8397 30.3334 54.8117 30.3391 54.786 30.3477C54.614 30.4853 54.4499 30.625 54.2937 30.7669C54.1375 30.9088 53.9878 31.0528 53.8444 31.199V30.3735H53.5091L52.4859 30.6874V30.9625H53.105V34.1482L52.9545 34.29L52.4859 34.333V34.6512H54.6097ZM61.2238 34.6512V34.29L60.6305 34.247L60.4843 34.1224V29.1483H61.8299L61.9546 29.2815L62.075 30.0984H62.5608V28.7441H57.5867V30.0984H58.0682L58.1929 29.2815L58.3176 29.1483H59.6632V34.1224L59.5127 34.247L58.9237 34.29V34.6512H61.2238ZM64.1546 34.6512V34.333L63.5399 34.29L63.3894 34.1482V31.6332C63.5757 31.4125 63.7469 31.2498 63.9031 31.1452C64.0593 31.0406 64.2077 30.9883 64.3481 30.9883C64.4398 30.9883 64.5236 31.0062 64.5996 31.042C64.6755 31.0779 64.7422 31.1302 64.7995 31.199H65.0789V30.4423C64.9872 30.4022 64.8984 30.3728 64.8124 30.3542C64.7264 30.3355 64.639 30.3262 64.5501 30.3262C64.49 30.3262 64.4448 30.3277 64.4147 30.3305C64.3846 30.3334 64.3567 30.3391 64.3309 30.3477C64.1589 30.4853 63.9948 30.625 63.8386 30.7669C63.6824 30.9088 63.5327 31.0528 63.3894 31.199V30.3735H63.0541L62.0309 30.6874V30.9625H62.6499V34.1482L62.4995 34.29L62.0309 34.333V34.6512H64.1546ZM66.8705 34.7371C67.0798 34.7371 67.3012 34.6899 67.5348 34.5953C67.7683 34.5007 68.0227 34.3545 68.2978 34.1568V34.6512H69.6005V34.333L69.1878 34.29L69.0287 34.1482V30.3262H68.6934L67.6702 30.653V30.9281H68.2978V33.9117C68.1144 34.0006 67.9389 34.0665 67.7712 34.1095C67.6035 34.1525 67.438 34.174 67.2747 34.174C66.9823 34.174 66.7674 34.0987 66.6298 33.9483C66.4922 33.7978 66.4234 33.562 66.4234 33.241V30.3262H66.0881L65.0649 30.653V30.9281H65.6926V33.3915C65.6926 33.8272 65.7936 34.1603 65.9957 34.3911C66.1977 34.6218 66.4893 34.7371 66.8705 34.7371ZM71.0653 34.7285C71.5812 34.7285 71.9846 34.6118 72.2755 34.3782C72.5665 34.1446 72.7119 33.8214 72.7119 33.4087C72.7119 33.2511 72.6832 33.1071 72.6259 32.9766C72.5686 32.8462 72.4855 32.738 72.3766 32.6521C72.2275 32.5288 71.9868 32.3912 71.6543 32.2393C71.5597 32.1964 71.4895 32.1634 71.4437 32.1405C71.1513 32 70.9536 31.8725 70.8504 31.7578C70.7472 31.6432 70.6956 31.5042 70.6956 31.3408C70.6956 31.1402 70.7601 30.984 70.8891 30.8722C71.0181 30.7604 71.1972 30.7046 71.4265 30.7046C71.5325 30.7046 71.6386 30.7203 71.7446 30.7518C71.8506 30.7834 71.9624 30.8307 72.0799 30.8937L72.1487 31.5171H72.5829V30.5197C72.4339 30.4566 72.2741 30.4086 72.1036 30.3757C71.933 30.3427 71.7489 30.3262 71.5511 30.3262C71.0553 30.3262 70.6713 30.4337 70.399 30.6487C70.1267 30.8636 69.9906 31.1674 69.9906 31.5601C69.9906 31.818 70.0701 32.0344 70.2292 32.2093C70.3882 32.3841 70.6884 32.5704 71.1298 32.7681C71.5196 32.9458 71.7661 33.0927 71.8693 33.2088C71.9725 33.3249 72.024 33.4718 72.024 33.6495C72.024 33.8616 71.9488 34.0328 71.7983 34.1632C71.6479 34.2936 71.448 34.3588 71.1986 34.3588C71.0725 34.3588 70.9471 34.3416 70.8224 34.3072C70.6978 34.2728 70.5738 34.2198 70.4506 34.1482L70.3431 33.4001H69.9218V34.5437C70.0851 34.6067 70.2636 34.6533 70.457 34.6834C70.6505 34.7135 70.8533 34.7285 71.0653 34.7285ZM74.4691 34.677C74.6497 34.677 74.8374 34.6605 75.0323 34.6275C75.2272 34.5946 75.4249 34.5465 75.6256 34.4835V34.1568C75.5167 34.1826 75.4113 34.2012 75.3096 34.2126C75.2078 34.2241 75.1097 34.2298 75.0151 34.2298C74.74 34.2298 74.5494 34.1646 74.4433 34.0342C74.3373 33.9038 74.2842 33.648 74.2842 33.2668V30.9453H75.6256V30.5326H74.2842V29.5954H73.9575L73.5792 30.4165L72.9988 30.6702V30.9453H73.5534V33.787C73.5534 34.1252 73.6215 34.3581 73.7576 34.4856C73.8937 34.6132 74.1309 34.677 74.4691 34.677ZM77.7138 34.7285C77.9976 34.7285 78.2799 34.6841 78.5607 34.5953C78.8416 34.5064 79.1125 34.376 79.3733 34.204V33.7182C79.1096 33.8931 78.8653 34.0221 78.6403 34.1052C78.4153 34.1883 78.1982 34.2298 77.989 34.2298C77.5361 34.2298 77.1764 34.0686 76.9099 33.7462C76.6433 33.4238 76.5101 32.986 76.5101 32.4328V32.3339H79.3604C79.3661 32.2995 79.3697 32.2637 79.3711 32.2264C79.3726 32.1892 79.3733 32.1347 79.3733 32.0631C79.3733 31.5271 79.2307 31.1037 78.9455 30.7927C78.6603 30.4817 78.2741 30.3262 77.7869 30.3262C77.1908 30.3262 76.7028 30.5347 76.323 30.9518C75.9433 31.3688 75.7534 31.9069 75.7534 32.5661C75.7534 33.2081 75.9347 33.729 76.2972 34.1288C76.6598 34.5286 77.132 34.7285 77.7138 34.7285ZM78.5865 31.9642H76.553C76.5788 31.6059 76.6985 31.31 76.912 31.0764C77.1255 30.8428 77.3785 30.726 77.6708 30.726C77.9689 30.726 78.196 30.8206 78.3522 31.0098C78.5084 31.199 78.5865 31.4712 78.5865 31.8266V31.9642ZM81.4744 34.7285C81.7123 34.7285 81.9401 34.6856 82.158 34.5996C82.3758 34.5136 82.5993 34.3789 82.8286 34.1955V34.6512H84.1313V34.333L83.71 34.29L83.5595 34.1482V28.1724H83.2285L82.1537 28.4862V28.7613H82.8286V30.4165C82.6882 30.385 82.5521 30.3606 82.4202 30.3434C82.2884 30.3262 82.1637 30.3176 82.0462 30.3176C81.3727 30.3176 80.826 30.5347 80.4061 30.969C79.9862 31.4032 79.7762 31.9699 79.7762 32.6693C79.7762 33.2711 79.936 33.7648 80.2556 34.1503C80.5752 34.5358 80.9814 34.7285 81.4744 34.7285ZM81.8699 34.174C81.4687 34.174 81.1484 34.0249 80.9091 33.7268C80.6698 33.4288 80.5501 33.0261 80.5501 32.5188C80.5501 31.9742 80.6884 31.5357 80.965 31.2033C81.2415 30.8708 81.6048 30.7046 82.0548 30.7046C82.1551 30.7046 82.269 30.7167 82.3966 30.7411C82.5241 30.7655 82.6681 30.8006 82.8286 30.8464V33.8687C82.6624 33.9719 82.4998 34.0486 82.3407 34.0987C82.1816 34.1489 82.0247 34.174 81.8699 34.174ZM89.6921 34.7586C89.9844 34.7586 90.281 34.7321 90.582 34.6791C90.8829 34.6261 91.1781 34.5494 91.4676 34.4491V33.0562H90.9947L90.7797 34.0364L90.6422 34.174C90.5132 34.2141 90.3849 34.2435 90.2574 34.2621C90.1298 34.2807 90.003 34.29 89.8769 34.29C89.1575 34.29 88.5943 34.0543 88.1874 33.5828C87.7804 33.1114 87.5769 32.4615 87.5769 31.6332C87.5769 30.8536 87.7718 30.2374 88.1616 29.7845C88.5513 29.3317 89.0787 29.1053 89.7436 29.1053C89.9099 29.1053 90.0732 29.1239 90.2337 29.1612C90.3942 29.1984 90.559 29.2557 90.7281 29.3331L90.8442 29.4922L90.9775 30.2918H91.4676V28.9376C91.1523 28.8373 90.8492 28.7621 90.5583 28.7119C90.2674 28.6617 89.9901 28.6367 89.7264 28.6367C88.8093 28.6367 88.0706 28.9168 87.5102 29.4772C86.9499 30.0375 86.6698 30.7762 86.6698 31.6934C86.6698 32.2666 86.8052 32.7946 87.076 33.2776C87.3469 33.7605 87.7188 34.1367 88.1917 34.4061C88.398 34.5208 88.6273 34.6082 88.8795 34.6684C89.1317 34.7285 89.4026 34.7586 89.6921 34.7586ZM93.5945 34.7371C93.8037 34.7371 94.0252 34.6899 94.2587 34.5953C94.4923 34.5007 94.7467 34.3545 95.0218 34.1568V34.6512H96.3245V34.333L95.9118 34.29L95.7527 34.1482V30.3262H95.4174L94.3942 30.653V30.9281H95.0218V33.9117C94.8384 34.0006 94.6629 34.0665 94.4952 34.1095C94.3275 34.1525 94.162 34.174 93.9986 34.174C93.7063 34.174 93.4913 34.0987 93.3538 33.9483C93.2162 33.7978 93.1474 33.562 93.1474 33.241V30.3262H92.8121L91.7889 30.653V30.9281H92.4166V33.3915C92.4166 33.8272 92.5176 34.1603 92.7197 34.3911C92.9217 34.6218 93.2133 34.7371 93.5945 34.7371ZM98.6621 34.6512V34.333L98.0473 34.29L97.8968 34.1482V31.6332C98.0831 31.4125 98.2544 31.2498 98.4106 31.1452C98.5668 31.0406 98.7151 30.9883 98.8555 30.9883C98.9472 30.9883 99.0311 31.0062 99.107 31.042C99.183 31.0779 99.2496 31.1302 99.3069 31.199H99.5864V30.4423C99.4947 30.4022 99.4058 30.3728 99.3198 30.3542C99.2338 30.3355 99.1464 30.3262 99.0576 30.3262C98.9974 30.3262 98.9522 30.3277 98.9222 30.3305C98.8921 30.3334 98.8641 30.3391 98.8383 30.3477C98.6664 30.4853 98.5023 30.625 98.3461 30.7669C98.1899 30.9088 98.0401 31.0528 97.8968 31.199V30.3735H97.5615L96.5383 30.6874V30.9625H97.1574V34.1482L97.0069 34.29L96.5383 34.333V34.6512H98.6621ZM101.73 34.6512V34.333L101.116 34.29L100.965 34.1482V31.6332C101.152 31.4125 101.323 31.2498 101.479 31.1452C101.635 31.0406 101.784 30.9883 101.924 30.9883C102.016 30.9883 102.1 31.0062 102.175 31.042C102.251 31.0779 102.318 31.1302 102.375 31.199H102.655V30.4423C102.563 30.4022 102.474 30.3728 102.388 30.3542C102.302 30.3355 102.215 30.3262 102.126 30.3262C102.066 30.3262 102.021 30.3277 101.991 30.3305C101.96 30.3334 101.933 30.3391 101.907 30.3477C101.735 30.4853 101.571 30.625 101.415 30.7669C101.258 30.9088 101.109 31.0528 100.965 31.199V30.3735H100.63L99.6067 30.6874V30.9625H100.226V34.1482L100.075 34.29L99.6067 34.333V34.6512H101.73ZM103.767 29.432C103.91 29.432 104.032 29.3833 104.13 29.2858C104.229 29.1884 104.279 29.0694 104.279 28.929C104.279 28.7886 104.229 28.6682 104.13 28.5679C104.032 28.4676 103.91 28.4174 103.767 28.4174C103.627 28.4174 103.507 28.4669 103.408 28.5657C103.309 28.6646 103.26 28.7857 103.26 28.929C103.26 29.0694 103.309 29.1884 103.408 29.2858C103.507 29.3833 103.627 29.432 103.767 29.432ZM104.7 34.6512V34.333L104.227 34.29L104.077 34.1482V30.3735H103.733L102.722 30.6874V30.9625H103.337V34.1482L103.187 34.29L102.722 34.333V34.6512H104.7ZM106.87 34.7285C107.154 34.7285 107.436 34.6841 107.717 34.5953C107.998 34.5064 108.269 34.376 108.529 34.204V33.7182C108.266 33.8931 108.021 34.0221 107.796 34.1052C107.571 34.1883 107.354 34.2298 107.145 34.2298C106.692 34.2298 106.333 34.0686 106.066 33.7462C105.799 33.4238 105.666 32.986 105.666 32.4328V32.3339H108.517C108.522 32.2995 108.526 32.2637 108.527 32.2264C108.529 32.1892 108.529 32.1347 108.529 32.0631C108.529 31.5271 108.387 31.1037 108.102 30.7927C107.816 30.4817 107.43 30.3262 106.943 30.3262C106.347 30.3262 105.859 30.5347 105.479 30.9518C105.099 31.3688 104.91 31.9069 104.91 32.5661C104.91 33.2081 105.091 33.729 105.453 34.1288C105.816 34.5286 106.288 34.7285 106.87 34.7285ZM107.743 31.9642H105.709C105.735 31.6059 105.855 31.31 106.068 31.0764C106.282 30.8428 106.535 30.726 106.827 30.726C107.125 30.726 107.352 30.8206 107.508 31.0098C107.665 31.199 107.743 31.4712 107.743 31.8266V31.9642ZM111 34.6512V34.333L110.386 34.29L110.235 34.1482V31.6332C110.421 31.4125 110.593 31.2498 110.749 31.1452C110.905 31.0406 111.053 30.9883 111.194 30.9883C111.285 30.9883 111.369 31.0062 111.445 31.042C111.521 31.0779 111.588 31.1302 111.645 31.199H111.925V30.4423C111.833 30.4022 111.744 30.3728 111.658 30.3542C111.572 30.3355 111.485 30.3262 111.396 30.3262C111.336 30.3262 111.29 30.3277 111.26 30.3305C111.23 30.3334 111.202 30.3391 111.177 30.3477C111.005 30.4853 110.841 30.625 110.684 30.7669C110.528 30.9088 110.378 31.0528 110.235 31.199V30.3735H109.9L108.877 30.6874V30.9625H109.496V34.1482L109.345 34.29L108.877 34.333V34.6512H111Z" fill="#201F22"/>
</svg>
