<svg width="132" height="34" viewBox="0 0 132 34" fill="none" xmlns="http://www.w3.org/2000/svg">
<path d="M43.3633 20.7449V9.78843C43.3633 9.14695 43.312 7.83406 43.2093 5.84976L44.5821 10.6608L47.8408 20.7449H50.535L53.7937 10.6608C53.8422 10.5097 53.8951 10.3393 53.9523 10.1494L54.0231 9.91235C54.3027 8.96787 54.6753 7.61368 55.1408 5.84976C55.0638 7.73142 55.0232 8.79628 55.0189 9.04431C55.0147 9.29235 55.0125 9.54039 55.0125 9.78843V20.7449H58.3739V2.66803H53.3319L50.009 13.2781L49.2007 16.1775L48.5849 13.7528L48.3027 12.7777L45.0696 2.66803H40.002V20.7449H43.3633ZM65.1508 21.0015C67.1864 21.0015 68.7089 20.0906 69.7181 18.2688H69.7951C69.8806 19.1326 70.1394 19.7869 70.5713 20.2317C71.0032 20.6764 71.6725 20.8988 72.5791 20.8988C72.8357 20.8988 73.0602 20.8903 73.2527 20.8732C73.4451 20.8561 73.6269 20.8347 73.7979 20.809C73.969 20.7834 74.14 20.7491 74.3111 20.7064C74.4822 20.6636 74.6746 20.6166 74.8884 20.5652V18.6152C74.6318 18.6665 74.3667 18.6921 74.093 18.6921C73.6824 18.6921 73.3895 18.5446 73.2142 18.2495C73.0388 17.9544 72.9512 17.4177 72.9512 16.6394V11.5846C72.9512 9.9937 72.4765 8.76634 71.5271 7.90248C70.5777 7.03863 69.2263 6.6067 67.4729 6.6067C65.7367 6.6067 64.3661 6.95523 63.3611 7.65231C62.3561 8.34938 61.7381 9.3736 61.5072 10.725L65.2663 10.9046C65.3432 10.2032 65.5378 9.70076 65.85 9.39713C66.1622 9.09349 66.6519 8.94168 67.319 8.94168C68.0374 8.94168 68.5549 9.16192 68.8714 9.6024C69.1878 10.0429 69.3461 10.7164 69.3461 11.6231V12.3287L66.3568 12.38C64.5777 12.3971 63.2199 12.782 62.2834 13.5347C61.3468 14.2873 60.8786 15.3821 60.8786 16.819C60.8786 18.1447 61.2549 19.1732 62.0076 19.9045C62.7602 20.6358 63.808 21.0015 65.1508 21.0015ZM66.3055 18.4869C65.8008 18.4869 65.3967 18.3265 65.0931 18.0058C64.7894 17.685 64.6376 17.1954 64.6376 16.5368C64.6376 16.0236 64.7296 15.613 64.9134 15.3051C65.0973 14.9972 65.3646 14.7684 65.7153 14.6188C66.066 14.4691 66.6604 14.3771 67.4986 14.3429L69.3461 14.3173V15.0229C69.3461 15.6301 69.2135 16.2053 68.9483 16.7485C68.6832 17.2916 68.3176 17.7171 67.8514 18.025C67.3853 18.3329 66.87 18.4869 66.3055 18.4869ZM80.1386 20.7449V13.9324C80.1386 12.504 80.3888 11.4263 80.8892 10.6993C81.3895 9.97232 82.0887 9.60881 82.9868 9.60881C83.4316 9.60881 83.9447 9.67296 84.5263 9.80126V6.78631C84.2441 6.65802 83.872 6.59387 83.4102 6.59387C82.8457 6.59387 82.3753 6.69009 81.9989 6.88253C81.6226 7.07498 81.2976 7.37006 81.0239 7.76777C80.7502 8.16549 80.438 8.85187 80.0873 9.82692H80.036C80.036 9.57032 80.0146 9.05073 79.9719 8.26813C79.9291 7.48552 79.8949 7.01724 79.8692 6.86329H76.4309C76.4566 7.25673 76.4801 7.7079 76.5015 8.21681C76.5228 8.72571 76.5335 9.36078 76.5335 10.122V20.7449H80.1386ZM90.2897 20.9758C91.4273 20.9758 92.4408 20.8304 93.3303 20.5396V18.3072C92.8086 18.427 92.4066 18.4869 92.1244 18.4869C91.5855 18.4869 91.1878 18.3265 90.9312 18.0058C90.6746 17.685 90.5463 17.1868 90.5463 16.5111V9.3009H93.1764V6.86329H90.5463V3.60458H88.2883L87.1593 6.86329H85.2221V9.3009H86.9797V17.4862C86.9797 18.6579 87.2662 19.5325 87.8393 20.1098C88.4123 20.6871 89.2292 20.9758 90.2897 20.9758ZM99.0681 4.36153V1.70581H95.463V4.36153H99.0681ZM99.0681 20.7449V6.86329H95.463V20.7449H99.0681ZM106.345 20.7449V13.3037C106.345 12.132 106.613 11.1719 107.147 10.4235C107.682 9.6751 108.385 9.3009 109.258 9.3009C110.908 9.3009 111.734 10.5197 111.734 12.9573V20.7449H115.326V11.931C115.326 10.1861 114.933 8.86042 114.146 7.9538C113.359 7.04718 112.23 6.59387 110.759 6.59387C109.741 6.59387 108.864 6.83335 108.129 7.31232C107.393 7.79129 106.782 8.56107 106.294 9.62164H106.243C106.243 9.3565 106.221 8.87111 106.179 8.16549C106.136 7.45986 106.102 7.0258 106.076 6.86329H102.638C102.663 7.23962 102.687 7.66514 102.708 8.13983C102.73 8.61452 102.74 9.22393 102.74 9.96804V20.7449H106.345ZM124.9 21.0015C127.106 21.0015 128.834 20.3621 130.083 19.0834C131.332 17.8048 131.956 16.0407 131.956 13.7912C131.956 11.4734 131.359 9.69648 130.166 8.46057C128.973 7.22466 127.243 6.6067 124.977 6.6067C122.762 6.6067 121.038 7.24604 119.806 8.52472C118.575 9.80339 117.959 11.5589 117.959 13.7912C117.959 16.0321 118.575 17.7941 119.806 19.077C121.038 20.36 122.736 21.0015 124.9 21.0015ZM124.861 18.5382C123.852 18.5382 123.08 18.134 122.546 17.3258C122.011 16.5175 121.744 15.3393 121.744 13.7912C121.744 10.6523 122.839 9.0828 125.028 9.0828C126.054 9.0828 126.837 9.45486 127.376 10.199C127.915 10.9431 128.184 12.1405 128.184 13.7912C128.184 16.9559 127.077 18.5382 124.861 18.5382Z" fill="#201F22"/>
<path opacity="0.595853" d="M75.7383 32.0651C76.012 32.0651 76.2655 32.0213 76.4988 31.9338C76.7321 31.8463 76.9284 31.7297 77.0877 31.5839C77.247 31.438 77.3794 31.29 77.4848 31.1397C77.5902 30.9894 77.6766 30.8334 77.7439 30.6719L76.9497 30.4229C76.851 30.6697 76.6929 30.8783 76.4753 31.0488C76.2576 31.2193 76.0075 31.3046 75.7248 31.3046C75.2896 31.3046 74.9419 31.1228 74.6816 30.7594C74.4214 30.396 74.2913 29.9024 74.2913 29.2788C74.2913 28.6641 74.4203 28.1739 74.6783 27.8082C74.9363 27.4425 75.2851 27.2597 75.7248 27.2597C76.187 27.2597 76.5616 27.5177 76.8488 28.0337L77.6093 27.7846C77.4523 27.4212 77.2133 27.1161 76.8925 26.8693C76.5717 26.6225 76.187 26.4992 75.7383 26.4992C75.0428 26.4992 74.4753 26.7493 74.0355 27.2496C73.5958 27.7499 73.376 28.4263 73.376 29.2788C73.376 30.1447 73.5992 30.8256 74.0456 31.3214C74.4921 31.8172 75.0563 32.0651 75.7383 32.0651ZM79.9312 32.0651C80.2005 32.0651 80.4416 32.0202 80.6547 31.9305C80.8679 31.8407 81.0395 31.7252 81.1696 31.5839C81.2997 31.4425 81.4074 31.2788 81.4927 31.0926C81.5779 30.9064 81.6374 30.7235 81.671 30.544C81.7047 30.3646 81.7215 30.1851 81.7215 30.0056C81.7215 29.4268 81.5689 28.9378 81.2638 28.5384C80.9587 28.1391 80.5145 27.9394 79.9312 27.9394C79.3435 27.9394 78.897 28.1391 78.5919 28.5384C78.2868 28.9378 78.1343 29.4268 78.1343 30.0056C78.1343 30.1941 78.1511 30.3791 78.1847 30.5609C78.2184 30.7426 78.279 30.9265 78.3665 31.1127C78.454 31.2989 78.5639 31.4605 78.6962 31.5973C78.8286 31.7342 79.0013 31.8463 79.2145 31.9338C79.4276 32.0213 79.6665 32.0651 79.9312 32.0651ZM79.9312 31.3382C79.6845 31.3382 79.4691 31.2283 79.2851 31.0084C79.1012 30.7886 79.0092 30.4543 79.0092 30.0056C79.0092 29.548 79.1023 29.2103 79.2885 28.9927C79.4747 28.7751 79.689 28.6663 79.9312 28.6663C80.1735 28.6663 80.3867 28.7751 80.5706 28.9927C80.7546 29.2103 80.8466 29.548 80.8466 30.0056C80.8466 30.4543 80.7546 30.7886 80.5706 31.0084C80.3867 31.2283 80.1735 31.3382 79.9312 31.3382ZM83.3435 31.9439V26.4453H82.4955V31.9439H83.3435ZM85.9144 32.0651C86.1837 32.0651 86.4248 32.0202 86.6379 31.9305C86.8511 31.8407 87.0227 31.7252 87.1528 31.5839C87.2829 31.4425 87.3906 31.2788 87.4759 31.0926C87.5611 30.9064 87.6206 30.7235 87.6542 30.544C87.6879 30.3646 87.7047 30.1851 87.7047 30.0056C87.7047 29.4268 87.5521 28.9378 87.247 28.5384C86.9419 28.1391 86.4977 27.9394 85.9144 27.9394C85.3267 27.9394 84.8802 28.1391 84.5751 28.5384C84.27 28.9378 84.1175 29.4268 84.1175 30.0056C84.1175 30.1941 84.1343 30.3791 84.1679 30.5609C84.2016 30.7426 84.2622 30.9265 84.3497 31.1127C84.4372 31.2989 84.5471 31.4605 84.6794 31.5973C84.8118 31.7342 84.9845 31.8463 85.1977 31.9338C85.4108 32.0213 85.6497 32.0651 85.9144 32.0651ZM85.9144 31.3382C85.6677 31.3382 85.4523 31.2283 85.2683 31.0084C85.0844 30.7886 84.9924 30.4543 84.9924 30.0056C84.9924 29.548 85.0855 29.2103 85.2717 28.9927C85.4579 28.7751 85.6722 28.6663 85.9144 28.6663C86.1567 28.6663 86.3699 28.7751 86.5538 28.9927C86.7378 29.2103 86.8298 29.548 86.8298 30.0056C86.8298 30.4543 86.7378 30.7886 86.5538 31.0084C86.3699 31.2283 86.1567 31.3382 85.9144 31.3382ZM89.2594 31.9439V29.9652C89.2594 29.5883 89.3368 29.2866 89.4916 29.06C89.6464 28.8334 89.8696 28.7201 90.1612 28.7201C90.3272 28.7201 90.4955 28.7471 90.666 28.8009V28.0269C90.5359 27.9686 90.3676 27.9394 90.1612 27.9394C89.9414 27.9394 89.7518 27.9933 89.5925 28.101C89.4332 28.2086 89.311 28.3343 89.2257 28.4778V28.0606H88.4046V31.9439H89.2594ZM92.5034 32.0651C92.9924 32.0651 93.3704 31.954 93.6374 31.7319C93.9044 31.5098 94.0379 31.2395 94.0379 30.9209C94.0379 30.4049 93.6385 30.0191 92.8399 29.7633C92.8174 29.7544 92.7815 29.7431 92.7322 29.7297C92.5437 29.6669 92.3979 29.6153 92.2947 29.5749C92.1915 29.5345 92.0917 29.4706 91.9952 29.3831C91.8988 29.2956 91.8505 29.1957 91.8505 29.0836C91.8505 28.949 91.9055 28.8402 92.0154 28.7572C92.1253 28.6741 92.2835 28.6326 92.4899 28.6326C92.8668 28.6326 93.1876 28.8144 93.4523 29.1778L94.0177 28.8346C93.8786 28.5743 93.6677 28.3601 93.385 28.1918C93.1024 28.0236 92.8017 27.9394 92.4832 27.9394C92.0569 27.9394 91.7002 28.0426 91.4131 28.249C91.1259 28.4554 90.9823 28.7291 90.9823 29.0701C90.9823 29.2451 91.0137 29.3988 91.0765 29.5311C91.1394 29.6635 91.2313 29.7734 91.3525 29.8609C91.4736 29.9484 91.5892 30.018 91.6991 30.0696C91.809 30.1212 91.9448 30.1739 92.1063 30.2277C92.1242 30.2322 92.1534 30.2412 92.1938 30.2546C92.4181 30.3264 92.5864 30.3836 92.6985 30.4263C92.8107 30.4689 92.9173 30.5328 93.0182 30.6181C93.1192 30.7033 93.1697 30.802 93.1697 30.9142C93.1697 31.0533 93.108 31.1643 92.9846 31.2474C92.8612 31.3304 92.6941 31.3719 92.4832 31.3719C92.0524 31.3719 91.7025 31.1744 91.4333 30.7796L90.8208 31.1363C90.9778 31.4235 91.2033 31.65 91.4972 31.8161C91.7911 31.9821 92.1265 32.0651 92.5034 32.0651ZM97.9616 32.0651C98.2308 32.0651 98.472 32.0202 98.6851 31.9305C98.8982 31.8407 99.0699 31.7252 99.2 31.5839C99.3301 31.4425 99.4378 31.2788 99.523 31.0926C99.6083 30.9064 99.6677 30.7235 99.7014 30.544C99.735 30.3646 99.7519 30.1851 99.7519 30.0056C99.7519 29.4268 99.5993 28.9378 99.2942 28.5384C98.9891 28.1391 98.5449 27.9394 97.9616 27.9394C97.3738 27.9394 96.9274 28.1391 96.6223 28.5384C96.3172 28.9378 96.1646 29.4268 96.1646 30.0056C96.1646 30.1941 96.1814 30.3791 96.2151 30.5609C96.2488 30.7426 96.3093 30.9265 96.3968 31.1127C96.4843 31.2989 96.5942 31.4605 96.7266 31.5973C96.859 31.7342 97.0317 31.8463 97.2448 31.9338C97.458 32.0213 97.6969 32.0651 97.9616 32.0651ZM97.9616 31.3382C97.7148 31.3382 97.4995 31.2283 97.3155 31.0084C97.1315 30.7886 97.0396 30.4543 97.0396 30.0056C97.0396 29.548 97.1327 29.2103 97.3189 28.9927C97.5051 28.7751 97.7193 28.6663 97.9616 28.6663C98.2039 28.6663 98.417 28.7751 98.601 28.9927C98.7849 29.2103 98.8769 29.548 98.8769 30.0056C98.8769 30.4543 98.7849 30.7886 98.601 31.0084C98.417 31.2283 98.2039 31.3382 97.9616 31.3382ZM101.603 31.9439V28.7874H102.41V28.0606H101.603V27.7039C101.603 27.5154 101.635 27.3786 101.7 27.2933C101.765 27.2081 101.867 27.1654 102.006 27.1654H102.498V26.4453H101.885C101.522 26.4453 101.24 26.5451 101.041 26.7448C100.841 26.9445 100.741 27.244 100.741 27.6433V28.0606H100.149V28.7874H100.741V31.9439H101.603ZM104.894 33.5323C105.23 33.5323 105.512 33.4515 105.738 33.29C105.965 33.1285 106.15 32.8503 106.294 32.4554L107.902 28.0606H106.973L106.361 30.0595C106.217 30.5754 106.134 30.8738 106.112 30.9546H106.085C106.027 30.7258 105.941 30.4274 105.829 30.0595L105.163 28.0606H104.227L105.681 31.8497L105.553 32.2333C105.477 32.4487 105.375 32.6001 105.247 32.6876C105.119 32.7751 104.954 32.8189 104.752 32.8189H104.631V33.5323H104.894ZM109.989 32.0651C110.258 32.0651 110.499 32.0202 110.712 31.9305C110.925 31.8407 111.097 31.7252 111.227 31.5839C111.357 31.4425 111.465 31.2788 111.55 31.0926C111.635 30.9064 111.695 30.7235 111.728 30.544C111.762 30.3646 111.779 30.1851 111.779 30.0056C111.779 29.4268 111.626 28.9378 111.321 28.5384C111.016 28.1391 110.572 27.9394 109.989 27.9394C109.401 27.9394 108.954 28.1391 108.649 28.5384C108.344 28.9378 108.192 29.4268 108.192 30.0056C108.192 30.1941 108.208 30.3791 108.242 30.5609C108.276 30.7426 108.336 30.9265 108.424 31.1127C108.511 31.2989 108.621 31.4605 108.754 31.5973C108.886 31.7342 109.059 31.8463 109.272 31.9338C109.485 32.0213 109.724 32.0651 109.989 32.0651ZM109.989 31.3382C109.742 31.3382 109.526 31.2283 109.342 31.0084C109.159 30.7886 109.067 30.4543 109.067 30.0056C109.067 29.548 109.16 29.2103 109.346 28.9927C109.532 28.7751 109.746 28.6663 109.989 28.6663C110.231 28.6663 110.444 28.7751 110.628 28.9927C110.812 29.2103 110.904 29.548 110.904 30.0056C110.904 30.4543 110.812 30.7886 110.628 31.0084C110.444 31.2283 110.231 31.3382 109.989 31.3382ZM113.737 32.0651C114.002 32.0651 114.223 32.0045 114.4 31.8834C114.577 31.7622 114.698 31.6321 114.76 31.493H114.767V31.9439H115.588V28.0606H114.74V30.2344C114.74 30.5351 114.668 30.7942 114.525 31.0118C114.381 31.2294 114.182 31.3382 113.926 31.3382C113.5 31.3382 113.286 31.0353 113.286 30.4296V28.0606H112.432V30.5373C112.432 30.829 112.472 31.0802 112.553 31.2911C112.634 31.502 112.741 31.6601 112.876 31.7656C113.01 31.871 113.148 31.9473 113.29 31.9944C113.431 32.0415 113.58 32.0651 113.737 32.0651ZM117.372 31.9439V29.9652C117.372 29.5883 117.449 29.2866 117.604 29.06C117.759 28.8334 117.982 28.7201 118.274 28.7201C118.44 28.7201 118.608 28.7471 118.778 28.8009V28.0269C118.648 27.9686 118.48 27.9394 118.274 27.9394C118.054 27.9394 117.864 27.9933 117.705 28.101C117.546 28.2086 117.423 28.3343 117.338 28.4778V28.0606H116.517V31.9439H117.372ZM121.827 31.9439V26.4453H120.979V31.9439H121.827ZM123.786 27.4818V26.5463H122.87V27.4818H123.786ZM123.752 31.9439V28.0606H122.911V31.9439H123.752ZM125.912 31.9439V28.7874H126.72V28.0606H125.912V27.7039C125.912 27.5154 125.945 27.3786 126.01 27.2933C126.075 27.2081 126.177 27.1654 126.316 27.1654H126.807V26.4453H126.195C125.832 26.4453 125.55 26.5451 125.35 26.7448C125.151 26.9445 125.051 27.244 125.051 27.6433V28.0606H124.459V28.7874H125.051V31.9439H125.912ZM128.894 32.0651C129.316 32.0651 129.668 31.9686 129.951 31.7757C130.233 31.5827 130.437 31.3427 130.563 31.0555L129.85 30.8132C129.764 30.9793 129.64 31.115 129.476 31.2204C129.312 31.3259 129.123 31.3786 128.907 31.3786C128.598 31.3786 128.354 31.272 128.177 31.0589C128 30.8458 127.911 30.5912 127.911 30.295H130.603C130.617 30.1828 130.624 30.0684 130.624 29.9518C130.624 29.355 130.458 28.8704 130.125 28.498C129.793 28.1256 129.372 27.9394 128.86 27.9394C128.34 27.9394 127.908 28.1245 127.565 28.4947C127.221 28.8648 127.05 29.3618 127.05 29.9854C127.05 30.6181 127.221 31.1228 127.565 31.4997C127.908 31.8766 128.351 32.0651 128.894 32.0651ZM129.755 29.696H127.925C127.929 29.4089 128.016 29.1587 128.184 28.9456C128.352 28.7325 128.578 28.6259 128.86 28.6259C129.143 28.6259 129.363 28.7302 129.52 28.9389C129.677 29.1475 129.755 29.3999 129.755 29.696Z" fill="#201F22"/>
<path d="M8.09212 4.84603L8.09212 31.6502C8.09199 31.9067 7.95989 32.144 7.74479 32.2742C7.5297 32.4043 7.2637 32.4078 7.04543 32.2834L0.701861 28.6612C0.477958 28.5335 0.338999 28.2912 0.338867 28.028L0.338867 1.22384C0.338995 0.967318 0.471103 0.729994 0.686197 0.59988C0.90129 0.469767 1.16729 0.46627 1.38556 0.590683L7.72913 4.21287C7.95303 4.3405 8.09199 4.58288 8.09212 4.84603Z" fill="#201F22"/>
<path d="M18.43 4.847L18.43 31.6512C18.4299 31.9077 18.2978 32.145 18.0827 32.2751C17.8676 32.4053 17.6016 32.4088 17.3833 32.2843L11.0398 28.6622C10.8158 28.5345 10.6769 28.2921 10.6768 28.029L10.6768 1.22482C10.6769 0.968294 10.809 0.73097 11.0241 0.600857C11.2392 0.470743 11.5052 0.467247 11.7234 0.59166L18.067 4.21384C18.2909 4.34147 18.4299 4.58385 18.43 4.847Z" fill="#201F22"/>
<path d="M28.766 4.847L28.766 31.6512C28.7658 31.9077 28.6337 32.145 28.4186 32.2751C28.2035 32.4053 27.9375 32.4088 27.7193 32.2843L21.3757 28.6622C21.1518 28.5345 21.0128 28.2921 21.0127 28.029L21.0127 1.22482C21.0128 0.968294 21.1449 0.73097 21.36 0.600857C21.5751 0.470743 21.8411 0.467247 22.0594 0.59166L28.403 4.21384C28.6269 4.34147 28.7658 4.58385 28.766 4.847Z" fill="#201F22"/>
</svg>
