<svg width="25" height="25" viewBox="0 0 25 25" fill="none" xmlns="http://www.w3.org/2000/svg">
    <path d="M5.91953 1.49412C5.53477 1.46287 5.10703 1.5742 4.7125 1.85154C4.36485 2.09373 3.61485 2.68943 2.91367 3.36326C2.56406 3.6992 2.23008 4.04881 1.97227 4.39256C1.7125 4.73631 1.48594 5.05076 1.49961 5.50779C1.51328 5.91795 1.5543 7.13084 2.42735 8.99021C3.30039 10.8476 4.99375 13.3965 8.29649 16.7012C11.6012 20.0058 14.15 21.6992 16.0074 22.5722C17.8648 23.4453 19.0797 23.4863 19.4898 23.5C19.9449 23.5137 20.2594 23.2871 20.6031 23.0273C20.9469 22.7676 21.2965 22.4355 21.6324 22.0859C22.3043 21.3847 22.9 20.6347 23.1422 20.2871C23.6949 19.5 23.6031 18.5703 22.9879 18.1387C22.6012 17.8672 19.0445 15.5 18.5094 15.1719C17.9664 14.8398 17.3414 14.9902 16.7828 15.2851C16.3434 15.5176 15.1539 16.1992 14.8141 16.3945C14.5582 16.2324 13.5875 15.5859 11.4996 13.498C9.40977 11.4101 8.76524 10.4394 8.60313 10.1836C8.79844 9.84373 9.47813 8.66014 9.7125 8.21287C10.0055 7.65623 10.1695 7.02537 9.81992 6.4785C9.67344 6.24607 9.00742 5.2324 8.33555 4.21482C7.66172 3.19725 7.02305 2.2324 6.85703 2.00193V1.99998C6.64024 1.70115 6.30235 1.52537 5.91953 1.49412ZM12.4996 2.49998V3.49998C17.4625 3.49998 21.4996 7.53709 21.4996 12.5H22.4996C22.4996 6.98631 18.0133 2.49998 12.4996 2.49998ZM5.82774 2.5156C5.96446 2.53318 6.04649 2.58787 6.04649 2.58787C6.12656 2.6992 6.82774 3.74998 7.49961 4.7656C8.17149 5.78318 8.85703 6.82615 8.97617 7.0156C8.99571 7.0449 9.02305 7.37693 8.82774 7.74607V7.74803C8.60703 8.16795 7.57774 9.96678 7.57774 9.96678L7.43516 10.2187L7.58164 10.4687C7.58164 10.4687 8.34922 11.7637 10.7906 14.2051C13.234 16.6465 14.5289 17.416 14.5289 17.416L14.7789 17.5625L15.0309 17.4199C15.0309 17.4199 16.8258 16.3926 17.2496 16.1699C17.6188 15.9765 17.9508 16.0019 17.9898 16.0254C18.3356 16.2383 22.1773 18.791 22.4137 18.957C22.4215 18.9629 22.6305 19.2793 22.3258 19.7129H22.3238C22.1402 19.9765 21.5387 20.7402 20.9117 21.3926C20.5973 21.7187 20.275 22.0234 20.0016 22.2285C19.7281 22.4336 19.484 22.498 19.5231 22.5C19.0973 22.4863 18.1578 22.4765 16.4332 21.666C14.7086 20.8574 12.2477 19.2383 9.00352 15.9922C5.76133 12.75 4.14219 10.289 3.33164 8.56248C2.52305 6.83787 2.51328 5.89842 2.49961 5.47459C2.50156 5.51365 2.56602 5.26756 2.7711 4.99412C2.97617 4.72068 3.27891 4.39646 3.60508 4.08201C4.25938 3.45506 5.0211 2.8535 5.28477 2.6699V2.67185C5.50157 2.51951 5.69102 2.49998 5.82774 2.5156ZM12.4996 5.27146V6.27146C15.9352 6.27146 18.7281 9.06639 18.7281 12.5H19.7281C19.7281 8.51365 16.4859 5.27146 12.4996 5.27146ZM12.4996 7.99998V8.99998C14.4293 8.99998 15.9996 10.5703 15.9996 12.5H16.9996C16.9996 10.0176 14.9801 7.99998 12.4996 7.99998Z" fill="white"/>
</svg>
