<svg width="16" height="16" viewBox="0 0 16 16" fill="none" xmlns="http://www.w3.org/2000/svg">
<path d="M2 1.33337V14.6667H3.33333C3.33333 14.2987 3.632 14 4 14C4.368 14 4.66667 14.2987 4.66667 14.6667H6C6 14.2987 6.29867 14 6.66667 14C7.03467 14 7.33333 14.2987 7.33333 14.6667H8.66667C8.66667 14.2987 8.96533 14 9.33333 14C9.70133 14 10 14.2987 10 14.6667H11.3333C11.3333 14.2987 11.632 14 12 14C12.368 14 12.6667 14.2987 12.6667 14.6667H14V1.33337H12.6667C12.6667 1.70137 12.368 2.00004 12 2.00004C11.632 2.00004 11.3333 1.70137 11.3333 1.33337H10C10 1.70137 9.70133 2.00004 9.33333 2.00004C8.96533 2.00004 8.66667 1.70137 8.66667 1.33337H7.33333C7.33333 1.70137 7.03467 2.00004 6.66667 2.00004C6.29867 2.00004 6 1.70137 6 1.33337H4.66667C4.66667 1.70137 4.368 2.00004 4 2.00004C3.632 2.00004 3.33333 1.70137 3.33333 1.33337H2ZM3.33333 3.33337H12.6667V12.6667H12H9.33333H6.66667H4H3.33333V3.33337ZM4.66667 4.66671V6.00004H11.3333V4.66671H4.66667ZM4.66667 7.33337V8.66671H11.3333V7.33337H4.66667ZM4.66667 10V11.3334H11.3333V10H4.66667Z" fill="#12688D"/>
</svg>
