<svg width="16" height="16" viewBox="0 0 16 16" fill="none" xmlns="http://www.w3.org/2000/svg">
<path d="M8.00163 1.33313C4.32763 1.33313 1.33496 4.32579 1.33496 7.9998C1.33496 11.6738 4.32763 14.6665 8.00163 14.6665C11.6756 14.6665 14.6683 11.6738 14.6683 7.9998C14.6683 4.32579 11.6756 1.33313 8.00163 1.33313ZM8.00163 2.66646C10.955 2.66646 13.335 5.04638 13.335 7.9998C13.335 10.9532 10.955 13.3331 8.00163 13.3331C5.04821 13.3331 2.66829 10.9532 2.66829 7.9998C2.66829 5.04638 5.04821 2.66646 8.00163 2.66646ZM7.33496 3.9998V8.27584L10.1969 11.1378L11.1396 10.1951L8.66829 7.72376V3.9998H7.33496Z" fill="#12688D"/>
</svg>
