<svg width="48" height="38" viewBox="0 0 48 38" fill="none" xmlns="http://www.w3.org/2000/svg">
<path d="M24 0C16.51 0 10.3301 5.71 9.58008 13H9C4.04 13 0 17.04 0 22C0 26.96 4.04 31 9 31H10.9395C11.3695 30.02 11.7293 29.02 12.0293 28H9C5.69 28 3 25.31 3 22C3 18.69 5.69 16 9 16H11C11.83 16 12.5 15.33 12.5 14.5C12.5 8.16 17.66 3 24 3C30.34 3 35.5 8.16 35.5 14.5C35.5 15.33 36.17 16 37 16H39C42.31 16 45 18.69 45 22C45 25.31 42.31 28 39 28H35.9707C36.2707 29.02 36.6305 30.02 37.0605 31H39C43.96 31 48 26.96 48 22C48 17.04 43.96 13 39 13H38.4199C37.6699 5.71 31.49 0 24 0ZM17.4766 16.9785C17.0791 16.9847 16.7003 17.1485 16.4235 17.4337C16.1466 17.719 15.9943 18.1025 16 18.5V21.1172C16 24.8709 15.2256 28.5736 13.7598 32.0117C12.992 32.0795 12.2798 32.4402 11.7708 33.019C11.2618 33.5978 10.9951 34.3502 11.026 35.1203C11.0569 35.8905 11.383 36.6192 11.9368 37.1553C12.4905 37.6915 13.2293 37.9939 14 38C14.5461 37.9995 15.0818 37.8498 15.5491 37.5673C16.0165 37.2847 16.3979 36.8799 16.6521 36.3966C16.9063 35.9132 17.0238 35.3696 16.9918 34.8244C16.9599 34.2792 16.7797 33.7531 16.4707 33.3027C18.1271 29.4615 19 25.3182 19 21.1172V18.5C19.0029 18.2992 18.9654 18.0999 18.8899 17.9139C18.8143 17.7279 18.7022 17.5589 18.5601 17.417C18.418 17.2752 18.2489 17.1632 18.0628 17.0879C17.8767 17.0126 17.6773 16.9754 17.4766 16.9785ZM23.9766 16.9785C23.5791 16.9847 23.2003 17.1485 22.9235 17.4337C22.6466 17.719 22.4943 18.1025 22.5 18.5V32.4062C21.9302 32.7374 21.4853 33.247 21.2341 33.8562C20.9828 34.4655 20.9391 35.1405 21.1098 35.777C21.2805 36.4136 21.6561 36.9762 22.1784 37.378C22.7008 37.7798 23.341 37.9984 24 38C24.6596 37.9991 25.3006 37.7808 25.8237 37.3789C26.3468 36.977 26.7228 36.4139 26.8936 35.7768C27.0644 35.1396 27.0204 34.4639 26.7685 33.8543C26.5166 33.2446 26.0707 32.735 25.5 32.4043V18.5C25.5029 18.2992 25.4654 18.0999 25.3899 17.9139C25.3143 17.7279 25.2022 17.5589 25.0601 17.417C24.918 17.2752 24.7489 17.1632 24.5628 17.0879C24.3767 17.0126 24.1773 16.9754 23.9766 16.9785ZM30.4766 16.9785C30.0791 16.9847 29.7003 17.1485 29.4235 17.4337C29.1466 17.719 28.9943 18.1025 29 18.5V21.1172C29 25.3184 29.8746 29.4613 31.5312 33.3027C31.2224 33.7529 31.0422 34.2789 31.0101 34.8239C30.9781 35.369 31.0954 35.9124 31.3494 36.3957C31.6034 36.879 31.9845 37.2838 32.4516 37.5665C32.9186 37.8492 33.454 37.9991 34 38C34.7707 37.9939 35.5095 37.6915 36.0632 37.1553C36.617 36.6192 36.9431 35.8905 36.974 35.1203C37.0049 34.3502 36.7382 33.5978 36.2292 33.019C35.7202 32.4402 35.008 32.0795 34.2402 32.0117C32.7744 28.5736 32 24.8709 32 21.1172V18.5C32.0029 18.2992 31.9654 18.0999 31.8899 17.9139C31.8143 17.7279 31.7022 17.5589 31.5601 17.417C31.418 17.2752 31.2489 17.1632 31.0628 17.0879C30.8767 17.0126 30.6773 16.9754 30.4766 16.9785Z" fill="#183B56"/>
</svg>
