<svg width="43" height="36" viewBox="0 0 43 36" fill="none" xmlns="http://www.w3.org/2000/svg">
<path d="M21 0C14.72 0 9.55197 4.85 9.04297 11H8.5C3.813 11 0 14.813 0 19.5C0 24.187 3.813 28 8.5 28H15.0254C15.0804 26.945 15.3028 25.936 15.6738 25H8.5C5.467 25 3 22.533 3 19.5C3 16.467 5.467 14 8.5 14H10.5C11.329 14 12 13.329 12 12.5V12C12 7.038 16.038 3 21 3C25.962 3 30 7.038 30 12V12.5C30 13.329 30.671 14 31.5 14H33.5C36.533 14 39 16.467 39 19.5C39 19.558 38.9922 19.6149 38.9902 19.6719C40.0222 20.0809 40.9632 20.6647 41.7812 21.3867C41.9202 20.7797 42 20.149 42 19.5C42 14.813 38.187 11 33.5 11H32.957C32.448 4.85 27.28 0 21 0ZM24.5 21C20.364 21 17 24.364 17 28.5C17 32.636 20.364 36 24.5 36H26.5C27.329 36 28 35.329 28 34.5C28 33.671 27.329 33 26.5 33H24.5C22.019 33 20 30.981 20 28.5C20 26.019 22.019 24 24.5 24H26.5C27.329 24 28 23.329 28 22.5C28 21.671 27.329 21 26.5 21H24.5ZM33.5 21C32.671 21 32 21.671 32 22.5C32 23.329 32.671 24 33.5 24H35.5C37.981 24 40 26.019 40 28.5C40 30.981 37.981 33 35.5 33H33.5C32.671 33 32 33.671 32 34.5C32 35.329 32.671 36 33.5 36H35.5C39.636 36 43 32.636 43 28.5C43 24.364 39.636 21 35.5 21H33.5ZM24.5 27C23.671 27 23 27.671 23 28.5C23 29.329 23.671 30 24.5 30H35.5C36.329 30 37 29.329 37 28.5C37 27.671 36.329 27 35.5 27H24.5Z" fill="#183B56"/>
</svg>
