<svg width="48" height="36" viewBox="0 0 48 36" fill="none" xmlns="http://www.w3.org/2000/svg">
<path d="M24 0C16.51 0 10.3301 5.71 9.58008 13H9C4.04 13 0 17.04 0 22C0 26.96 4.04 31 9 31H11V28H9C5.69 28 3 25.31 3 22C3 18.69 5.69 16 9 16H11C11.83 16 12.5 15.33 12.5 14.5C12.5 8.16 17.66 3 24 3C30.34 3 35.5 8.16 35.5 14.5C35.5 15.33 36.17 16 37 16H39C42.31 16 45 18.69 45 22C45 25.31 42.31 28 39 28H37V31H39C43.96 31 48 26.96 48 22C48 17.04 43.96 13 39 13H38.4199C37.6699 5.71 31.49 0 24 0ZM24 14C20.7041 14 18 16.7041 18 20V21H17C15.343 21 14 22.343 14 24V33C14 34.657 15.343 36 17 36H31C32.657 36 34 34.657 34 33V24C34 22.343 32.657 21 31 21H30V20C30 16.7041 27.2959 14 24 14ZM24 17C25.6741 17 27 18.3259 27 20V21H21V20C21 18.3259 22.3259 17 24 17ZM24 27C25.105 27 26 27.895 26 29C26 30.105 25.105 31 24 31C22.895 31 22 30.105 22 29C22 27.895 22.895 27 24 27Z" fill="#183B56"/>
</svg>
