<svg width="48" height="48" viewBox="0 0 48 48" fill="none" xmlns="http://www.w3.org/2000/svg">
<path d="M18 4C12.486 4 8 8.486 8 14C8 19.514 12.486 24 18 24C20.252 24 22.326 23.2415 24 21.9805V17.5879C22.775 19.6279 20.548 21 18 21C14.141 21 11 17.859 11 14C11 10.141 14.141 7 18 7C20.548 7 22.775 8.37211 24 10.4121V8.5C24 7.732 24.1407 6.9975 24.3867 6.3125C22.6527 4.8695 20.427 4 18 4ZM30.5 4C28.0325 4 26 6.0325 26 8.5V22.5C26.0001 22.7715 26.0738 23.0378 26.2133 23.2707C26.3528 23.5036 26.5529 23.6942 26.7923 23.8223C27.0317 23.9504 27.3013 24.0112 27.5724 23.9981C27.8436 23.985 28.1061 23.8986 28.332 23.748L33.9551 20H41.5C43.9675 20 46 17.9675 46 15.5V8.5C46 6.0325 43.9675 4 41.5 4H30.5ZM30.5 7H41.5C42.3465 7 43 7.6535 43 8.5V15.5C43 16.3465 42.3465 17 41.5 17H33.5C33.2039 17 32.9144 17.0877 32.668 17.252L29 19.6973V8.5C29 7.6535 29.6535 7 30.5 7ZM6.5 28C4.019 28 2 30.019 2 32.5V34C2 39.607 9.028 44 18 44C26.972 44 34 39.607 34 34V32.5C34 30.019 31.981 28 29.5 28H6.5ZM6.5 31H29.5C30.327 31 31 31.673 31 32.5V34C31 37.794 25.047 41 18 41C10.953 41 5 37.794 5 34V32.5C5 31.673 5.673 31 6.5 31Z" fill="#183B56"/>
</svg>
