<svg width="42" height="38" viewBox="0 0 42 38" fill="none" xmlns="http://www.w3.org/2000/svg">
<path d="M21 0C13.4968 0 7.39387 5.95928 7.0625 13.3828C3.06014 14.2934 0 17.7324 0 22C0 26.9527 4.04728 31 9 31H19.5V35H4.5C4.30123 34.9972 4.10389 35.0339 3.91944 35.108C3.73498 35.1822 3.5671 35.2922 3.42555 35.4318C3.28399 35.5713 3.17159 35.7376 3.09487 35.921C3.01815 36.1044 2.97864 36.3012 2.97864 36.5C2.97864 36.6988 3.01815 36.8956 3.09487 37.079C3.17159 37.2624 3.28399 37.4287 3.42555 37.5682C3.5671 37.7078 3.73498 37.8178 3.91944 37.892C4.10389 37.9661 4.30123 38.0028 4.5 38H37.5C37.6988 38.0028 37.8961 37.9661 38.0806 37.892C38.265 37.8178 38.4329 37.7078 38.5745 37.5682C38.716 37.4287 38.8284 37.2624 38.9051 37.079C38.9819 36.8956 39.0214 36.6988 39.0214 36.5C39.0214 36.3012 38.9819 36.1044 38.9051 35.921C38.8284 35.7376 38.716 35.5713 38.5745 35.4318C38.4329 35.2922 38.265 35.1822 38.0806 35.108C37.8961 35.0339 37.6988 34.9972 37.5 35H22.5V31H33C37.9527 31 42 26.9527 42 22C42 17.7324 38.9399 14.2934 34.9375 13.3828C34.6061 5.95928 28.5032 0 21 0ZM21 3C27.0935 3 32 7.90655 32 14C32 14.0697 31.9844 14.2208 31.9746 14.4648C31.9591 14.8566 32.0976 15.2389 32.3604 15.5298C32.6232 15.8208 32.9895 15.9972 33.3809 16.0215C36.5261 16.2181 39 18.798 39 22C39 25.3313 36.3313 28 33 28H9C5.66872 28 3 25.3313 3 22C3 18.798 5.4739 16.2181 8.61914 16.0215C9.01047 15.9972 9.37676 15.8208 9.63959 15.5298C9.90242 15.2389 10.0409 14.8566 10.0254 14.4648C10.0156 14.2208 10 14.0697 10 14C10 7.90655 14.9065 3 21 3Z" fill="#183B56"/>
</svg>
