<svg width="37" height="40" viewBox="0 0 37 40" fill="none" xmlns="http://www.w3.org/2000/svg">
<path d="M5.5 0C2.467 0 0 2.467 0 5.5V34.5C0 37.533 2.467 40 5.5 40H26.5C29.533 40 32 37.533 32 34.5V25H29V27.6133C28.2477 27.2247 27.3992 27 26.5 27H5.5C4.6008 27 3.75228 27.2247 3 27.6133V5.5C3 4.122 4.122 3 5.5 3H26.5C27.806 3 28.8695 4.01106 28.9785 5.28906C30.2455 6.07906 31.294 7.18681 32 8.50781V5.5C32 2.467 29.533 0 26.5 0H5.5ZM24.5 6C21.105 6 18.3719 8.67094 18.1016 12H17.5C14.4802 12 12 14.4802 12 17.5C12 20.5198 14.4802 23 17.5 23H31.5C34.5198 23 37 20.5198 37 17.5C37 14.4802 34.5198 12 31.5 12H30.8984C30.6281 8.67094 27.895 6 24.5 6ZM24.5 9C26.4501 9 28 10.5499 28 12.5V13.5C28 13.8978 28.1581 14.2793 28.4394 14.5606C28.7207 14.8419 29.1022 15 29.5 15H31.5C32.8982 15 34 16.1018 34 17.5C34 18.8982 32.8982 20 31.5 20H17.5C16.1018 20 15 18.8982 15 17.5C15 16.1018 16.1018 15 17.5 15H19.5C19.8978 15 20.2793 14.8419 20.5606 14.5606C20.8419 14.2793 21 13.8978 21 13.5V12.5C21 10.5499 22.5499 9 24.5 9ZM5.5 30H26.5C27.8982 30 29 31.1018 29 32.5V34.5C29 35.878 27.878 37 26.5 37H5.5C4.122 37 3 35.878 3 34.5V32.5C3 31.1018 4.10177 30 5.5 30ZM6.5 32C6.10218 32 5.72064 32.158 5.43934 32.4393C5.15804 32.7206 5 33.1022 5 33.5C5 33.8978 5.15804 34.2794 5.43934 34.5607C5.72064 34.842 6.10218 35 6.5 35C6.89782 35 7.27936 34.842 7.56066 34.5607C7.84196 34.2794 8 33.8978 8 33.5C8 33.1022 7.84196 32.7206 7.56066 32.4393C7.27936 32.158 6.89782 32 6.5 32Z" fill="#183B56"/>
</svg>
