<svg width="15" height="15" viewBox="0 0 15 15" fill="none" xmlns="http://www.w3.org/2000/svg">
    <path d="M14.3224 14.2932C13.9811 14.6017 13.5182 14.775 13.0356 14.775C12.5529 14.775 12.09 14.6017 11.7487 14.2932L7.72818 10.1387L3.70764 14.2918C3.53915 14.4466 3.33842 14.5698 3.11703 14.6541C2.89564 14.7384 2.65797 14.7823 2.41773 14.7832C2.17749 14.7841 1.93943 14.742 1.71728 14.6592C1.49514 14.5765 1.29331 14.4549 1.12343 14.3013C0.953552 14.1477 0.818989 13.9653 0.727504 13.7644C0.636018 13.5636 0.589421 13.3484 0.590399 13.1312C0.591377 12.914 0.639912 12.6991 0.733203 12.499C0.826494 12.2988 0.962697 12.1173 1.13395 11.965L5.31677 7.64603L1.13244 3.32429C0.96118 3.17197 0.824978 2.9905 0.731687 2.79035C0.638395 2.5902 0.589861 2.37533 0.588882 2.15813C0.587904 1.94094 0.634502 1.72572 0.725987 1.52489C0.817473 1.32406 0.952035 1.14159 1.12191 0.98801C1.29179 0.834429 1.49362 0.712777 1.71577 0.630068C1.93791 0.54736 2.17597 0.505233 2.41621 0.506117C2.65645 0.507002 2.89413 0.55088 3.11552 0.635221C3.33691 0.719562 3.53764 0.842697 3.70613 0.997523L7.72818 5.15335L11.7487 0.997523C11.9172 0.842697 12.1179 0.719562 12.3393 0.635221C12.5607 0.55088 12.7984 0.507002 13.0386 0.506117C13.2789 0.505233 13.5169 0.54736 13.7391 0.630068C13.9612 0.712777 14.1631 0.834429 14.3329 0.98801C14.5028 1.14159 14.6374 1.32406 14.7289 1.52489C14.8203 1.72572 14.8669 1.94094 14.866 2.15813C14.865 2.37533 14.8164 2.5902 14.7232 2.79035C14.6299 2.9905 14.4937 3.17197 14.3224 3.32429L10.1396 7.64603L14.3224 11.965C14.4916 12.1178 14.6259 12.2993 14.7174 12.499C14.809 12.6988 14.8562 12.9129 14.8562 13.1291C14.8562 13.3453 14.809 13.5594 14.7174 13.7592C14.6259 13.9589 14.4916 14.1404 14.3224 14.2932Z" fill="#E2E5ED"/>
</svg>
