<svg width="172" height="52" viewBox="0 0 172 52" fill="none" xmlns="http://www.w3.org/2000/svg">
<g clip-path="url(#clip0_74_3938)">
<path fill-rule="evenodd" clip-rule="evenodd" d="M49.6252 20.3725C49.3989 19.9922 48.9079 19.8622 48.5276 20.0884C48.1473 20.3147 48.0222 20.8057 48.2484 21.1908C48.4747 21.5711 48.9705 21.6963 49.346 21.47C49.7311 21.2438 49.8515 20.7528 49.6252 20.3725ZM51.8492 18.8464C51.623 18.4661 51.1271 18.341 50.7468 18.5672C50.3665 18.7935 50.2414 19.2845 50.4676 19.6696C50.6939 20.0499 51.1849 20.1751 51.5652 19.9488C51.9503 19.7178 52.0755 19.2267 51.8492 18.8464ZM43.8726 12.3573C43.6463 11.977 43.1553 11.847 42.775 12.0733C42.3947 12.2995 42.2695 12.7953 42.4958 13.1756C42.722 13.5559 43.2131 13.6811 43.5982 13.4549C43.9785 13.2286 44.0988 12.7376 43.8726 12.3573ZM50.2366 23.2367C50.3473 22.8083 50.097 22.3702 49.6685 22.2547C49.2401 22.144 48.802 22.3991 48.6865 22.8276C48.5758 23.256 48.8309 23.6941 49.2593 23.8096C49.6878 23.9203 50.1259 23.6652 50.2366 23.2367ZM46.9775 34.5158C47.3627 34.2943 47.5023 33.8129 47.2808 33.423C47.0642 33.0379 46.5732 32.9031 46.1881 33.1197C45.8029 33.3364 45.6682 33.8274 45.8848 34.2125C46.1062 34.5976 46.5924 34.7324 46.9775 34.5158ZM36.7191 40.124C37.1475 40.2395 37.5904 39.994 37.7059 39.5656C37.8215 39.1419 37.5711 38.6991 37.1427 38.5787C36.7143 38.4632 36.2762 38.7135 36.1558 39.1419C36.0403 39.5704 36.2954 40.0085 36.7191 40.124ZM25.6133 36.9131C25.8348 37.2982 26.321 37.433 26.7061 37.2116C27.0912 36.9901 27.2212 36.4991 27.0046 36.114C26.7831 35.7289 26.2921 35.5989 25.907 35.8155C25.5219 36.0418 25.3919 36.528 25.6133 36.9131ZM19.9859 27.3575C20.2073 27.7426 20.6935 27.8774 21.0786 27.6559C21.4637 27.4345 21.5985 26.9435 21.3723 26.5584C21.1508 26.1732 20.6598 26.0433 20.2795 26.2599C19.8944 26.4813 19.7644 26.9724 19.9859 27.3575ZM54.0444 17.8788C53.8181 17.4985 53.3223 17.3734 52.9468 17.5948C52.5617 17.8211 52.4413 18.3121 52.6676 18.6972C52.8939 19.0775 53.3801 19.2075 53.7652 18.9764C54.1455 18.755 54.2706 18.2591 54.0444 17.8788ZM55.1468 23.2704C55.0842 22.8324 54.675 22.5291 54.2418 22.5917C53.7989 22.6591 53.5004 23.0634 53.563 23.5015C53.6256 23.9396 54.0299 24.2429 54.4728 24.1803C54.9061 24.1129 55.2142 23.7085 55.1468 23.2704ZM54.9301 20.7768C54.8676 20.3388 54.4584 20.0355 54.0251 20.0981C53.5822 20.1606 53.2838 20.5698 53.3464 21.0079C53.4089 21.446 53.8133 21.7492 54.2562 21.6867C54.6894 21.6241 54.9927 21.2197 54.9301 20.7768ZM52.8361 23.5448C52.7735 23.1068 52.3643 22.8035 51.9263 22.8661C51.4882 22.9287 51.1849 23.3378 51.2475 23.7759C51.3101 24.214 51.7193 24.5173 52.1573 24.4547C52.6002 24.3921 52.9035 23.9829 52.8361 23.5448ZM52.5521 21.3641C52.4895 20.9261 52.0803 20.6228 51.6422 20.6854C51.2042 20.7479 50.9009 21.1571 50.9635 21.5952C51.0261 22.0333 51.4352 22.3365 51.8733 22.274C52.3114 22.2114 52.6146 21.8022 52.5521 21.3641ZM47.7622 8.9057C47.406 8.64093 46.9005 8.71314 46.6406 9.06456C46.371 9.42079 46.448 9.92143 46.7994 10.1862C47.1557 10.451 47.6563 10.3788 47.9211 10.0273C48.1907 9.67111 48.1184 9.17046 47.7622 8.9057ZM45.3312 6.73462C44.975 6.46985 44.4743 6.54206 44.2095 6.89348C43.94 7.25452 44.017 7.75035 44.3684 8.01993C44.7198 8.2847 45.2253 8.21249 45.49 7.86107C45.7596 7.50484 45.6874 7.0042 45.3312 6.73462ZM46.6261 11.4523C46.2699 11.1875 45.7692 11.2597 45.4997 11.6111C45.2349 11.9674 45.3071 12.468 45.6585 12.7376C46.0148 13.0023 46.5154 12.9301 46.7802 12.5787C47.0498 12.2225 46.9775 11.717 46.6261 11.4523ZM43.7907 9.56039C43.4345 9.29562 42.9338 9.36783 42.6643 9.71925C42.3995 10.0707 42.4717 10.5761 42.8231 10.8409C43.1794 11.1057 43.68 11.0335 43.9448 10.682C44.2192 10.3306 44.147 9.82516 43.7907 9.56039ZM14.9698 25.48C15.0275 25.9181 15.4271 26.231 15.8652 26.1732C16.3032 26.1155 16.6161 25.7111 16.5584 25.273C16.5006 24.835 16.101 24.5221 15.6582 24.5798C15.2249 24.6376 14.912 25.0372 14.9698 25.48ZM15.2442 28.8594C15.3019 29.3023 15.7063 29.6104 16.1395 29.5526C16.5824 29.4948 16.8905 29.0905 16.8328 28.6524C16.775 28.2143 16.3754 27.9014 15.9325 27.9592C15.4993 28.017 15.1864 28.4213 15.2442 28.8594ZM17.4201 26.0048C17.4778 26.4428 17.8822 26.7557 18.3203 26.698C18.7583 26.6402 19.0712 26.2358 19.0135 25.7978C18.9557 25.3597 18.5513 25.0468 18.1133 25.1045C17.6704 25.1623 17.3623 25.5667 17.4201 26.0048ZM17.6126 28.301C17.6704 28.7391 18.0747 29.052 18.5128 28.9942C18.9509 28.9364 19.2638 28.5321 19.206 28.094C19.1483 27.6559 18.7439 27.343 18.3058 27.4008C17.8629 27.4586 17.5548 27.8629 17.6126 28.301ZM21.7959 40.2443C22.1473 40.5139 22.6528 40.4513 22.9176 40.1047C23.1919 39.7485 23.1246 39.2479 22.7731 38.9783C22.4217 38.7087 21.9211 38.7665 21.6467 39.1227C21.3819 39.4645 21.4445 39.9699 21.7959 40.2443ZM23.7841 41.804C24.1355 42.0736 24.6409 42.011 24.9057 41.6644C25.1801 41.313 25.1127 40.8124 24.7613 40.538C24.4099 40.2684 23.9092 40.3262 23.6348 40.6824C23.3701 41.029 23.4326 41.5345 23.7841 41.804ZM23.5193 38.1647C23.8707 38.4343 24.3762 38.3717 24.6458 38.0203C24.9153 37.6689 24.8528 37.1634 24.5013 36.8938C24.1499 36.6243 23.6493 36.6868 23.3749 37.0383C23.1053 37.3897 23.1679 37.8903 23.5193 38.1647ZM25.1223 39.7629C24.7709 39.4934 24.7083 38.9879 24.9779 38.6365C25.2475 38.2851 25.753 38.2225 26.1044 38.4921C26.4558 38.7616 26.5184 39.2671 26.2488 39.6185C25.9792 39.9699 25.4737 40.0373 25.1223 39.7629ZM36.4928 44.962C36.9309 44.909 37.2486 44.5047 37.1908 44.0714C37.1379 43.6285 36.7335 43.3204 36.2954 43.3734C35.8574 43.4263 35.5445 43.8211 35.5974 44.2688C35.6504 44.702 36.0499 45.0149 36.4928 44.962ZM38.8179 44.6731C39.2608 44.6202 39.5689 44.2158 39.516 43.7826C39.463 43.3397 39.0586 43.0316 38.6206 43.0845C38.1825 43.1375 37.8648 43.5371 37.9226 43.9799C37.9755 44.4132 38.3799 44.7261 38.8179 44.6731ZM36.3243 42.7909C36.7624 42.7379 37.0753 42.3336 37.0224 41.8955C36.9694 41.4574 36.565 41.1445 36.127 41.1975C35.6889 41.2553 35.376 41.6548 35.4289 42.0929C35.4867 42.5358 35.8863 42.8487 36.3243 42.7909ZM38.5484 42.4684C38.9864 42.4154 39.2993 42.011 39.2464 41.573C39.1934 41.1301 38.7891 40.822 38.351 40.875C37.9129 40.9279 37.6 41.3323 37.653 41.7703C37.7107 42.2084 38.1103 42.5213 38.5484 42.4684ZM50.3088 38.468C50.5784 38.1166 50.5062 37.6111 50.1547 37.3464C49.7985 37.0768 49.2979 37.149 49.0283 37.5052C48.7587 37.8566 48.8261 38.3573 49.1871 38.6317C49.5337 38.8916 50.0392 38.8194 50.3088 38.468ZM52.0322 36.1573C52.3017 35.8059 52.2295 35.3004 51.8781 35.0357C51.5219 34.7661 51.0212 34.8383 50.7517 35.1945C50.4821 35.5459 50.5495 36.0514 50.9057 36.3162C51.2619 36.5809 51.7674 36.5087 52.0322 36.1573ZM48.7106 36.4798C48.9801 36.1284 48.9079 35.623 48.5565 35.3582C48.2051 35.0934 47.6996 35.1608 47.4349 35.5171C47.1653 35.8685 47.2375 36.3739 47.5889 36.6387C47.9403 36.9035 48.4458 36.8361 48.7106 36.4798ZM50.044 34.6891C49.7792 35.0405 49.2738 35.1127 48.9224 34.8431C48.571 34.5783 48.4987 34.0729 48.7635 33.7215C49.0331 33.3701 49.5337 33.2978 49.89 33.5626C50.2414 33.8322 50.3088 34.3377 50.044 34.6891ZM53.64 33.4615C53.7507 33.0331 53.4956 32.595 53.072 32.4795C52.6387 32.3688 52.2055 32.6239 52.0899 33.0523C51.9792 33.4808 52.2295 33.9188 52.6628 34.0344C53.0864 34.1451 53.5245 33.89 53.64 33.4615ZM48.0559 24.7146C48.1666 24.2862 47.9114 23.8481 47.483 23.7326C47.0546 23.617 46.6213 23.877 46.5058 24.3054C46.3951 24.7339 46.6454 25.1719 47.0738 25.2827C47.5023 25.3982 47.9403 25.1431 48.0559 24.7146ZM47.9211 27.0205C48.0366 26.5921 47.7767 26.1492 47.3482 26.0385C46.9198 25.9277 46.4865 26.1829 46.371 26.6113C46.2603 27.0397 46.5106 27.4778 46.939 27.5885C47.3675 27.7089 47.8104 27.4537 47.9211 27.0205ZM47.3819 29.3167C47.4926 28.8883 47.2375 28.4502 46.8091 28.3347C46.3806 28.224 45.9426 28.4791 45.8318 28.9075C45.7211 29.336 45.9714 29.7741 46.3999 29.8848C46.8283 30.0003 47.2712 29.7452 47.3819 29.3167ZM50.3473 25.403C50.458 24.9746 50.2077 24.5365 49.7793 24.421C49.3508 24.3103 48.9127 24.5654 48.7972 24.9938C48.6865 25.4223 48.9416 25.8651 49.3701 25.9759C49.7985 26.0866 50.2366 25.8315 50.3473 25.403ZM50.1692 27.7041C50.2799 27.2756 50.0296 26.8376 49.6011 26.7268C49.1727 26.6161 48.7346 26.8713 48.6191 27.2997C48.5084 27.7281 48.7635 28.1662 49.192 28.2769C49.6252 28.3925 50.0585 28.1373 50.1692 27.7041ZM49.5771 29.9762C49.6878 29.5478 49.4375 29.1097 49.009 28.9942C48.5806 28.8835 48.1425 29.1386 48.0318 29.5671C47.9211 29.9955 48.1762 30.4336 48.6047 30.5443C49.0283 30.6598 49.4663 30.4047 49.5771 29.9762ZM52.8602 26.0721C52.9709 25.6437 52.7157 25.2056 52.2873 25.0901C51.8589 24.9794 51.4208 25.2345 51.3101 25.663C51.1994 26.0914 51.4545 26.5295 51.8829 26.645C52.3066 26.7557 52.7494 26.5006 52.8602 26.0721ZM52.6002 28.3202C52.7109 27.8918 52.4558 27.4537 52.0274 27.3382C51.5989 27.2275 51.1608 27.4826 51.0453 27.9111C50.9346 28.3395 51.1897 28.7776 51.6182 28.8931C52.0466 29.0038 52.4895 28.7439 52.6002 28.3202ZM52.0418 30.4287C52.1525 30.0003 51.8974 29.5622 51.4689 29.4467C51.0405 29.336 50.6024 29.5911 50.4869 30.0196C50.3762 30.448 50.6313 30.8861 51.0597 31.0016C51.4882 31.1123 51.9263 30.8524 52.0418 30.4287ZM55.3393 26.154C55.4501 25.7255 55.1949 25.2875 54.7713 25.1768C54.338 25.0612 53.9048 25.3212 53.7892 25.7496C53.6785 26.1781 53.9288 26.6161 54.3621 26.7317C54.7857 26.8376 55.2286 26.5824 55.3393 26.154ZM55.0409 28.6332C55.1516 28.2047 54.8965 27.7666 54.4728 27.6511C54.0396 27.5356 53.6063 27.7955 53.4908 28.224C53.3801 28.6524 53.6304 29.0905 54.0636 29.2012C54.4873 29.3167 54.9253 29.0616 55.0409 28.6332ZM54.4054 31.1845C54.5161 30.7561 54.261 30.318 53.8374 30.2025C53.4041 30.087 52.9709 30.3469 52.8553 30.7754C52.7446 31.2038 52.9949 31.6419 53.4282 31.7574C53.8518 31.8681 54.2899 31.613 54.4054 31.1845ZM46.2651 31.5696C46.3758 31.1412 46.1207 30.7031 45.6922 30.5876C45.2638 30.4769 44.8305 30.732 44.715 31.1605C44.6043 31.5889 44.8546 32.027 45.283 32.1377C45.7115 32.2532 46.1495 31.9981 46.2651 31.5696ZM48.6383 32.0029C48.7491 31.5745 48.4987 31.1364 48.0703 31.0257C47.6419 30.915 47.2038 31.1701 47.0931 31.5985C46.9824 32.027 47.2375 32.465 47.6659 32.5758C48.0896 32.6913 48.5276 32.4313 48.6383 32.0029ZM51.2138 32.5758C51.3245 32.1473 51.0694 31.7044 50.6409 31.5937C50.2125 31.483 49.7744 31.7381 49.6589 32.1666C49.5482 32.595 49.8033 33.0331 50.2318 33.1486C50.665 33.2593 51.1031 33.0042 51.2138 32.5758ZM41.9614 44.1147C42.3465 43.8981 42.4813 43.4071 42.2695 43.0268C42.0481 42.6369 41.5619 42.5069 41.1768 42.7235C40.7917 42.9401 40.6521 43.4263 40.8735 43.8163C41.0853 44.1966 41.5763 44.3314 41.9614 44.1147ZM44.4117 34.0344C44.7968 33.8177 44.9364 33.3267 44.715 32.9368C44.4984 32.5517 44.0074 32.4169 43.6222 32.6383C43.2371 32.855 43.0975 33.3412 43.3141 33.7263C43.5356 34.1114 44.0266 34.251 44.4117 34.0344ZM42.5632 35.6422C42.9483 35.4256 43.0831 34.9346 42.8665 34.5495C42.6498 34.1643 42.1588 34.0296 41.7737 34.251C41.3886 34.4676 41.249 34.9538 41.4656 35.3438C41.687 35.7241 42.1781 35.8637 42.5632 35.6422ZM40.5221 36.7976C40.9072 36.5809 41.042 36.0899 40.8253 35.7048C40.6087 35.3197 40.1177 35.1849 39.7326 35.4063C39.3475 35.623 39.2079 36.1092 39.4293 36.4943C39.6459 36.8746 40.137 37.0142 40.5221 36.7976ZM45.4612 36.2006C45.076 36.4173 44.5898 36.2873 44.3684 35.8974C44.1518 35.5122 44.2866 35.0212 44.6717 34.8046C45.0568 34.588 45.5478 34.7228 45.7644 35.1079C45.9907 35.493 45.8511 35.9792 45.4612 36.2006ZM43.6896 37.64C44.0747 37.4234 44.2144 36.9372 43.9977 36.5472C43.7811 36.1621 43.2901 36.0273 42.905 36.244C42.5198 36.4606 42.3851 36.9516 42.6017 37.3367C42.8183 37.7267 43.3045 37.8566 43.6896 37.64ZM41.6437 38.8194C42.0288 38.6028 42.1684 38.1166 41.9518 37.7267C41.7352 37.3415 41.2442 37.2067 40.859 37.4234C40.4739 37.64 40.3391 38.131 40.5558 38.5161C40.7724 38.9061 41.2586 39.036 41.6437 38.8194ZM46.785 38.3958C46.3999 38.6124 45.9089 38.4776 45.6922 38.0925C45.4756 37.7074 45.6104 37.2164 45.9955 36.9998C46.3806 36.7831 46.8716 36.9179 47.0931 37.303C47.3049 37.6881 47.1701 38.1792 46.785 38.3958ZM44.9413 39.8352C45.3264 39.6185 45.466 39.1275 45.2445 38.7424C45.0279 38.3573 44.5369 38.2225 44.1518 38.4391C43.7667 38.6557 43.6319 39.1468 43.8485 39.5319C44.0651 39.917 44.5561 40.0518 44.9413 39.8352ZM42.9146 40.9905C43.2997 40.7739 43.4345 40.2828 43.2179 39.8977C43.0012 39.5126 42.5102 39.3778 42.1251 39.5945C41.74 39.8111 41.6052 40.3021 41.8218 40.6872C42.0385 41.0723 42.5295 41.2119 42.9146 40.9905ZM48.0847 40.6583C48.4699 40.4417 48.6095 39.9507 48.3928 39.5704C48.1714 39.1805 47.6852 39.0505 47.3001 39.2671C46.915 39.4837 46.7754 39.9699 46.9968 40.3599C47.2086 40.7354 47.6996 40.875 48.0847 40.6583ZM46.1544 42.0014C46.5395 41.7848 46.6791 41.2938 46.4625 40.9135C46.241 40.5235 45.7548 40.3936 45.3697 40.6102C44.9846 40.8268 44.845 41.313 45.0664 41.703C45.2782 42.0784 45.7692 42.218 46.1544 42.0014ZM44.1133 43.1519C44.4984 42.9353 44.638 42.4395 44.4214 42.0592C44.1999 41.6693 43.7137 41.5393 43.3286 41.7559C42.9435 41.9725 42.8039 42.4587 43.0253 42.8487C43.2419 43.2338 43.7281 43.3686 44.1133 43.1519ZM38.2788 37.5919C38.6639 37.3752 38.8035 36.8842 38.5821 36.4991C38.3654 36.114 37.8744 35.9792 37.4893 36.2006C37.1042 36.4173 36.9646 36.9035 37.1812 37.2886C37.4075 37.6737 37.8937 37.8085 38.2788 37.5919ZM39.67 39.6137C40.0551 39.3971 40.1947 38.9109 39.9781 38.521C39.7615 38.1358 39.2705 38.001 38.8853 38.2177C38.5002 38.4343 38.3654 38.9253 38.5821 39.3104C38.7939 39.7004 39.2849 39.8303 39.67 39.6137ZM40.8494 41.8233C41.2345 41.6067 41.3741 41.1157 41.1527 40.7305C40.9361 40.3454 40.4451 40.2106 40.0599 40.4273C39.6748 40.6439 39.54 41.1349 39.7567 41.52C39.9733 41.9051 40.4643 42.0447 40.8494 41.8233ZM26.5232 43.3204C26.9516 43.436 27.3945 43.1856 27.51 42.762C27.6304 42.3288 27.3752 41.8907 26.9468 41.7752C26.5184 41.6596 26.0803 41.9051 25.96 42.3384C25.8444 42.762 26.0947 43.2049 26.5232 43.3204ZM35.2316 37.9577C35.66 38.0733 36.1029 37.8229 36.2184 37.3945C36.334 36.9661 36.0836 36.528 35.6552 36.4125C35.2268 36.2921 34.7887 36.5424 34.6683 36.9709C34.5528 37.3993 34.8031 37.8422 35.2316 37.9577ZM32.9016 37.7892C33.3301 37.9096 33.773 37.6544 33.8885 37.226C34.004 36.7976 33.7537 36.3595 33.3253 36.244C32.8968 36.1284 32.4588 36.3739 32.3384 36.8024C32.2229 37.226 32.478 37.6689 32.9016 37.7892ZM30.7113 37.2453C31.1397 37.3608 31.5826 37.1105 31.6982 36.682C31.8137 36.2536 31.5634 35.8155 31.1349 35.7C30.7065 35.5796 30.2684 35.83 30.1481 36.2584C30.0325 36.6868 30.2829 37.1297 30.7113 37.2453ZM34.5287 40.2491C34.9572 40.3647 35.4001 40.1192 35.5156 39.6907C35.6311 39.2671 35.3808 38.8194 34.9524 38.7039C34.5239 38.5883 34.081 38.8387 33.9655 39.2671C33.85 39.6955 34.1003 40.1336 34.5287 40.2491ZM32.324 40.0181C32.7524 40.1336 33.1953 39.8881 33.3108 39.4597C33.4263 39.0312 33.176 38.5883 32.7476 38.4728C32.3191 38.3573 31.8811 38.6076 31.7607 39.036C31.6452 39.4645 31.9003 39.8977 32.324 40.0181ZM30.0614 39.4067C30.4899 39.5222 30.9279 39.2767 31.0483 38.8483C31.1638 38.4199 30.9135 37.977 30.485 37.8614C30.0566 37.7459 29.6137 37.9962 29.4982 38.4247C29.3778 38.8531 29.633 39.2912 30.0614 39.4067ZM33.8837 42.7476C34.3121 42.8631 34.755 42.6128 34.8705 42.1843C34.9861 41.7559 34.7357 41.313 34.3073 41.1975C33.8789 41.082 33.436 41.3323 33.3204 41.7607C33.2049 42.1892 33.4552 42.632 33.8837 42.7476ZM31.6789 42.478C32.1073 42.5935 32.5502 42.3432 32.6658 41.9148C32.7813 41.4863 32.531 41.0483 32.1025 40.9279C31.6741 40.8124 31.236 41.0627 31.1157 41.4911C31.0001 41.9196 31.2553 42.3625 31.6789 42.478ZM29.4741 41.8955C29.9026 42.0159 30.3454 41.7607 30.461 41.3323C30.5765 40.9038 30.3262 40.4658 29.8977 40.3454C29.4693 40.2299 29.0264 40.4802 28.9109 40.9087C28.7954 41.3371 29.0457 41.78 29.4741 41.8955ZM33.3012 45.1786C33.7296 45.2941 34.1725 45.0438 34.288 44.6202C34.4084 44.1918 34.1533 43.7537 33.7248 43.6333C33.2964 43.5178 32.8583 43.7633 32.738 44.1966C32.6272 44.6202 32.8776 45.0631 33.3012 45.1786ZM30.952 44.8753C31.3804 44.9909 31.8233 44.7405 31.9388 44.3169C32.0592 43.8837 31.8041 43.4456 31.3756 43.3301C30.9472 43.2145 30.5091 43.46 30.3888 43.8933C30.2732 44.3121 30.5236 44.755 30.952 44.8753ZM28.7087 44.2206C29.1371 44.3362 29.58 44.0858 29.6956 43.6622C29.8159 43.229 29.5608 42.7909 29.1323 42.6754C28.7039 42.5598 28.2658 42.8053 28.1455 43.2386C28.0299 43.6622 28.2851 44.1051 28.7087 44.2206ZM28.5932 36.2006C29.0216 36.3162 29.4645 36.0658 29.58 35.6374C29.6956 35.209 29.4452 34.7709 29.0168 34.6554C28.5884 34.5398 28.1503 34.7853 28.0299 35.2138C27.9144 35.6422 28.1647 36.0851 28.5932 36.2006ZM27.9866 38.5161C28.4151 38.6317 28.8579 38.3862 28.9735 37.9577C29.089 37.5341 28.8387 37.0912 28.4102 36.9709C27.9818 36.8553 27.5437 37.1057 27.4234 37.5341C27.303 37.9625 27.5582 38.4006 27.9866 38.5161ZM27.2886 41.0049C27.717 41.1205 28.1599 40.8701 28.2755 40.4417C28.391 40.0133 28.1407 39.5704 27.7122 39.4548C27.2838 39.3393 26.8409 39.5896 26.7254 40.0181C26.6098 40.4465 26.8602 40.8894 27.2886 41.0049ZM15.9951 31.6515C16.2166 32.0366 16.7076 32.1666 17.0879 31.9499C17.4778 31.7285 17.603 31.2375 17.3815 30.8524C17.1601 30.4673 16.6739 30.3325 16.284 30.5539C15.9085 30.7754 15.7785 31.2664 15.9951 31.6515ZM26.1044 34.3569C26.3258 34.742 26.8168 34.872 27.2019 34.6506C27.5871 34.4291 27.717 33.9429 27.4956 33.5578C27.2742 33.1727 26.7879 33.0379 26.4028 33.2593C26.0177 33.4808 25.8877 33.9718 26.1044 34.3569ZM24.4821 32.4891C24.7035 32.8742 25.1945 33.0042 25.5797 32.7876C25.9648 32.5661 26.0899 32.0799 25.8685 31.6948C25.647 31.3097 25.1608 31.1749 24.7757 31.3963C24.3954 31.613 24.2606 32.104 24.4821 32.4891ZM23.3075 30.4817C23.5289 30.8668 24.0199 31.0016 24.4051 30.7802C24.7902 30.5587 24.9201 30.0725 24.6987 29.6874C24.4773 29.3023 23.9911 29.1675 23.6059 29.3889C23.2208 29.6056 23.0909 30.0966 23.3075 30.4817ZM23.9525 35.4449C23.7311 35.0597 23.8611 34.5735 24.2462 34.3521C24.6313 34.1307 25.1223 34.2654 25.3438 34.6457C25.5652 35.0309 25.4304 35.5219 25.0501 35.7433C24.6602 35.9648 24.174 35.83 23.9525 35.4449ZM22.4506 33.5867C22.672 33.9718 23.1582 34.1066 23.5434 33.8851C23.9285 33.6637 24.0585 33.1727 23.837 32.7876C23.6156 32.4025 23.1246 32.2725 22.7394 32.4891C22.3543 32.7154 22.2292 33.2064 22.4506 33.5867ZM21.3241 31.5985C21.5456 31.9836 22.0318 32.1184 22.4169 31.897C22.7972 31.6756 22.932 31.1845 22.7106 30.7994C22.4891 30.4143 21.9981 30.2843 21.613 30.501C21.2327 30.7272 21.1075 31.2134 21.3241 31.5985ZM21.7141 36.7783C21.4926 36.3932 21.6274 35.9022 22.0077 35.6807C22.3928 35.4593 22.8839 35.5941 23.1053 35.9792C23.3267 36.3643 23.1919 36.8553 22.8068 37.0768C22.4217 37.2982 21.9307 37.1634 21.7141 36.7783ZM20.241 34.819C20.4625 35.2042 20.9535 35.3341 21.3386 35.1175C21.7237 34.8961 21.8585 34.405 21.6322 34.0199C21.4108 33.6348 20.9198 33.5048 20.5347 33.7215C20.1495 33.9429 20.0196 34.4339 20.241 34.819ZM19.1483 32.8983C19.3697 33.2834 19.8607 33.4182 20.2458 33.1968C20.6309 32.9753 20.7609 32.4843 20.5395 32.0992C20.318 31.7141 19.827 31.5841 19.4419 31.8007C19.0616 32.0222 18.9268 32.5132 19.1483 32.8983ZM19.6008 38.0347C19.8222 38.4199 20.3132 38.5498 20.6935 38.3332C21.0834 38.1118 21.2086 37.6207 20.9872 37.2356C20.7657 36.8505 20.2795 36.7157 19.8896 36.9372C19.5141 37.1586 19.3793 37.6496 19.6008 38.0347ZM18.1518 36.0466C18.3732 36.4317 18.8642 36.5617 19.2445 36.3451C19.6345 36.1236 19.7596 35.6326 19.543 35.2475C19.3216 34.8624 18.8353 34.7276 18.4454 34.949C18.0651 35.1705 17.9351 35.6615 18.1518 36.0466ZM16.9675 33.9862C17.189 34.3713 17.68 34.5013 18.0603 34.2847C18.4502 34.0633 18.5754 33.5722 18.3588 33.1871C18.1373 32.802 17.6511 32.6672 17.2612 32.8935C16.8809 33.1101 16.7461 33.6011 16.9675 33.9862ZM22.5565 28.2817C22.778 28.6669 23.269 28.7968 23.6541 28.5802C24.0392 28.3588 24.1692 27.8726 23.9477 27.4874C23.7263 27.1023 23.2401 26.9675 22.855 27.189C22.4699 27.4056 22.3351 27.8966 22.5565 28.2817ZM20.5154 29.5285C20.7368 29.9137 21.2231 30.0484 21.6082 29.827C21.9933 29.6056 22.1233 29.1145 21.9018 28.7294C21.6804 28.3443 21.1894 28.2143 20.8091 28.431C20.4239 28.6572 20.294 29.1482 20.5154 29.5285ZM18.2095 30.6839C18.431 31.069 18.922 31.199 19.3071 30.9823C19.6922 30.7609 19.8222 30.2699 19.6008 29.8848C19.3793 29.4997 18.8883 29.3697 18.5032 29.5863C18.1229 29.8078 17.9881 30.2988 18.2095 30.6839ZM22.1184 25.1382C22.0029 25.5667 22.258 26.0096 22.6865 26.1203C23.1149 26.2358 23.5482 25.9759 23.6637 25.5474C23.7792 25.119 23.5241 24.6809 23.1005 24.5654C22.672 24.4547 22.234 24.7098 22.1184 25.1382ZM19.283 23.8096C19.1675 24.238 19.4178 24.6761 19.8463 24.7916C20.2747 24.9072 20.7128 24.652 20.8283 24.2236C20.9438 23.7952 20.6887 23.3571 20.2603 23.2416C19.8318 23.126 19.3938 23.3812 19.283 23.8096ZM20.7802 21.9707C20.6646 22.3991 20.915 22.842 21.3482 22.9527C21.7767 23.0683 22.2147 22.8131 22.3303 22.3847C22.4458 21.9562 22.1858 21.5182 21.7622 21.4026C21.329 21.2871 20.8909 21.5422 20.7802 21.9707ZM16.5535 22.7554C16.438 23.1838 16.6932 23.6267 17.1216 23.7374C17.55 23.8481 17.9881 23.593 18.1036 23.1694C18.2192 22.7409 17.964 22.298 17.5356 22.1873C17.1071 22.0718 16.6691 22.3269 16.5535 22.7554ZM18.3588 20.2714C18.2432 20.6998 18.4984 21.1427 18.9268 21.2534C19.3552 21.3689 19.7933 21.1138 19.9089 20.6854C20.0244 20.2569 19.7692 19.8189 19.3408 19.7033C18.9124 19.5878 18.4743 19.8429 18.3588 20.2714ZM42.0288 3.66815C41.6004 3.55743 41.1623 3.81257 41.0516 4.241C40.9409 4.66944 41.2008 5.10751 41.6293 5.21823C42.0577 5.32895 42.4958 5.07381 42.6065 4.64056C42.7172 4.21693 42.4573 3.77887 42.0288 3.66815ZM39.1886 11.6015C38.7602 11.4908 38.3221 11.7507 38.2114 12.1792C38.1007 12.6076 38.3606 13.0409 38.7891 13.1516C39.2175 13.2623 39.6556 13.0072 39.7663 12.5787C39.8722 12.1551 39.6171 11.7122 39.1886 11.6015ZM37.2582 7.68777C36.8298 7.57705 36.3917 7.82738 36.281 8.26063C36.1703 8.68907 36.4302 9.12714 36.8587 9.23786C37.2871 9.34858 37.7252 9.08862 37.8359 8.66019C37.9466 8.23175 37.6867 7.79849 37.2582 7.68777ZM38.6783 4.76091C38.2499 4.65019 37.8118 4.90533 37.7011 5.33376C37.5904 5.7622 37.8455 6.20027 38.2788 6.31099C38.7072 6.42171 39.1453 6.16176 39.256 5.73332C39.3667 5.3097 39.1068 4.87163 38.6783 4.76091ZM36.1751 2.15176C35.7467 2.04104 35.3086 2.30099 35.1979 2.72462C35.0872 3.15787 35.3471 3.59112 35.7755 3.70184C36.204 3.81257 36.642 3.55261 36.7528 3.12417C36.8635 2.69573 36.6035 2.26248 36.1751 2.15176ZM41.7015 13.8352C41.273 13.7244 40.835 13.9844 40.7243 14.4128C40.6135 14.8413 40.8735 15.2745 41.3019 15.3852C41.7304 15.496 42.1684 15.2408 42.2792 14.8124C42.3851 14.3839 42.1299 13.9459 41.7015 13.8352ZM40.2669 9.0453C39.8385 8.93458 39.4004 9.18972 39.2897 9.61816C39.179 10.0466 39.4389 10.4847 39.8674 10.5954C40.2958 10.7061 40.7339 10.4462 40.8446 10.0177C40.9553 9.58927 40.6954 9.15602 40.2669 9.0453ZM41.6293 6.66241C41.2008 6.55169 40.7628 6.81164 40.652 7.24008C40.5413 7.66852 40.8013 8.10658 41.2297 8.2173C41.6582 8.32802 42.0962 8.06807 42.2069 7.63963C42.3177 7.21119 42.0625 6.77794 41.6293 6.66241ZM44.0892 15.6693C43.8629 15.289 43.3671 15.1638 42.9868 15.3901C42.6065 15.6163 42.4862 16.1073 42.7124 16.4876C42.9387 16.8679 43.4297 16.9979 43.81 16.7716C44.1903 16.5454 44.3154 16.0496 44.0892 15.6693ZM45.6441 17.4119C45.8703 17.7922 45.7452 18.288 45.3649 18.5095C44.9846 18.7357 44.4936 18.6106 44.2673 18.2255C44.041 17.8452 44.1614 17.3541 44.5417 17.1279C44.922 16.9064 45.4178 17.0316 45.6441 17.4119ZM46.8524 19.4241C46.6261 19.0438 46.1303 18.9187 45.75 19.1449C45.3697 19.3712 45.2493 19.8622 45.4756 20.2425C45.7019 20.6228 46.1929 20.7528 46.5732 20.5265C46.9535 20.3003 47.0786 19.8044 46.8524 19.4241ZM46.1496 14.5091C45.9233 14.1288 45.4323 13.9988 45.052 14.2251C44.6717 14.4513 44.5465 14.9424 44.7728 15.3275C44.999 15.7078 45.49 15.8329 45.8703 15.6067C46.2506 15.3804 46.3758 14.8894 46.1496 14.5091ZM47.5841 16.2421C47.8104 16.6224 47.69 17.1134 47.3049 17.3397C46.9246 17.5659 46.4336 17.4408 46.2073 17.0605C45.9811 16.6802 46.1062 16.1843 46.4865 15.9581C46.8668 15.7318 47.3578 15.857 47.5841 16.2421ZM48.7876 18.264C48.5613 17.8837 48.0703 17.7537 47.69 17.9799C47.3097 18.2062 47.1845 18.6972 47.4108 19.0823C47.6371 19.4626 48.1329 19.5878 48.5084 19.3615C48.8935 19.1305 49.0138 18.6443 48.7876 18.264ZM48.3543 13.1227C48.5806 13.503 48.4554 13.9988 48.0751 14.2251C47.6948 14.4513 47.2038 14.3262 46.9775 13.9459C46.7513 13.5656 46.8765 13.0697 47.2568 12.8435C47.6371 12.6172 48.1281 12.7424 48.3543 13.1227ZM49.7167 14.8653C49.4904 14.485 48.9994 14.3599 48.6191 14.5861C48.2388 14.8124 48.1136 15.3034 48.3399 15.6885C48.5661 16.0688 49.0572 16.194 49.4375 15.9677C49.8178 15.7415 49.9429 15.2456 49.7167 14.8653ZM50.9009 16.7813C50.6746 16.401 50.1788 16.2758 49.7985 16.5021C49.4182 16.7283 49.293 17.2193 49.5193 17.6045C49.7456 17.9848 50.2366 18.1099 50.6169 17.8837C51.002 17.6526 51.1271 17.1616 50.9009 16.7813ZM50.2847 11.4763C50.0585 11.096 49.5626 10.9709 49.1871 11.1923C48.802 11.4186 48.6817 11.9096 48.9079 12.2947C49.1342 12.675 49.6252 12.805 50.0103 12.5739C50.381 12.3525 50.511 11.8566 50.2847 11.4763ZM51.6807 13.3923C51.4545 13.012 50.9587 12.8868 50.5832 13.1083C50.1981 13.3345 50.0777 13.8255 50.304 14.2106C50.5302 14.5909 51.0212 14.7209 51.4064 14.4898C51.777 14.2684 51.907 13.7774 51.6807 13.3923ZM52.9227 15.4189C52.6965 15.0386 52.2007 14.9135 51.8252 15.1349C51.4401 15.3612 51.3197 15.8522 51.546 16.2373C51.7722 16.6176 52.2584 16.7476 52.6435 16.5165C53.0238 16.2951 53.149 15.804 52.9227 15.4189ZM47.613 21.6482C47.3867 21.2679 46.8909 21.1427 46.5106 21.3689C46.1303 21.5952 46.0051 22.0862 46.2314 22.4665C46.4576 22.8468 46.9487 22.9768 47.329 22.7505C47.7141 22.5195 47.8392 22.0285 47.613 21.6482Z" fill="white"/>
<path fill-rule="evenodd" clip-rule="evenodd" d="M5.73803 31.2762C5.96429 31.6565 6.45531 31.7865 6.83561 31.5602C7.21591 31.334 7.34107 30.843 7.11482 30.4578C6.88856 30.0775 6.39754 29.9524 6.01724 30.1786C5.63694 30.4049 5.51659 30.8959 5.73803 31.2762ZM3.514 32.807C3.74026 33.1873 4.23609 33.3125 4.61639 33.0863C4.99669 32.86 5.12185 32.369 4.8956 31.9839C4.66934 31.6036 4.17832 31.4784 3.79802 31.7047C3.41772 31.9357 3.28775 32.4267 3.514 32.807ZM11.4907 39.2914C11.7169 39.6717 12.2079 39.8017 12.5882 39.5754C12.9685 39.3492 13.0937 38.8581 12.8675 38.473C12.6412 38.0927 12.1502 37.9676 11.7699 38.1938C11.3896 38.4201 11.2644 38.9111 11.4907 39.2914ZM5.13148 28.4119C5.02076 28.8404 5.27108 29.2784 5.69952 29.394C6.12796 29.5047 6.56603 29.2496 6.68156 28.8211C6.79228 28.3927 6.53715 27.9546 6.10871 27.8391C5.68027 27.7284 5.2422 27.9883 5.13148 28.4119ZM8.39051 17.1377C8.00539 17.3543 7.86579 17.8406 8.08242 18.2305C8.29904 18.6156 8.79006 18.7504 9.17518 18.5338C9.56029 18.3171 9.69508 17.8261 9.47845 17.441C9.26183 17.0511 8.77562 16.9211 8.39051 17.1377ZM18.6442 11.5247C18.2157 11.4043 17.7777 11.6547 17.6573 12.0831C17.5418 12.5115 17.7921 12.9544 18.2205 13.07C18.649 13.1855 19.0919 12.9352 19.2074 12.5067C19.3277 12.0783 19.0726 11.6402 18.6442 11.5247ZM29.7547 14.7356C29.5333 14.3505 29.0471 14.2157 28.6619 14.4371C28.2816 14.6586 28.1468 15.1496 28.3683 15.5347C28.5897 15.9198 29.0807 16.0498 29.4659 15.8283C29.8462 15.6069 29.9713 15.1207 29.7547 14.7356ZM35.3822 24.296C35.1607 23.9109 34.6745 23.7761 34.2894 23.9976C33.9043 24.219 33.7743 24.71 33.9958 25.0951C34.2172 25.4802 34.7082 25.6102 35.0933 25.3936C35.4736 25.1673 35.5988 24.6811 35.3822 24.296ZM1.31885 33.7698C1.54511 34.1501 2.04094 34.2753 2.41643 34.0538C2.80154 33.8276 2.92189 33.3366 2.69563 32.9515C2.46938 32.5712 1.97836 32.4412 1.59325 32.6723C1.22257 32.8937 1.0926 33.3895 1.31885 33.7698ZM0.216464 28.383C0.279045 28.8211 0.688228 29.1244 1.12148 29.0618C1.56436 28.9944 1.86283 28.59 1.80024 28.152C1.73766 27.7139 1.33329 27.4106 0.890413 27.4732C0.45716 27.5358 0.153883 27.945 0.216464 28.383ZM0.437904 30.8718C0.500485 31.3099 0.909669 31.6132 1.34292 31.5506C1.7858 31.488 2.08427 31.0788 2.02169 30.6408C1.9591 30.2027 1.55473 29.8994 1.11185 29.962C0.678601 30.0246 0.375323 30.4338 0.437904 30.8718ZM2.52715 28.1038C2.58973 28.5419 2.99891 28.8452 3.43698 28.7826C3.87505 28.72 4.17832 28.3108 4.11574 27.8728C4.05316 27.4347 3.64398 27.1314 3.20591 27.194C2.76784 27.2566 2.46457 27.6658 2.52715 28.1038ZM2.81598 30.2845C2.87856 30.7226 3.28775 31.0259 3.72581 30.9633C4.16388 30.9007 4.46716 30.4915 4.40458 30.0535C4.342 29.6154 3.93281 29.3121 3.49475 29.3747C3.05668 29.4421 2.7534 29.8465 2.81598 30.2845ZM7.60584 42.7478C7.96207 43.0126 8.46271 42.9403 8.72748 42.5889C8.99706 42.2327 8.92004 41.7321 8.56862 41.4673C8.21239 41.2025 7.71174 41.2699 7.44698 41.6261C7.1774 41.9776 7.24961 42.4782 7.60584 42.7478ZM10.0369 44.9141C10.3931 45.1788 10.8937 45.1066 11.1585 44.7552C11.4281 44.399 11.3511 43.8983 10.9997 43.6336C10.6434 43.3688 10.1428 43.441 9.87801 43.7924C9.60361 44.1486 9.68064 44.6493 10.0369 44.9141ZM8.74192 40.1964C9.09815 40.4612 9.5988 40.389 9.86357 40.0376C10.1283 39.6813 10.0561 39.1807 9.70471 38.9159C9.34848 38.6511 8.84783 38.7234 8.58306 39.0748C8.3183 39.4262 8.39051 39.9316 8.74192 40.1964ZM11.5725 42.0883C11.9287 42.3531 12.4342 42.2857 12.699 41.9294C12.9637 41.578 12.8915 41.0725 12.5401 40.8078C12.1839 40.543 11.6832 40.6152 11.4185 40.9666C11.1489 41.3229 11.2211 41.8235 11.5725 42.0883ZM40.3935 26.1686C40.3357 25.7306 39.9361 25.4177 39.4981 25.4754C39.06 25.5332 38.7471 25.9376 38.8049 26.3756C38.8626 26.8137 39.2622 27.1266 39.7051 27.0688C40.1431 27.0159 40.4512 26.6115 40.3935 26.1686ZM40.1239 22.7893C40.0661 22.3512 39.6618 22.0383 39.2285 22.0961C38.7856 22.1538 38.4775 22.5582 38.5353 22.9963C38.5931 23.4343 38.9926 23.7472 39.4355 23.6895C39.8687 23.6317 40.1817 23.2321 40.1239 22.7893ZM37.948 25.6439C37.8902 25.2059 37.4859 24.893 37.0478 24.9507C36.6097 25.0085 36.2968 25.4129 36.3546 25.8509C36.4123 26.289 36.8167 26.5971 37.2548 26.5441C37.6929 26.4912 38.0058 26.0868 37.948 25.6439ZM37.7554 23.3477C37.6977 22.9096 37.2933 22.5967 36.8552 22.6545C36.4172 22.7122 36.1091 23.1166 36.1668 23.5547C36.2246 23.9927 36.629 24.3057 37.067 24.2479C37.5051 24.1901 37.8132 23.7906 37.7554 23.3477ZM33.5721 11.4043C33.2207 11.1348 32.7153 11.1973 32.4457 11.5439C32.1713 11.9002 32.2387 12.396 32.5901 12.6704C32.9415 12.94 33.4422 12.8822 33.7166 12.526C33.9861 12.1842 33.9236 11.6787 33.5721 11.4043ZM31.584 9.84463C31.2326 9.57505 30.7271 9.63763 30.4575 9.98423C30.1831 10.3356 30.2505 10.8411 30.6019 11.1107C30.9534 11.3803 31.454 11.3225 31.7284 10.9663C31.998 10.6197 31.9354 10.1142 31.584 9.84463ZM31.8488 13.4888C31.4973 13.2192 30.9967 13.2818 30.7223 13.6332C30.4527 13.9846 30.5153 14.4901 30.8667 14.7596C31.2181 15.0292 31.7188 14.9666 31.9932 14.6152C32.2627 14.2638 32.2002 13.7583 31.8488 13.4888ZM30.2409 11.8857C30.5923 12.1601 30.6549 12.6608 30.3853 13.0122C30.1157 13.3636 29.6103 13.4262 29.2589 13.1566C28.9074 12.887 28.8449 12.3816 29.1144 12.0301C29.3888 11.6787 29.8943 11.6162 30.2409 11.8857ZM18.8752 6.69151C18.4372 6.74446 18.1243 7.14883 18.1772 7.58208C18.2302 8.02496 18.6345 8.33306 19.0726 8.2801C19.5107 8.22715 19.8236 7.82759 19.7706 7.38471C19.7177 6.95146 19.3133 6.63855 18.8752 6.69151ZM16.5501 6.98034C16.1072 7.0333 15.7991 7.43767 15.8521 7.87092C15.905 8.3138 16.3094 8.62189 16.7475 8.56894C17.1855 8.51598 17.4984 8.11643 17.4455 7.67355C17.3925 7.2403 16.9882 6.92258 16.5501 6.98034ZM19.0389 8.85777C18.596 8.91073 18.2879 9.3151 18.3409 9.75316C18.3938 10.1912 18.7982 10.5041 19.2363 10.4512C19.6743 10.3982 19.9872 9.99386 19.9343 9.55579C19.8813 9.11773 19.4818 8.80001 19.0389 8.85777ZM16.8149 9.18512C16.3768 9.23807 16.0639 9.64244 16.1169 10.0805C16.1698 10.5186 16.5742 10.8315 17.0122 10.7785C17.4503 10.7256 17.768 10.3212 17.7103 9.88314C17.6573 9.44026 17.2578 9.12735 16.8149 9.18512ZM5.05927 13.1807C4.78969 13.5321 4.8619 14.0376 5.21332 14.3023C5.56955 14.5719 6.07019 14.4997 6.33977 14.1483C6.60935 13.7969 6.54196 13.2962 6.18092 13.0218C5.8295 12.7571 5.32404 12.8293 5.05927 13.1807ZM3.33107 15.4962C3.06631 15.8476 3.1337 16.3531 3.48512 16.6178C3.84135 16.8874 4.342 16.8152 4.61158 16.459C4.87634 16.1075 4.81376 15.6069 4.45753 15.3373C4.10611 15.0725 3.60065 15.1399 3.33107 15.4962ZM6.65749 15.1688C6.38791 15.5202 6.46012 16.0257 6.81154 16.2953C7.16296 16.5601 7.66842 16.4927 7.938 16.1412C8.20276 15.7898 8.13537 15.2844 7.78395 15.0148C7.42772 14.7452 6.92226 14.8174 6.65749 15.1688ZM5.32404 16.9596C5.5888 16.6082 6.09426 16.536 6.44568 16.8056C6.7971 17.0751 6.86931 17.5758 6.60454 17.932C6.33496 18.2882 5.83431 18.3556 5.47808 18.0909C5.12667 17.8165 5.05927 17.3158 5.32404 16.9596ZM1.72804 18.1872C1.61732 18.6156 1.87245 19.0537 2.29608 19.1692C2.72933 19.2799 3.16259 19.0248 3.27812 18.5963C3.38884 18.1679 3.13852 17.7298 2.70526 17.6143C2.28164 17.5036 1.83876 17.7587 1.72804 18.1872ZM7.31219 26.9389C7.20147 27.3673 7.4566 27.8054 7.88504 27.9209C8.31348 28.0316 8.74674 27.7765 8.86227 27.3481C8.97299 26.9196 8.72267 26.4815 8.29423 26.3708C7.86579 26.2505 7.42291 26.5104 7.31219 26.9389ZM7.44698 24.6282C7.33626 25.0566 7.59139 25.4995 8.01983 25.6102C8.44827 25.7209 8.88153 25.4658 8.99706 25.0374C9.10778 24.6089 8.85746 24.1709 8.42902 24.0601C7.99576 23.9446 7.5577 24.1997 7.44698 24.6282ZM7.98614 22.3319C7.87542 22.7604 8.13055 23.1985 8.55899 23.314C8.98743 23.4247 9.42069 23.1696 9.53622 22.7411C9.64694 22.3127 9.39662 21.8746 8.96818 21.7639C8.53492 21.6484 8.09686 21.9035 7.98614 22.3319ZM5.02076 26.2505C4.90523 26.6789 5.16036 27.117 5.5888 27.2277C6.01724 27.3384 6.45531 27.0833 6.57084 26.6548C6.68156 26.2264 6.42643 25.7883 5.99799 25.6728C5.56473 25.5621 5.13148 25.822 5.02076 26.2505ZM5.19406 23.9446C5.08334 24.373 5.33366 24.8111 5.7621 24.9218C6.19054 25.0326 6.62861 24.7774 6.74414 24.349C6.85486 23.9205 6.59973 23.4825 6.17129 23.3718C5.74285 23.2562 5.3096 23.5162 5.19406 23.9446ZM5.79099 21.6773C5.67545 22.1057 5.93059 22.5438 6.35903 22.6593C6.78747 22.77 7.22554 22.5149 7.33626 22.0864C7.44698 21.658 7.19184 21.2199 6.7634 21.1044C6.33496 20.9889 5.90171 21.2488 5.79099 21.6773ZM2.50789 25.5765C2.39717 26.005 2.65231 26.443 3.08075 26.5586C3.50919 26.6693 3.94725 26.4142 4.06279 25.9857C4.17351 25.5573 3.91837 25.1192 3.48993 25.0085C3.05668 24.893 2.61861 25.1529 2.50789 25.5765ZM2.76784 23.3332C2.65712 23.7617 2.91226 24.1997 3.3407 24.3153C3.76914 24.426 4.20721 24.1709 4.31793 23.7424C4.42865 23.314 4.17351 22.8759 3.74507 22.7652C3.31663 22.6448 2.87856 22.9048 2.76784 23.3332ZM3.32626 21.2247C3.21554 21.6532 3.47068 22.0912 3.89912 22.2068C4.32755 22.3175 4.76562 22.0624 4.88116 21.6339C4.99188 21.2055 4.73674 20.7674 4.3083 20.6519C3.87505 20.5412 3.43698 20.7963 3.32626 21.2247ZM0.0239069 25.4947C-0.0868133 25.9231 0.168325 26.3612 0.59195 26.4719C1.0252 26.5875 1.45846 26.3275 1.57399 25.8991C1.68471 25.4706 1.43439 25.0326 1.00113 24.9218C0.577508 24.8111 0.139441 25.0663 0.0239069 25.4947ZM0.327184 23.0155C0.216464 23.444 0.471602 23.882 0.895227 23.9927C1.32848 24.1083 1.76173 23.8483 1.87727 23.4199C1.98799 22.9915 1.73766 22.5534 1.30441 22.4379C0.880785 22.3319 0.437904 22.5871 0.327184 23.0155ZM0.962622 20.469C0.851902 20.8974 1.10704 21.3355 1.53067 21.451C1.96392 21.5665 2.39717 21.3066 2.51271 20.8781C2.62343 20.4497 2.3731 20.0116 1.93985 19.9009C1.51622 19.7854 1.07334 20.0405 0.962622 20.469ZM9.10297 20.079C8.99225 20.5075 9.24739 20.9455 9.67582 21.0611C10.1043 21.1718 10.5375 20.9167 10.653 20.4882C10.7638 20.0598 10.5134 19.6217 10.085 19.511C9.65657 19.3955 9.21369 19.6506 9.10297 20.079ZM6.7297 19.6458C6.61898 20.0742 6.86931 20.5123 7.29775 20.6278C7.72618 20.7385 8.16425 20.4834 8.27979 20.055C8.39051 19.6265 8.13537 19.1885 7.70693 19.0777C7.27368 18.9574 6.84042 19.2173 6.7297 19.6458ZM4.14944 19.0777C4.03872 19.5062 4.29386 19.9491 4.7223 20.0598C5.15074 20.1705 5.5888 19.9154 5.69952 19.4869C5.81024 19.0585 5.5551 18.6204 5.12667 18.5049C4.70304 18.3942 4.26497 18.6493 4.14944 19.0777ZM13.4066 7.53394C13.0215 7.75057 12.8867 8.24159 13.0985 8.62671C13.32 9.01663 13.8062 9.14661 14.1913 8.92998C14.5764 8.71336 14.716 8.22715 14.4946 7.83722C14.2827 7.45211 13.7917 7.31732 13.4066 7.53394ZM10.9563 17.6191C10.5712 17.8406 10.4316 18.3268 10.653 18.7119C10.8697 19.097 11.3607 19.2318 11.7458 19.0103C12.1309 18.7937 12.2705 18.3027 12.0491 17.9176C11.8325 17.5373 11.3414 17.3977 10.9563 17.6191ZM12.8049 16.0064C12.4198 16.2231 12.2802 16.7141 12.5016 17.0992C12.7182 17.4843 13.2092 17.6191 13.5944 17.3977C13.9795 17.181 14.1191 16.6948 13.9024 16.3097C13.6762 15.9294 13.19 15.7898 12.8049 16.0064ZM14.846 14.8559C14.4609 15.0725 14.3213 15.5636 14.5427 15.9487C14.7593 16.3338 15.2503 16.4686 15.6355 16.2471C16.0206 16.0305 16.1602 15.5443 15.9436 15.1592C15.7221 14.7741 15.2311 14.6345 14.846 14.8559ZM9.90208 15.4528C10.2872 15.2362 10.7734 15.3662 10.9948 15.7513C11.2115 16.1364 11.0767 16.6274 10.6916 16.8441C10.3064 17.0607 9.81543 16.9259 9.5988 16.5408C9.37736 16.1557 9.51696 15.6695 9.90208 15.4528ZM11.6784 14.0087C11.2933 14.2253 11.1537 14.7115 11.3703 15.0966C11.587 15.4817 12.078 15.6165 12.4631 15.3999C12.8482 15.1833 12.983 14.6922 12.7664 14.3071C12.5497 13.922 12.0635 13.792 11.6784 14.0087ZM13.7243 12.8293C13.3392 13.0459 13.1996 13.5321 13.4162 13.9172C13.6329 14.3023 14.1239 14.4419 14.509 14.2205C14.8941 14.0039 15.0289 13.5128 14.8123 13.1277C14.5957 12.7426 14.1046 12.6126 13.7243 12.8293ZM8.58306 13.2529C8.96818 13.0363 9.4592 13.171 9.67582 13.5562C9.89245 13.9413 9.75766 14.4323 9.37255 14.6489C8.98743 14.8704 8.49641 14.7308 8.27497 14.3456C8.06316 13.9605 8.19795 13.4695 8.58306 13.2529ZM10.422 11.8135C10.0369 12.0301 9.89726 12.5212 10.1187 12.9063C10.3353 13.2914 10.8264 13.4262 11.2115 13.2096C11.5966 12.9929 11.7314 12.5019 11.5147 12.1168C11.2981 11.7317 10.8119 11.5969 10.422 11.8135ZM12.4535 10.6582C12.0683 10.8748 11.9287 11.3658 12.1502 11.7509C12.3668 12.1361 12.8578 12.2708 13.2429 12.0542C13.6281 11.8376 13.7628 11.3466 13.5462 10.9615C13.3296 10.5763 12.8386 10.4416 12.4535 10.6582ZM7.2833 10.9903C6.89819 11.207 6.75859 11.698 6.97521 12.0831C7.19665 12.473 7.68286 12.603 8.06797 12.3864C8.45309 12.1698 8.59269 11.6835 8.37125 11.2936C8.15944 10.9133 7.66842 10.7737 7.2833 10.9903ZM9.20887 9.65207C8.82376 9.8687 8.68416 10.3645 8.90078 10.7448C9.12222 11.1348 9.60843 11.2647 9.99354 11.0481C10.3787 10.8315 10.5183 10.3453 10.2968 9.95535C10.085 9.57023 9.59399 9.43063 9.20887 9.65207ZM11.25 8.49673C10.8649 8.71336 10.7253 9.20438 10.9419 9.58468C11.1633 9.9746 11.6495 10.1046 12.0346 9.88795C12.4198 9.67133 12.5594 9.18512 12.3379 8.79519C12.1261 8.41489 11.6351 8.2801 11.25 8.49673ZM17.0845 14.0568C16.6993 14.2734 16.5645 14.7645 16.7812 15.1496C16.9978 15.5347 17.4888 15.6695 17.8739 15.448C18.2591 15.2314 18.3987 14.7452 18.182 14.3601C17.9606 13.975 17.4696 13.8402 17.0845 14.0568ZM15.698 12.035C15.3129 12.2516 15.1733 12.7378 15.39 13.1229C15.6066 13.508 16.0976 13.6428 16.4875 13.4262C16.8726 13.2096 17.0074 12.7185 16.7908 12.3334C16.5694 11.9483 16.0832 11.8183 15.698 12.035ZM14.5138 9.82537C14.1287 10.042 13.9891 10.533 14.2105 10.9181C14.4272 11.3032 14.9182 11.438 15.3033 11.2214C15.6884 11.0048 15.8232 10.5138 15.6066 10.1286C15.3899 9.74354 14.8989 9.60875 14.5138 9.82537ZM28.8449 8.32824C28.4164 8.21271 27.9735 8.46303 27.858 8.88666C27.7377 9.31991 27.9928 9.75798 28.4212 9.87351C28.8497 9.98905 29.2877 9.74354 29.4081 9.31028C29.5236 8.88666 29.2733 8.44378 28.8449 8.32824ZM20.1365 13.691C19.708 13.5754 19.2652 13.8257 19.1496 14.2542C19.0341 14.6826 19.2844 15.1207 19.7129 15.2362C20.1413 15.3518 20.5794 15.1062 20.6997 14.6778C20.8152 14.2542 20.5649 13.8065 20.1365 13.691ZM22.4616 13.8643C22.0332 13.7439 21.5903 13.999 21.4748 14.4275C21.3592 14.8559 21.6095 15.294 22.038 15.4095C22.4664 15.5251 22.9045 15.2795 23.0248 14.8511C23.1404 14.4227 22.89 13.9798 22.4616 13.8643ZM24.6568 14.4034C24.2283 14.2879 23.7854 14.5382 23.6699 14.9666C23.5544 15.3951 23.8047 15.8331 24.2331 15.9487C24.6616 16.069 25.0996 15.8187 25.22 15.3903C25.3355 14.9618 25.0852 14.5189 24.6568 14.4034ZM20.8393 11.3995C20.4109 11.284 19.9728 11.5295 19.8525 11.9579C19.7369 12.3864 19.9872 12.8293 20.4157 12.9448C20.8441 13.0603 21.287 12.81 21.4025 12.3816C21.5181 11.9531 21.2629 11.5151 20.8393 11.3995ZM23.0441 11.6306C22.6157 11.5102 22.1728 11.7606 22.0572 12.189C21.9417 12.6174 22.192 13.0603 22.6205 13.1759C23.0489 13.2962 23.487 13.0411 23.6073 12.6126C23.7229 12.189 23.4677 11.7509 23.0441 11.6306ZM25.3066 12.242C24.8782 12.1264 24.4401 12.3719 24.3198 12.8004C24.2042 13.2288 24.4546 13.6717 24.883 13.7872C25.3114 13.9028 25.7543 13.6524 25.8699 13.224C25.9902 12.8004 25.7351 12.3623 25.3066 12.242ZM21.4844 8.9011C21.0559 8.78556 20.6131 9.03589 20.4975 9.46433C20.382 9.89277 20.6323 10.3356 21.0608 10.4512C21.4892 10.5667 21.9321 10.3164 22.0476 9.88795C22.1631 9.45951 21.9128 9.01663 21.4844 8.9011ZM23.6843 9.17068C23.2559 9.05514 22.813 9.30547 22.6975 9.73391C22.582 10.1623 22.8323 10.6004 23.2607 10.7208C23.6892 10.8363 24.132 10.586 24.2476 10.1575C24.3679 9.72909 24.1128 9.28621 23.6843 9.17068ZM25.8939 9.75316C25.4655 9.63282 25.0226 9.88795 24.9071 10.3164C24.7915 10.7448 25.0419 11.1829 25.4703 11.3032C25.8987 11.4188 26.3416 11.1685 26.4572 10.74C26.5727 10.3116 26.3224 9.8687 25.8939 9.75316ZM22.062 6.47007C21.6336 6.35453 21.1907 6.60486 21.0752 7.02848C20.9548 7.46174 21.21 7.8998 21.6384 8.01534C22.0669 8.13087 22.5049 7.88536 22.6253 7.45211C22.7408 7.02848 22.4905 6.5856 22.062 6.47007ZM24.4161 6.77816C23.9876 6.66262 23.5447 6.91295 23.4292 7.33657C23.3089 7.76983 23.564 8.20308 23.9924 8.32343C24.4209 8.44378 24.8589 8.19345 24.9793 7.7602C25.0948 7.33657 24.8445 6.89369 24.4161 6.77816ZM26.6545 7.42804C26.2261 7.3125 25.7832 7.56283 25.6677 7.98645C25.5473 8.41971 25.8025 8.85777 26.2309 8.97331C26.6593 9.08884 27.0974 8.84333 27.2178 8.41008C27.3333 7.99127 27.083 7.54839 26.6545 7.42804ZM26.7749 15.448C26.3464 15.3325 25.9036 15.5828 25.788 16.0113C25.6725 16.4397 25.9228 16.8778 26.3513 16.9933C26.7749 17.1088 27.2178 16.8633 27.3381 16.4349C27.4536 16.0113 27.2033 15.5684 26.7749 15.448ZM27.3814 13.1325C26.953 13.017 26.5101 13.2625 26.3946 13.691C26.279 14.1146 26.5294 14.5623 26.9578 14.6778C27.3862 14.7933 27.8243 14.543 27.9447 14.1146C28.0602 13.6861 27.8099 13.2529 27.3814 13.1325ZM28.0795 10.6486C27.651 10.5282 27.2081 10.7833 27.0926 11.2118C26.9771 11.6402 27.2274 12.0831 27.6558 12.1986C28.0843 12.3142 28.5271 12.0638 28.6427 11.6354C28.7582 11.207 28.5079 10.7641 28.0795 10.6486ZM39.3681 20.002C39.1467 19.6169 38.6556 19.4821 38.2753 19.7035C37.8854 19.925 37.7603 20.416 37.9769 20.8011C38.1983 21.1862 38.6845 21.321 39.0745 21.0948C39.4596 20.8781 39.5895 20.3871 39.3681 20.002ZM29.2589 17.2966C29.0374 16.9115 28.5464 16.7815 28.1613 16.9981C27.7762 17.2196 27.6462 17.7058 27.8676 18.0909C28.0891 18.476 28.5753 18.6108 28.9604 18.3893C29.3455 18.1727 29.4803 17.6769 29.2589 17.2966ZM30.886 19.1596C30.6645 18.7745 30.1735 18.6445 29.7884 18.8659C29.4033 19.0874 29.2733 19.5736 29.4947 19.9587C29.7162 20.3438 30.2024 20.4786 30.5875 20.2571C30.9726 20.0357 31.1074 19.5447 30.886 19.1596ZM32.0558 21.1718C31.8343 20.7867 31.3433 20.6519 30.9582 20.8733C30.5731 21.0948 30.4431 21.581 30.6645 21.9661C30.886 22.3512 31.3722 22.486 31.7573 22.2645C32.1424 22.0479 32.2772 21.5521 32.0558 21.1718ZM31.4155 16.2038C31.6369 16.5889 31.507 17.0751 31.1219 17.2966C30.7367 17.518 30.2457 17.3832 30.0243 17.0029C29.8028 16.6178 29.9376 16.1268 30.3179 15.9054C30.7079 15.6839 31.1941 15.8187 31.4155 16.2038ZM32.9174 18.062C32.696 17.6769 32.2098 17.5421 31.8247 17.7635C31.4396 17.9802 31.3096 18.476 31.531 18.8611C31.7525 19.2462 32.2435 19.3762 32.6286 19.1596C33.0089 18.9333 33.1389 18.4471 32.9174 18.062ZM34.0391 20.0501C33.8176 19.665 33.3314 19.5302 32.9463 19.7517C32.5612 19.9731 32.4312 20.4641 32.6527 20.8493C32.8741 21.2344 33.3651 21.3643 33.7503 21.1429C34.1306 20.9263 34.2605 20.4353 34.0391 20.0501ZM33.654 14.8704C33.8754 15.2555 33.7406 15.7465 33.3555 15.9679C32.9704 16.1894 32.4794 16.0546 32.2579 15.6695C32.0365 15.2844 32.1713 14.7933 32.5564 14.5719C32.9415 14.3505 33.4325 14.4852 33.654 14.8704ZM35.127 16.8296C34.9056 16.4445 34.4146 16.3145 34.0295 16.5312C33.6443 16.7526 33.5144 17.2436 33.7358 17.6287C33.9573 18.0139 34.4483 18.1438 34.8286 17.9272C35.2137 17.7058 35.3485 17.2147 35.127 16.8296ZM36.2198 18.7504C35.9984 18.3653 35.5073 18.2353 35.1222 18.4519C34.7419 18.6734 34.6071 19.1644 34.8286 19.5495C35.05 19.9346 35.541 20.0646 35.9261 19.8431C36.3064 19.6265 36.4364 19.1355 36.2198 18.7504ZM35.7673 13.6187C35.5458 13.2336 35.0548 13.1037 34.6745 13.3203C34.2846 13.5465 34.1594 14.0327 34.3809 14.4179C34.6023 14.803 35.0885 14.9378 35.4736 14.7163C35.8539 14.4949 35.9887 13.999 35.7673 13.6187ZM37.2115 15.6021C36.99 15.217 36.499 15.087 36.1187 15.3036C35.7288 15.5251 35.6036 16.0161 35.8251 16.4012C36.0465 16.7863 36.5327 16.9211 36.9226 16.6997C37.3029 16.4782 37.4329 15.9872 37.2115 15.6021ZM38.4005 17.6624C38.1791 17.2773 37.688 17.1473 37.3077 17.364C36.9178 17.5854 36.7927 18.0764 37.0141 18.4615C37.2355 18.8467 37.7217 18.9815 38.1117 18.7552C38.4872 18.5386 38.6219 18.0476 38.4005 17.6624ZM32.8115 23.3718C32.5901 22.9866 32.0991 22.8567 31.714 23.0733C31.3288 23.2947 31.1989 23.7809 31.4203 24.1709C31.6418 24.556 32.128 24.6908 32.5131 24.4693C32.8982 24.2479 33.0282 23.7521 32.8115 23.3718ZM34.8526 22.1201C34.6312 21.735 34.145 21.6002 33.7599 21.8217C33.3748 22.0431 33.2448 22.5341 33.4614 22.9192C33.6829 23.3044 34.1739 23.4343 34.559 23.2177C34.9441 22.9915 35.0741 22.5052 34.8526 22.1201ZM37.1585 20.9696C36.9371 20.5845 36.4461 20.4497 36.0609 20.6711C35.6758 20.8926 35.5458 21.3836 35.7625 21.7687C35.9839 22.1538 36.4749 22.2838 36.86 22.0672C37.2452 21.8409 37.3751 21.3547 37.1585 20.9696ZM33.2496 26.5152C33.3651 26.0868 33.11 25.6439 32.6816 25.5332C32.2531 25.4177 31.8199 25.6728 31.7043 26.1061C31.5888 26.5345 31.8391 26.9726 32.2676 27.0881C32.696 27.194 33.1341 26.9389 33.2496 26.5152ZM36.085 27.8439C36.2005 27.4154 35.9502 26.9774 35.517 26.8618C35.0885 26.7463 34.6505 27.0014 34.5349 27.4299C34.4194 27.8583 34.6745 28.2964 35.103 28.4119C35.5362 28.5275 35.9695 28.2675 36.085 27.8439ZM34.5879 29.6828C34.7034 29.2544 34.4483 28.8163 34.0198 28.7008C33.5914 28.5852 33.1485 28.8404 33.0378 29.2736C32.9223 29.7021 33.1822 30.1401 33.6058 30.2557C34.0391 30.3664 34.4723 30.1112 34.5879 29.6828ZM38.8145 28.8933C38.93 28.4649 38.6749 28.022 38.2465 27.9113C37.818 27.7957 37.38 28.0509 37.2644 28.4793C37.1489 28.9078 37.404 29.3458 37.8325 29.4614C38.2609 29.5769 38.699 29.3218 38.8145 28.8933ZM37.0045 31.3821C37.12 30.9537 36.8649 30.5108 36.4364 30.4001C36.008 30.2845 35.5699 30.5397 35.4544 30.9681C35.3388 31.3966 35.594 31.8346 36.0224 31.9502C36.4509 32.0609 36.8937 31.8057 37.0045 31.3821ZM13.3392 47.9805C13.7677 48.0912 14.2057 47.8361 14.3164 47.4077C14.4272 46.9792 14.1672 46.5412 13.7388 46.4304C13.3103 46.3197 12.8723 46.5749 12.7615 47.0081C12.6508 47.4317 12.9108 47.8746 13.3392 47.9805ZM16.1794 40.0472C16.6079 40.1579 17.0508 39.8979 17.1567 39.4695C17.2674 39.0411 17.0074 38.6078 16.579 38.4971C16.1506 38.3864 15.7125 38.6415 15.6018 39.07C15.491 39.4984 15.751 39.9365 16.1794 40.0472ZM18.1098 43.9609C18.5383 44.0716 18.9763 43.8213 19.087 43.388C19.1978 42.9596 18.9378 42.5215 18.5094 42.4108C18.0809 42.3001 17.6429 42.5601 17.5321 42.9885C17.4166 43.4169 17.6766 43.8502 18.1098 43.9609ZM16.6897 46.8878C17.1181 46.9985 17.5562 46.7433 17.6669 46.3101C17.7777 45.8817 17.5177 45.4436 17.0893 45.3329C16.6608 45.2221 16.2228 45.4821 16.112 45.9105C16.0013 46.339 16.2613 46.777 16.6897 46.8878ZM19.1881 49.4969C19.6166 49.6076 20.0546 49.3477 20.1654 48.9241C20.2761 48.4908 20.0161 48.0575 19.5877 47.9468C19.1593 47.8361 18.7212 48.0961 18.6105 48.5245C18.5046 48.9529 18.7597 49.3862 19.1881 49.4969ZM13.6666 37.8135C14.095 37.9242 14.5331 37.6643 14.6438 37.2358C14.7545 36.8074 14.4946 36.3742 14.0661 36.2634C13.6377 36.1527 13.1996 36.4079 13.0889 36.8363C12.9782 37.2647 13.2381 37.7028 13.6666 37.8135ZM15.1011 42.6034C15.5296 42.7141 15.9676 42.459 16.0783 42.0305C16.1891 41.6021 15.9291 41.164 15.5007 41.0533C15.0722 40.9426 14.6342 41.2025 14.5234 41.631C14.4127 42.0594 14.6727 42.4927 15.1011 42.6034ZM13.734 44.9863C14.1624 45.097 14.6005 44.837 14.7112 44.4086C14.8219 43.9802 14.562 43.5421 14.1335 43.4314C13.7051 43.3206 13.267 43.5758 13.1563 44.009C13.0504 44.4375 13.3055 44.8755 13.734 44.9863ZM11.2789 35.9794C11.5051 36.3597 12.0009 36.4849 12.3812 36.2586C12.7615 36.0324 12.8819 35.5413 12.6556 35.161C12.4294 34.7808 11.9384 34.6508 11.5581 34.877C11.1778 35.1033 11.0526 35.5991 11.2789 35.9794ZM9.72396 34.2368C9.49771 33.8565 9.62287 33.3606 10.0032 33.1344C10.3835 32.9081 10.8745 33.0333 11.1007 33.4184C11.327 33.7987 11.2067 34.2897 10.8215 34.516C10.4412 34.7422 9.95022 34.6171 9.72396 34.2368ZM8.51567 32.2246C8.74192 32.6049 9.23776 32.73 9.61806 32.5038C9.99836 32.2775 10.1187 31.7865 9.89245 31.4062C9.6662 31.0259 9.17518 30.8959 8.79488 31.1222C8.41458 31.3484 8.28941 31.8443 8.51567 32.2246ZM9.2185 37.1396C9.44476 37.5199 9.93578 37.6498 10.3161 37.4236C10.6964 37.1973 10.8215 36.7063 10.5953 36.3212C10.369 35.9409 9.87319 35.8157 9.49289 36.042C9.11259 36.2683 8.99225 36.7593 9.2185 37.1396ZM7.78395 35.4066C7.5577 35.0263 7.67805 34.5352 8.05834 34.309C8.43865 34.0827 8.93448 34.2079 9.16073 34.5882C9.38699 34.9685 9.26183 35.4643 8.88153 35.6906C8.49641 35.9168 8.01021 35.7917 7.78395 35.4066ZM6.57566 33.3895C6.80191 33.7698 7.29293 33.8998 7.67323 33.6735C8.05353 33.4473 8.17869 32.9563 7.95244 32.5712C7.72618 32.1909 7.23516 32.0657 6.85486 32.292C6.47456 32.5182 6.35422 33.0092 6.57566 33.3895ZM7.00891 38.526C6.78266 38.1457 6.90782 37.6498 7.28812 37.4236C7.66842 37.1973 8.16425 37.3225 8.38569 37.7028C8.61195 38.0831 8.48678 38.5789 8.10648 38.8052C7.731 39.0314 7.23516 38.9063 7.00891 38.526ZM5.65138 36.7833C5.87764 37.1636 6.36866 37.2888 6.74896 37.0625C7.12926 36.8363 7.25442 36.3453 7.02817 35.9602C6.80191 35.5799 6.31089 35.4547 5.92578 35.681C5.55029 35.912 5.42513 36.403 5.65138 36.7833ZM4.46234 34.8722C4.6886 35.2525 5.18443 35.3777 5.56473 35.1514C5.94503 34.9252 6.0702 34.4341 5.84394 34.049C5.61769 33.6687 5.12667 33.5436 4.74637 33.7698C4.36125 33.9961 4.23609 34.4919 4.46234 34.8722ZM5.08334 40.1723C5.3096 40.5526 5.80543 40.6778 6.18092 40.4564C6.56603 40.2301 6.68638 39.7391 6.46012 39.3588C6.23387 38.9785 5.74285 38.8485 5.35773 39.0796C4.98225 39.301 4.85709 39.792 5.08334 40.1723ZM3.6873 38.2564C3.91356 38.6367 4.40458 38.7619 4.78488 38.5404C5.16999 38.3142 5.29034 37.8231 5.06409 37.4428C4.83783 37.0625 4.35162 36.9326 3.96651 37.1636C3.58621 37.3803 3.46105 37.8761 3.6873 38.2564ZM2.44531 36.2297C2.67156 36.61 3.1674 36.7352 3.54289 36.5138C3.928 36.2875 4.04835 35.7965 3.82209 35.4114C3.59584 35.0311 3.10963 34.9011 2.72452 35.1322C2.34422 35.3536 2.21906 35.8494 2.44531 36.2297ZM7.75507 30.0053C7.98132 30.3856 8.47716 30.5108 8.85746 30.2845C9.23776 30.0583 9.3581 29.5673 9.13185 29.187C8.9056 28.8067 8.41458 28.6815 8.03428 28.903C7.65398 29.1292 7.52881 29.6202 7.75507 30.0053Z" fill="white"/>
<path d="M67.0678 0H66.2783V52H67.0678V0Z" fill="url(#paint0_linear_74_3938)"/>
<path fill-rule="evenodd" clip-rule="evenodd" d="M81.4869 49.4198L80.4663 47.966C81.0681 47.7301 81.4098 47.2391 81.4098 46.5699C81.4098 45.5879 80.6878 44.9958 79.5228 44.9958H77.7031V49.4246H78.5263V48.1345H79.5276C79.5854 48.1345 79.6431 48.1345 79.6961 48.1297L80.6011 49.4246H81.4869V49.4198ZM80.5818 46.5651C80.5818 47.1235 80.2064 47.4509 79.4891 47.4509H78.5263V45.6842H79.4891C80.2064 45.689 80.5818 46.0115 80.5818 46.5651ZM84.2356 48.7314V47.5087H86.373V46.8299H84.2356V45.6794H86.6474V44.991H83.4172V49.4198H86.7389V48.7314H84.2356ZM90.1038 49.4824C91.3169 49.4824 91.8946 48.8758 91.8946 48.1634C91.8946 46.5411 89.271 47.1524 89.271 46.2089C89.271 45.8719 89.5502 45.6072 90.2338 45.6072C90.6189 45.6072 91.0569 45.7227 91.4565 45.9538L91.7165 45.3135C91.3313 45.0584 90.7729 44.9236 90.2434 44.9236C89.0303 44.9236 88.4574 45.5301 88.4574 46.2474C88.4574 47.889 91.0906 47.2631 91.0906 48.2211C91.0906 48.5485 90.8018 48.7988 90.1086 48.7988C89.5646 48.7988 89.0014 48.5966 88.6452 48.3126L88.3612 48.9528C88.727 49.2657 89.4154 49.4824 90.1038 49.4824ZM95.6976 49.4824C96.9059 49.4824 97.6328 48.7795 97.6328 47.4894V44.991H96.824V47.4557C96.824 48.3655 96.4197 48.7603 95.7024 48.7603C94.9899 48.7603 94.5759 48.3655 94.5759 47.4557V44.991H93.7527V47.4894C93.7576 48.7795 94.4845 49.4824 95.6976 49.4824ZM99.8712 49.4198H103.01V48.7218H100.694V44.991H99.8712V49.4198ZM105.229 49.4198H106.052V45.689H107.521V44.991H103.766V45.689H105.234V49.4198H105.229ZM110.553 49.4824C111.766 49.4824 112.344 48.8758 112.344 48.1634C112.344 46.5411 109.721 47.1524 109.721 46.2089C109.721 45.8719 110 45.6072 110.683 45.6072C111.068 45.6072 111.506 45.7227 111.906 45.9538L112.166 45.3135C111.781 45.0584 111.222 44.9236 110.693 44.9236C109.48 44.9236 108.907 45.5301 108.907 46.2474C108.907 47.889 111.54 47.2631 111.54 48.2211C111.54 48.5485 111.251 48.7988 110.558 48.7988C110.014 48.7988 109.451 48.5966 109.095 48.3126L108.811 48.9528C109.172 49.2657 109.865 49.4824 110.553 49.4824ZM120.277 44.991H119.469L118.159 47.1476L116.864 44.991H115.983L117.721 47.8697V49.4198H118.544V47.8553L120.277 44.991ZM123.777 49.4824C125.149 49.4824 126.16 48.5196 126.16 47.2054C126.16 45.8912 125.149 44.9284 123.777 44.9284C122.405 44.9284 121.394 45.896 121.394 47.2054C121.389 48.5148 122.405 49.4824 123.777 49.4824ZM123.777 48.7603C122.887 48.7603 122.222 48.1104 122.222 47.2054C122.222 46.3004 122.887 45.6505 123.777 45.6505C124.668 45.6505 125.332 46.3004 125.332 47.2054C125.332 48.1104 124.668 48.7603 123.777 48.7603ZM130.021 49.4824C131.229 49.4824 131.956 48.7795 131.956 47.4894V44.991H131.147V47.4557C131.147 48.3655 130.743 48.7603 130.026 48.7603C129.313 48.7603 128.899 48.3655 128.899 47.4557V44.991H128.076V47.4894C128.081 48.7795 128.808 49.4824 130.021 49.4824ZM138.633 49.4824C139.36 49.4824 139.981 49.2224 140.39 48.741L139.861 48.2356C139.538 48.5918 139.138 48.7603 138.676 48.7603C137.757 48.7603 137.092 48.1152 137.092 47.2054C137.092 46.2956 137.757 45.6505 138.676 45.6505C139.138 45.6505 139.538 45.819 139.861 46.1704L140.39 45.6697C139.981 45.1884 139.36 44.9284 138.638 44.9284C137.275 44.9284 136.264 45.8816 136.264 47.2054C136.269 48.5292 137.28 49.4824 138.633 49.4824ZM145.483 49.4198H146.345L144.347 44.991H143.538L141.545 49.4198H142.393L142.831 48.3944H145.045L145.483 49.4198ZM143.105 47.7494L143.933 45.8142L144.766 47.7494H143.105ZM151.111 44.991V47.9901L148.67 44.991H147.991V49.4198H148.81V46.4207L151.25 49.4198H151.929V44.991H151.111ZM157.966 49.4824C159.179 49.4824 159.756 48.8758 159.756 48.1634C159.756 46.5411 157.133 47.1524 157.133 46.2089C157.133 45.8719 157.412 45.6072 158.096 45.6072C158.481 45.6072 158.919 45.7227 159.318 45.9538L159.578 45.3135C159.193 45.0584 158.635 44.9236 158.105 44.9236C156.892 44.9236 156.319 45.5301 156.319 46.2474C156.319 47.889 158.953 47.2631 158.953 48.2211C158.953 48.5485 158.664 48.7988 157.97 48.7988C157.427 48.7988 156.863 48.5966 156.507 48.3126L156.223 48.9528C156.584 49.2657 157.272 49.4824 157.966 49.4824ZM162.476 48.7314V47.5087H164.614V46.8299H162.476V45.6794H164.888V44.991H161.658V49.4198H164.98V48.7314H162.476ZM167.796 48.7314V47.5087H169.933V46.8299H167.796V45.6794H170.207V44.991H166.977V49.4198H170.299V48.7314H167.796Z" fill="white"/>
<path fill-rule="evenodd" clip-rule="evenodd" d="M93.7576 28.845C93.098 28.8931 92.4434 28.9316 91.7839 28.9316H83.5954V39.8978H77.7031V2.93164H91.7839C99.8809 2.93164 106.813 6.86944 106.813 15.9581C106.813 21.4027 104.194 25.5619 99.3754 27.5597L107.829 39.9026H101.287L93.7576 28.845ZM118.265 28.9846V39.8978H112.373V2.93164H126.454C134.551 2.93164 141.483 6.86944 141.483 15.9581C141.483 25.0468 134.551 28.9846 126.454 28.9846H118.265ZM157.431 40.3118C152.935 40.3118 147.125 38.8965 143.745 35.6567L143.505 35.4256L145.753 30.5491L146.2 30.9679C149.07 33.6397 153.624 35.0116 157.431 35.0116C160.637 35.0116 165.62 34.2077 165.62 29.9233C165.62 21.7348 144.448 27.0398 144.448 13.2912C144.448 12.0877 144.636 10.8939 145.04 9.76742C147.033 4.17364 153.055 2.52246 158.279 2.52246C162.13 2.52246 166.573 3.52857 169.769 5.79593L170.068 6.00774L168.08 10.9853L167.627 10.6869C164.878 8.87203 161.557 7.82259 158.283 7.82259C154.986 7.82259 150.244 8.79019 150.244 13.0842C150.244 21.3112 171.416 16.0303 171.416 29.6104C171.416 30.6743 171.262 31.7285 170.939 32.7346C169.062 38.5739 162.78 40.3118 157.431 40.3118ZM83.5954 8.33768V23.6315H91.6346C96.6555 23.6315 100.921 21.7059 100.921 15.9581C100.921 10.2103 96.6363 8.33768 91.6346 8.33768H83.5954ZM118.265 8.33768V23.5786H126.304C131.311 23.5786 135.591 21.7059 135.591 15.9581C135.591 10.2103 131.306 8.33768 126.304 8.33768H118.265Z" fill="white"/>
</g>
<defs>
<linearGradient id="paint0_linear_74_3938" x1="-27.2377" y1="432.769" x2="170.582" y2="-424.089" gradientUnits="userSpaceOnUse">
<stop stop-color="#6D6E71"/>
<stop offset="1" stop-color="#BCBEC0"/>
</linearGradient>
<clipPath id="clip0_74_3938">
<rect width="171.409" height="52" fill="white"/>
</clipPath>
</defs>
</svg>
