<svg width="18" height="18" viewBox="0 0 18 18" fill="none" xmlns="http://www.w3.org/2000/svg">
<path d="M16.4887 8.06484L15.9684 2.56992C15.942 2.28516 15.7153 2.06016 15.4305 2.03203L9.93559 1.51172H9.92855C9.8723 1.51172 9.82836 1.5293 9.79496 1.5627L1.56312 9.79453C1.54683 9.81079 1.5339 9.83011 1.52508 9.85137C1.51626 9.87264 1.51172 9.89544 1.51172 9.91846C1.51172 9.94148 1.51626 9.96427 1.52508 9.98554C1.5339 10.0068 1.54683 10.0261 1.56312 10.0424L7.95805 16.4373C7.99145 16.4707 8.03539 16.4883 8.08285 16.4883C8.13031 16.4883 8.17426 16.4707 8.20766 16.4373L16.4395 8.20547C16.4746 8.16855 16.4922 8.11758 16.4887 8.06484ZM8.08109 14.6725L3.32797 9.91934L10.3539 2.89336L14.6957 3.30469L15.1071 7.64648L8.08109 14.6725ZM11.9536 4.5C11.101 4.5 10.4067 5.19434 10.4067 6.04688C10.4067 6.89941 11.101 7.59375 11.9536 7.59375C12.8061 7.59375 13.5004 6.89941 13.5004 6.04688C13.5004 5.19434 12.8061 4.5 11.9536 4.5ZM11.9536 6.60938C11.6424 6.60938 11.3911 6.35801 11.3911 6.04688C11.3911 5.73574 11.6424 5.48438 11.9536 5.48438C12.2647 5.48438 12.5161 5.73574 12.5161 6.04688C12.5161 6.35801 12.2647 6.60938 11.9536 6.60938Z" fill="#1787FC"/>
</svg>
