<svg width="142" height="43" viewBox="0 0 142 43" fill="none" xmlns="http://www.w3.org/2000/svg">
<g clip-path="url(#clip0_73_3831)">
<path fill-rule="evenodd" clip-rule="evenodd" d="M41.0381 16.8465C40.851 16.5321 40.4449 16.4246 40.1305 16.6117C39.816 16.7988 39.7125 17.2048 39.8996 17.5233C40.0867 17.8377 40.4967 17.9412 40.8072 17.7541C41.1256 17.5671 41.2252 17.161 41.0381 16.8465ZM42.8772 15.5846C42.6901 15.2702 42.2801 15.1667 41.9656 15.3538C41.6511 15.5409 41.5476 15.9469 41.7347 16.2654C41.9218 16.5798 42.3278 16.6833 42.6423 16.4962C42.9608 16.3052 43.0643 15.8991 42.8772 15.5846ZM36.2811 10.2186C36.094 9.90412 35.6879 9.79664 35.3735 9.98374C35.059 10.1708 34.9555 10.5808 35.1426 10.8953C35.3297 11.2098 35.7357 11.3133 36.0542 11.1262C36.3687 10.9391 36.4682 10.5331 36.2811 10.2186ZM41.5436 19.2151C41.6352 18.8608 41.4282 18.4985 41.0739 18.403C40.7196 18.3115 40.3574 18.5224 40.2618 18.8767C40.1703 19.231 40.3812 19.5933 40.7355 19.6888C41.0898 19.7803 41.4521 19.5694 41.5436 19.2151ZM38.8487 28.542C39.1671 28.3588 39.2826 27.9608 39.0994 27.6383C38.9203 27.3199 38.5143 27.2084 38.1958 27.3876C37.8774 27.5667 37.7659 27.9727 37.945 28.2912C38.1281 28.6096 38.5302 28.7211 38.8487 28.542ZM30.3657 33.1795C30.72 33.2751 31.0862 33.0721 31.1817 32.7178C31.2773 32.3675 31.0703 32.0012 30.716 31.9017C30.3617 31.8062 29.9995 32.0132 29.8999 32.3675C29.8044 32.7217 30.0154 33.084 30.3657 33.1795ZM21.1821 30.5244C21.3652 30.8428 21.7673 30.9543 22.0857 30.7712C22.4042 30.5881 22.5117 30.182 22.3325 29.8636C22.1494 29.5451 21.7434 29.4376 21.4249 29.6168C21.1065 29.8039 20.999 30.2059 21.1821 30.5244ZM16.5286 22.6226C16.7117 22.9411 17.1138 23.0525 17.4323 22.8694C17.7507 22.6863 17.8622 22.2803 17.6751 21.9618C17.492 21.6433 17.0859 21.5359 16.7714 21.715C16.453 21.8981 16.3455 22.3041 16.5286 22.6226ZM44.6924 14.7845C44.5053 14.47 44.0953 14.3665 43.7848 14.5496C43.4663 14.7367 43.3668 15.1428 43.5539 15.4612C43.741 15.7757 44.143 15.8832 44.4615 15.6921C44.776 15.509 44.8795 15.099 44.6924 14.7845ZM45.604 19.2429C45.5522 18.8807 45.2139 18.6299 44.8556 18.6817C44.4894 18.7374 44.2426 19.0718 44.2943 19.434C44.3461 19.7963 44.6804 20.0471 45.0467 19.9953C45.4049 19.9396 45.6597 19.6052 45.604 19.2429ZM45.4248 17.1809C45.3731 16.8187 45.0347 16.5679 44.6765 16.6196C44.3102 16.6714 44.0634 17.0097 44.1152 17.372C44.1669 17.7342 44.5013 17.985 44.8675 17.9333C45.2258 17.8815 45.4766 17.5472 45.4248 17.1809ZM43.6932 19.4698C43.6415 19.1076 43.3031 18.8568 42.9409 18.9086C42.5786 18.9603 42.3278 19.2987 42.3796 19.6609C42.4313 20.0232 42.7697 20.274 43.1319 20.2222C43.4982 20.1705 43.749 19.8321 43.6932 19.4698ZM43.4584 17.6666C43.4066 17.3043 43.0682 17.0535 42.706 17.1053C42.3437 17.157 42.093 17.4954 42.1447 17.8576C42.1965 18.2199 42.5348 18.4707 42.8971 18.4189C43.2593 18.3672 43.5101 18.0288 43.4584 17.6666ZM39.4975 7.36441C39.2029 7.14546 38.785 7.20518 38.57 7.49577C38.3471 7.79035 38.4108 8.20434 38.7014 8.42328C38.9959 8.64223 39.4099 8.58251 39.6289 8.29192C39.8518 7.99734 39.7921 7.58335 39.4975 7.36441ZM37.4872 5.56909C37.1927 5.35015 36.7787 5.40986 36.5597 5.70045C36.3368 5.99901 36.4005 6.40903 36.6911 6.63195C36.9817 6.85089 37.3997 6.79118 37.6186 6.50058C37.8415 6.20601 37.7818 5.79201 37.4872 5.56909ZM38.5581 9.47022C38.2635 9.25128 37.8495 9.31099 37.6266 9.60158C37.4076 9.89616 37.4673 10.3102 37.7579 10.5331C38.0525 10.752 38.4665 10.6923 38.6854 10.4017C38.9084 10.1071 38.8487 9.68916 38.5581 9.47022ZM36.2134 7.90579C35.9188 7.68685 35.5048 7.74656 35.2819 8.03715C35.063 8.32775 35.1227 8.74572 35.4133 8.96467C35.7078 9.18361 36.1218 9.1239 36.3408 8.8333C36.5677 8.54271 36.508 8.12473 36.2134 7.90579ZM12.3807 21.0701C12.4285 21.4324 12.7589 21.6911 13.1211 21.6433C13.4834 21.5956 13.7421 21.2612 13.6943 20.8989C13.6466 20.5367 13.3162 20.2779 12.9499 20.3257C12.5917 20.3735 12.3329 20.7039 12.3807 21.0701ZM12.6076 23.8646C12.6554 24.2308 12.9897 24.4856 13.348 24.4378C13.7142 24.39 13.969 24.0557 13.9212 23.6934C13.8735 23.3312 13.5431 23.0724 13.1768 23.1202C12.8186 23.168 12.5598 23.5023 12.6076 23.8646ZM14.4069 21.504C14.4547 21.8663 14.789 22.125 15.1513 22.0772C15.5135 22.0295 15.7723 21.6951 15.7245 21.3328C15.6767 20.9706 15.3424 20.7118 14.9801 20.7596C14.6139 20.8074 14.3591 21.1418 14.4069 21.504ZM14.5661 23.4028C14.6139 23.7651 14.9483 24.0238 15.3105 23.9761C15.6728 23.9283 15.9315 23.5939 15.8837 23.2317C15.836 22.8694 15.5016 22.6107 15.1393 22.6584C14.7731 22.7062 14.5183 23.0406 14.5661 23.4028ZM18.0254 33.2791C18.316 33.502 18.734 33.4502 18.9529 33.1636C19.1798 32.869 19.1241 32.455 18.8335 32.2321C18.5429 32.0092 18.1289 32.057 17.902 32.3515C17.683 32.6342 17.7348 33.0521 18.0254 33.2791ZM19.6694 34.5688C19.96 34.7917 20.378 34.74 20.5969 34.4534C20.8238 34.1628 20.7681 33.7488 20.4775 33.5219C20.1869 33.299 19.7729 33.3467 19.546 33.6413C19.3271 33.9279 19.3788 34.3459 19.6694 34.5688ZM19.4505 31.5594C19.7411 31.7823 20.1591 31.7305 20.382 31.4399C20.6049 31.1494 20.5532 30.7314 20.2626 30.5085C19.972 30.2855 19.558 30.3373 19.3311 30.6279C19.1081 30.9185 19.1599 31.3325 19.4505 31.5594ZM20.7761 32.881C20.4855 32.6581 20.4337 32.2401 20.6567 31.9495C20.8796 31.6589 21.2976 31.6071 21.5881 31.8301C21.8787 32.053 21.9305 32.471 21.7076 32.7616C21.4846 33.0521 21.0667 33.1079 20.7761 32.881ZM30.1786 37.1802C30.5408 37.1364 30.8036 36.802 30.7558 36.4437C30.712 36.0775 30.3776 35.8227 30.0154 35.8665C29.6531 35.9103 29.3944 36.2367 29.4382 36.607C29.482 36.9652 29.8124 37.224 30.1786 37.1802ZM32.1013 36.9413C32.4675 36.8975 32.7223 36.5632 32.6785 36.2049C32.6347 35.8387 32.3003 35.5839 31.9381 35.6277C31.5758 35.6715 31.3131 36.0019 31.3609 36.3681C31.4047 36.7264 31.739 36.9851 32.1013 36.9413ZM30.0393 35.3849C30.4015 35.3411 30.6603 35.0067 30.6165 34.6444C30.5727 34.2822 30.2383 34.0235 29.8761 34.0672C29.5138 34.115 29.2551 34.4454 29.2988 34.8077C29.3466 35.1739 29.677 35.4326 30.0393 35.3849ZM31.8784 35.1182C32.2406 35.0744 32.4994 34.74 32.4556 34.3777C32.4118 34.0115 32.0774 33.7567 31.7152 33.8005C31.3529 33.8443 31.0942 34.1787 31.138 34.5409C31.1857 34.9032 31.5161 35.1619 31.8784 35.1182ZM41.6033 31.8102C41.8263 31.5196 41.7665 31.1016 41.4759 30.8826C41.1814 30.6597 40.7674 30.7194 40.5445 31.014C40.3215 31.3046 40.3773 31.7186 40.6758 31.9455C40.9624 32.1605 41.3804 32.1008 41.6033 31.8102ZM43.0284 29.8994C43.2514 29.6088 43.1916 29.1908 42.9011 28.9719C42.6065 28.749 42.1925 28.8087 41.9696 29.1033C41.7466 29.3938 41.8024 29.8118 42.0969 30.0308C42.3915 30.2497 42.8095 30.19 43.0284 29.8994ZM40.2817 30.1661C40.5046 29.8755 40.4449 29.4575 40.1543 29.2386C39.8637 29.0197 39.4458 29.0754 39.2268 29.37C39.0039 29.6606 39.0636 30.0785 39.3542 30.2975C39.6448 30.5164 40.0628 30.4607 40.2817 30.1661ZM41.3844 28.6853C41.1654 28.9759 40.7475 29.0356 40.4569 28.8127C40.1663 28.5937 40.1066 28.1757 40.3255 27.8851C40.5484 27.5945 40.9624 27.5348 41.257 27.7538C41.5476 27.9767 41.6033 28.3947 41.3844 28.6853ZM44.358 27.6702C44.4496 27.3159 44.2386 26.9537 43.8883 26.8581C43.53 26.7666 43.1717 26.9775 43.0762 27.3318C42.9846 27.6861 43.1916 28.0484 43.5499 28.1439C43.9002 28.2354 44.2625 28.0245 44.358 27.6702ZM39.7403 20.4372C39.8319 20.0829 39.6209 19.7206 39.2666 19.6251C38.9123 19.5296 38.5541 19.7445 38.4585 20.0988C38.367 20.4531 38.574 20.8153 38.9283 20.9069C39.2826 21.0024 39.6448 20.7915 39.7403 20.4372ZM39.6289 22.3439C39.7244 21.9897 39.5095 21.6234 39.1552 21.5319C38.8009 21.4403 38.4426 21.6513 38.3471 22.0056C38.2555 22.3599 38.4625 22.7221 38.8168 22.8137C39.1711 22.9132 39.5373 22.7022 39.6289 22.3439ZM39.183 24.2428C39.2746 23.8885 39.0636 23.5262 38.7093 23.4307C38.355 23.3391 37.9928 23.5501 37.9012 23.9044C37.8097 24.2587 38.0167 24.6209 38.371 24.7125C38.7253 24.808 39.0915 24.597 39.183 24.2428ZM41.6352 21.0064C41.7267 20.6521 41.5197 20.2899 41.1655 20.1943C40.8112 20.1028 40.4489 20.3138 40.3534 20.6681C40.2618 21.0223 40.4728 21.3886 40.8271 21.4801C41.1814 21.5717 41.5436 21.3607 41.6352 21.0064ZM41.4879 22.9092C41.5794 22.5549 41.3724 22.1927 41.0182 22.1011C40.6639 22.0096 40.3016 22.2205 40.2061 22.5748C40.1145 22.9291 40.3255 23.2914 40.6798 23.3829C41.0381 23.4785 41.3963 23.2675 41.4879 22.9092ZM40.9983 24.7881C41.0898 24.4338 40.8828 24.0716 40.5285 23.9761C40.1742 23.8845 39.812 24.0955 39.7204 24.4498C39.6289 24.804 39.8399 25.1663 40.1941 25.2579C40.5445 25.3534 40.9067 25.1424 40.9983 24.7881ZM43.7131 21.5597C43.8047 21.2055 43.5937 20.8432 43.2394 20.7477C42.8851 20.6561 42.5229 20.8671 42.4313 21.2214C42.3398 21.5757 42.5507 21.9379 42.905 22.0334C43.2553 22.125 43.6216 21.914 43.7131 21.5597ZM43.4982 23.4187C43.5897 23.0645 43.3787 22.7022 43.0245 22.6067C42.6702 22.5151 42.3079 22.7261 42.2124 23.0804C42.1208 23.4347 42.3318 23.7969 42.6861 23.8925C43.0404 23.984 43.4066 23.7691 43.4982 23.4187ZM43.0364 25.1623C43.128 24.808 42.917 24.4458 42.5627 24.3502C42.2084 24.2587 41.8462 24.4697 41.7506 24.824C41.6591 25.1782 41.87 25.5405 42.2243 25.636C42.5786 25.7276 42.9409 25.5126 43.0364 25.1623ZM45.7632 21.6274C45.8548 21.2731 45.6438 20.9109 45.2935 20.8193C44.9352 20.7238 44.5769 20.9387 44.4814 21.293C44.3899 21.6473 44.5969 22.0096 44.9551 22.1051C45.3054 22.1927 45.6717 21.9817 45.7632 21.6274ZM45.5164 23.6775C45.608 23.3232 45.397 22.961 45.0467 22.8654C44.6884 22.7699 44.3301 22.9848 44.2346 23.3391C44.143 23.6934 44.35 24.0557 44.7083 24.1472C45.0586 24.2428 45.4209 24.0318 45.5164 23.6775ZM44.9909 25.7873C45.0825 25.433 44.8715 25.0708 44.5212 24.9752C44.1629 24.8797 43.8047 25.0946 43.7091 25.4489C43.6176 25.8032 43.8246 26.1655 44.1829 26.261C44.5332 26.3526 44.8954 26.1416 44.9909 25.7873ZM38.2595 26.1058C38.3511 25.7515 38.1401 25.3892 37.7858 25.2937C37.4315 25.2021 37.0732 25.4131 36.9777 25.7674C36.8861 26.1217 37.0931 26.4839 37.4474 26.5755C37.8017 26.671 38.164 26.46 38.2595 26.1058ZM40.222 26.464C40.3136 26.1097 40.1066 25.7475 39.7523 25.6559C39.398 25.5644 39.0358 25.7753 38.9442 26.1296C38.8526 26.4839 39.0636 26.8462 39.4179 26.9377C39.7682 27.0333 40.1305 26.8183 40.222 26.464ZM42.3517 26.9377C42.4433 26.5834 42.2323 26.2172 41.878 26.1257C41.5237 26.0341 41.1615 26.2451 41.0659 26.5994C40.9744 26.9536 41.1854 27.3159 41.5396 27.4114C41.8979 27.503 42.2602 27.292 42.3517 26.9377ZM34.7007 36.4796C35.0192 36.3004 35.1306 35.8944 34.9555 35.5799C34.7724 35.2575 34.3703 35.15 34.0519 35.3291C33.7334 35.5083 33.618 35.9103 33.8011 36.2328C33.9762 36.5472 34.3823 36.6587 34.7007 36.4796ZM36.7269 28.1439C37.0454 27.9648 37.1608 27.5587 36.9777 27.2363C36.7986 26.9178 36.3925 26.8064 36.0741 26.9895C35.7556 27.1686 35.6402 27.5707 35.8193 27.8891C36.0024 28.2076 36.4085 28.323 36.7269 28.1439ZM35.1983 29.4735C35.5168 29.2943 35.6282 28.8883 35.4491 28.5698C35.27 28.2514 34.8639 28.1399 34.5455 28.323C34.227 28.5022 34.1116 28.9042 34.2907 29.2267C34.4738 29.5411 34.8799 29.6566 35.1983 29.4735ZM33.5105 30.4288C33.8289 30.2497 33.9404 29.8437 33.7613 29.5252C33.5821 29.2067 33.1761 29.0953 32.8576 29.2784C32.5392 29.4575 32.4237 29.8596 32.6069 30.1781C32.786 30.4925 33.192 30.608 33.5105 30.4288ZM37.5947 29.9352C37.2763 30.1144 36.8742 30.0069 36.6911 29.6844C36.512 29.366 36.6234 28.9599 36.9419 28.7808C37.2603 28.6017 37.6664 28.7131 37.8455 29.0316C38.0326 29.3501 37.9172 29.7521 37.5947 29.9352ZM36.1298 31.1255C36.4483 30.9463 36.5637 30.5443 36.3846 30.2218C36.2054 29.9034 35.7994 29.7919 35.4809 29.9711C35.1625 30.1502 35.051 30.5562 35.2302 30.8747C35.4093 31.1971 35.8113 31.3046 36.1298 31.1255ZM34.438 32.1008C34.7565 31.9216 34.8719 31.5196 34.6928 31.1971C34.5136 30.8787 34.1076 30.7672 33.7891 30.9463C33.4707 31.1255 33.3592 31.5315 33.5383 31.85C33.7175 32.1724 34.1195 32.2799 34.438 32.1008ZM38.6894 31.7504C38.371 31.9296 37.9649 31.8181 37.7858 31.4997C37.6067 31.1812 37.7181 30.7752 38.0366 30.596C38.355 30.4169 38.7611 30.5284 38.9442 30.8468C39.1193 31.1653 39.0079 31.5713 38.6894 31.7504ZM37.1648 32.9407C37.4833 32.7616 37.5987 32.3555 37.4156 32.0371C37.2365 31.7186 36.8304 31.6071 36.512 31.7863C36.1935 31.9654 36.082 32.3714 36.2612 32.6899C36.4403 33.0084 36.8463 33.1198 37.1648 32.9407ZM35.4889 33.8961C35.8074 33.7169 35.9188 33.3109 35.7397 32.9924C35.5606 32.674 35.1545 32.5625 34.8361 32.7417C34.5176 32.9208 34.4061 33.3268 34.5853 33.6453C34.7644 33.9637 35.1704 34.0792 35.4889 33.8961ZM39.7642 33.6214C40.0827 33.4423 40.1981 33.0362 40.019 32.7217C39.8359 32.3993 39.4338 32.2918 39.1154 32.471C38.7969 32.6501 38.6815 33.0521 38.8646 33.3746C39.0397 33.6851 39.4458 33.8005 39.7642 33.6214ZM38.1679 34.732C38.4864 34.5529 38.6018 34.1469 38.4227 33.8324C38.2396 33.5099 37.8375 33.4025 37.5191 33.5816C37.2006 33.7607 37.0852 34.1628 37.2683 34.4852C37.4435 34.7957 37.8495 34.9112 38.1679 34.732ZM36.4801 35.6834C36.7986 35.5043 36.914 35.0943 36.7349 34.7798C36.5518 34.4574 36.1497 34.3499 35.8313 34.529C35.5128 34.7081 35.3973 35.1102 35.5805 35.4326C35.7596 35.7511 36.1617 35.8626 36.4801 35.6834ZM31.6554 31.0857C31.9739 30.9065 32.0894 30.5005 31.9062 30.182C31.7271 29.8636 31.3211 29.7521 31.0026 29.9352C30.6841 30.1144 30.5687 30.5164 30.7478 30.8349C30.9349 31.1533 31.337 31.2648 31.6554 31.0857ZM32.8059 32.7576C33.1243 32.5784 33.2398 32.1764 33.0607 31.8539C32.8815 31.5355 32.4755 31.424 32.157 31.6032C31.8386 31.7823 31.7271 32.1883 31.9062 32.5068C32.0814 32.8292 32.4874 32.9367 32.8059 32.7576ZM33.7812 34.5847C34.0996 34.4056 34.2151 33.9996 34.032 33.6811C33.8528 33.3626 33.4468 33.2512 33.1283 33.4303C32.8099 33.6095 32.6984 34.0155 32.8775 34.3339C33.0567 34.6524 33.4627 34.7678 33.7812 34.5847ZM21.9345 35.8227C22.2888 35.9183 22.655 35.7113 22.7505 35.361C22.85 35.0027 22.6391 34.6405 22.2848 34.5449C21.9305 34.4494 21.5682 34.6524 21.4687 35.0107C21.3732 35.361 21.5802 35.7272 21.9345 35.8227ZM29.1356 31.3882C29.4899 31.4837 29.8562 31.2767 29.9517 30.9225C30.0472 30.5682 29.8402 30.2059 29.4859 30.1104C29.1317 30.0109 28.7694 30.2179 28.6699 30.5721C28.5744 30.9264 28.7814 31.2927 29.1356 31.3882ZM27.209 31.2489C27.5632 31.3484 27.9295 31.1374 28.025 30.7831C28.1206 30.4288 27.9136 30.0666 27.5593 29.9711C27.205 29.8755 26.8427 30.0785 26.7432 30.4328C26.6477 30.7831 26.8587 31.1494 27.209 31.2489ZM25.3977 30.799C25.752 30.8946 26.1182 30.6876 26.2138 30.3333C26.3093 29.979 26.1023 29.6168 25.748 29.5212C25.3937 29.4217 25.0315 29.6287 24.932 29.983C24.8364 30.3373 25.0434 30.7035 25.3977 30.799ZM28.5545 33.283C28.9087 33.3786 29.275 33.1756 29.3705 32.8213C29.466 32.471 29.259 32.1008 28.9048 32.0052C28.5505 31.9097 28.1842 32.1167 28.0887 32.471C27.9932 32.8252 28.2002 33.1875 28.5545 33.283ZM26.7313 33.092C27.0856 33.1875 27.4518 32.9845 27.5473 32.6302C27.6429 32.2759 27.4359 31.9097 27.0816 31.8141C26.7273 31.7186 26.365 31.9256 26.2655 32.2799C26.17 32.6342 26.381 32.9924 26.7313 33.092ZM24.8603 32.5864C25.2146 32.6819 25.5769 32.4789 25.6764 32.1246C25.7719 31.7703 25.5649 31.4041 25.2106 31.3086C24.8563 31.213 24.4901 31.42 24.3946 31.7743C24.2951 32.1286 24.506 32.4909 24.8603 32.5864ZM28.021 35.349C28.3753 35.4446 28.7415 35.2376 28.8371 34.8833C28.9326 34.529 28.7256 34.1628 28.3713 34.0672C28.017 33.9717 27.6508 34.1787 27.5553 34.533C27.4597 34.8873 27.6667 35.2535 28.021 35.349ZM26.1978 35.1261C26.5521 35.2217 26.9184 35.0147 27.0139 34.6604C27.1094 34.3061 26.9024 33.9438 26.5482 33.8443C26.1939 33.7488 25.8316 33.9558 25.7321 34.3101C25.6366 34.6644 25.8475 35.0306 26.1978 35.1261ZM24.3747 34.6444C24.729 34.744 25.0952 34.533 25.1907 34.1787C25.2863 33.8244 25.0793 33.4622 24.725 33.3626C24.3707 33.2671 24.0045 33.4741 23.9089 33.8284C23.8134 34.1827 24.0204 34.5489 24.3747 34.6444ZM27.5394 37.3593C27.8936 37.4549 28.2599 37.2479 28.3554 36.8975C28.4549 36.5433 28.244 36.181 27.8897 36.0815C27.5354 35.986 27.1731 36.189 27.0736 36.5472C26.9821 36.8975 27.1891 37.2638 27.5394 37.3593ZM25.5968 37.1085C25.951 37.2041 26.3173 36.9971 26.4128 36.6468C26.5123 36.2885 26.3013 35.9262 25.9471 35.8307C25.5928 35.7352 25.2305 35.9382 25.131 36.2965C25.0355 36.6428 25.2425 37.009 25.5968 37.1085ZM23.7417 36.5671C24.096 36.6627 24.4622 36.4557 24.5578 36.1054C24.6573 35.7471 24.4463 35.3849 24.092 35.2893C23.7377 35.1938 23.3755 35.3968 23.276 35.7551C23.1804 36.1054 23.3914 36.4716 23.7417 36.5671ZM23.6462 29.9352C24.0005 30.0308 24.3667 29.8238 24.4622 29.4695C24.5578 29.1152 24.3508 28.7529 23.9965 28.6574C23.6422 28.5619 23.28 28.7649 23.1804 29.1192C23.0849 29.4735 23.2919 29.8397 23.6462 29.9352ZM23.1446 31.85C23.4989 31.9455 23.8651 31.7425 23.9607 31.3882C24.0562 31.0379 23.8492 30.6717 23.4949 30.5721C23.1406 30.4766 22.7784 30.6836 22.6789 31.0379C22.5794 31.3922 22.7903 31.7544 23.1446 31.85ZM22.5674 33.908C22.9217 34.0035 23.2879 33.7965 23.3835 33.4423C23.479 33.088 23.272 32.7217 22.9177 32.6262C22.5634 32.5307 22.1972 32.7377 22.1017 33.092C22.0061 33.4462 22.2131 33.8125 22.5674 33.908ZM13.2286 26.1734C13.4117 26.4919 13.8177 26.5994 14.1322 26.4202C14.4547 26.2371 14.5582 25.8311 14.375 25.5126C14.1919 25.1942 13.7899 25.0827 13.4674 25.2658C13.1569 25.4489 13.0495 25.855 13.2286 26.1734ZM21.5881 28.4106C21.7713 28.7291 22.1773 28.8365 22.4958 28.6534C22.8142 28.4703 22.9217 28.0683 22.7386 27.7498C22.5555 27.4313 22.1534 27.3199 21.835 27.503C21.5165 27.6861 21.409 28.0921 21.5881 28.4106ZM20.2466 26.8661C20.4298 27.1845 20.8358 27.292 21.1542 27.1129C21.4727 26.9298 21.5762 26.5277 21.3931 26.2092C21.21 25.8908 20.8079 25.7793 20.4895 25.9624C20.175 26.1416 20.0635 26.5476 20.2466 26.8661ZM19.2753 25.2061C19.4584 25.5246 19.8645 25.636 20.1829 25.4529C20.5014 25.2698 20.6089 24.8677 20.4258 24.5493C20.2427 24.2308 19.8406 24.1194 19.5221 24.3025C19.2037 24.4816 19.0962 24.8876 19.2753 25.2061ZM19.8088 29.3102C19.6256 28.9918 19.7331 28.5897 20.0516 28.4066C20.37 28.2235 20.7761 28.335 20.9592 28.6494C21.1423 28.9679 21.0308 29.3739 20.7164 29.5571C20.3939 29.7402 19.9919 29.6287 19.8088 29.3102ZM18.5668 27.7737C18.7499 28.0921 19.1519 28.2036 19.4704 28.0205C19.7889 27.8374 19.8963 27.4313 19.7132 27.1129C19.5301 26.7944 19.1241 26.6869 18.8056 26.8661C18.4871 27.0532 18.3836 27.4592 18.5668 27.7737ZM17.6353 26.1296C17.8184 26.4481 18.2204 26.5596 18.5389 26.3764C18.8534 26.1933 18.9648 25.7873 18.7817 25.4688C18.5986 25.1504 18.1926 25.0429 17.8741 25.222C17.5596 25.4091 17.4561 25.8112 17.6353 26.1296ZM17.9577 30.4129C17.7746 30.0945 17.8861 29.6884 18.2005 29.5053C18.519 29.3222 18.925 29.4337 19.1081 29.7521C19.2913 30.0706 19.1798 30.4766 18.8613 30.6597C18.5429 30.8428 18.1368 30.7314 17.9577 30.4129ZM16.7396 28.7928C16.9227 29.1112 17.3288 29.2187 17.6472 29.0396C17.9657 28.8564 18.0771 28.4504 17.89 28.1319C17.7069 27.8135 17.3009 27.706 16.9824 27.8851C16.664 28.0683 16.5565 28.4743 16.7396 28.7928ZM15.836 27.2044C16.0191 27.5229 16.4251 27.6344 16.7436 27.4512C17.062 27.2681 17.1695 26.8621 16.9864 26.5436C16.8033 26.2252 16.3973 26.1177 16.0788 26.2968C15.7643 26.4799 15.6529 26.886 15.836 27.2044ZM16.2102 31.4519C16.3933 31.7703 16.7993 31.8778 17.1138 31.6987C17.4362 31.5156 17.5397 31.1095 17.3566 30.7911C17.1735 30.4726 16.7714 30.3612 16.449 30.5443C16.1385 30.7274 16.027 31.1334 16.2102 31.4519ZM15.012 29.8078C15.1951 30.1263 15.6011 30.2338 15.9156 30.0546C16.238 29.8715 16.3415 29.4655 16.1624 29.147C15.9793 28.8286 15.5772 28.7171 15.2548 28.9002C14.9403 29.0833 14.8328 29.4894 15.012 29.8078ZM14.0327 28.1041C14.2158 28.4225 14.6218 28.53 14.9363 28.3509C15.2588 28.1678 15.3623 27.7617 15.1831 27.4433C15 27.1248 14.598 27.0134 14.2755 27.2005C13.961 27.3796 13.8496 27.7856 14.0327 28.1041ZM18.6543 23.3869C18.8375 23.7054 19.2435 23.8128 19.5619 23.6337C19.8804 23.4506 19.9879 23.0485 19.8048 22.7301C19.6217 22.4116 19.2196 22.3002 18.9011 22.4833C18.5827 22.6624 18.4712 23.0684 18.6543 23.3869ZM16.9665 24.4179C17.1496 24.7364 17.5517 24.8478 17.8701 24.6647C18.1886 24.4816 18.2961 24.0756 18.113 23.7571C17.9298 23.4387 17.5238 23.3312 17.2093 23.5103C16.8909 23.6974 16.7834 24.1034 16.9665 24.4179ZM15.0597 25.3733C15.2428 25.6918 15.6489 25.7992 15.9673 25.6201C16.2858 25.437 16.3933 25.031 16.2102 24.7125C16.027 24.394 15.621 24.2866 15.3026 24.4657C14.9881 24.6488 14.8766 25.0548 15.0597 25.3733ZM18.2921 20.7875C18.1966 21.1418 18.4075 21.508 18.7618 21.5995C19.1161 21.6951 19.4744 21.4801 19.5699 21.1258C19.6654 20.7716 19.4545 20.4093 19.1042 20.3138C18.7499 20.2222 18.3876 20.4332 18.2921 20.7875ZM15.9474 19.6888C15.8519 20.0431 16.0589 20.4053 16.4132 20.5009C16.7675 20.5964 17.1297 20.3854 17.2253 20.0311C17.3208 19.6768 17.1098 19.3146 16.7555 19.2191C16.4012 19.1235 16.039 19.3345 15.9474 19.6888ZM17.1854 18.1681C17.0899 18.5224 17.2969 18.8887 17.6552 18.9802C18.0095 19.0758 18.3717 18.8648 18.4672 18.5105C18.5628 18.1562 18.3478 17.794 17.9975 17.6984C17.6392 17.6029 17.277 17.8139 17.1854 18.1681ZM13.6903 18.817C13.5948 19.1713 13.8058 19.5375 14.1601 19.6291C14.5144 19.7206 14.8766 19.5097 14.9722 19.1594C15.0677 18.8051 14.8567 18.4388 14.5024 18.3473C14.1481 18.2517 13.7859 18.4627 13.6903 18.817ZM15.1831 16.7629C15.0876 17.1172 15.2986 17.4835 15.6529 17.575C16.0071 17.6706 16.3694 17.4596 16.4649 17.1053C16.5605 16.751 16.3495 16.3888 15.9952 16.2932C15.6409 16.1977 15.2787 16.4087 15.1831 16.7629ZM34.7564 3.03336C34.4022 2.9418 34.0399 3.15278 33.9484 3.50706C33.8568 3.86135 34.0718 4.2236 34.4261 4.31516C34.7803 4.40671 35.1426 4.19573 35.2341 3.83747C35.3257 3.48716 35.1107 3.12491 34.7564 3.03336ZM32.4078 9.59362C32.0535 9.50207 31.6913 9.71703 31.5997 10.0713C31.5082 10.4256 31.7231 10.7839 32.0774 10.8754C32.4317 10.967 32.7939 10.756 32.8855 10.4017C32.9731 10.0514 32.7621 9.68518 32.4078 9.59362ZM30.8115 6.35728C30.4572 6.26572 30.095 6.47272 30.0034 6.83099C29.9119 7.18527 30.1268 7.54752 30.4811 7.63908C30.8354 7.73063 31.1977 7.51567 31.2892 7.16139C31.3808 6.8071 31.1658 6.44883 30.8115 6.35728ZM31.9859 3.93698C31.6316 3.84543 31.2693 4.05641 31.1778 4.41069C31.0862 4.76498 31.2972 5.12723 31.6554 5.21878C32.0097 5.31034 32.372 5.09538 32.4635 4.7411C32.5551 4.39079 32.3401 4.02854 31.9859 3.93698ZM29.9159 1.77942C29.5616 1.68786 29.1993 1.90282 29.1078 2.25313C29.0162 2.6114 29.2312 2.96966 29.5855 3.06122C29.9397 3.15278 30.302 2.93782 30.3936 2.58353C30.4851 2.22925 30.2702 1.87098 29.9159 1.77942ZM34.4858 11.4407C34.1315 11.3491 33.7692 11.5641 33.6777 11.9184C33.5861 12.2727 33.8011 12.6309 34.1554 12.7225C34.5096 12.814 34.8719 12.6031 34.9635 12.2488C35.051 11.8945 34.84 11.5322 34.4858 11.4407ZM33.2995 7.47985C32.9452 7.38829 32.583 7.59927 32.4914 7.95356C32.3999 8.30784 32.6148 8.67009 32.9691 8.76165C33.3234 8.8532 33.6856 8.63824 33.7772 8.28396C33.8687 7.92967 33.6538 7.5714 33.2995 7.47985ZM34.4261 5.50938C34.0718 5.41782 33.7095 5.63278 33.618 5.98707C33.5264 6.34135 33.7414 6.7036 34.0956 6.79516C34.4499 6.88672 34.8122 6.67176 34.9037 6.31747C34.9953 5.96318 34.7843 5.60492 34.4261 5.50938ZM36.4602 12.9574C36.2731 12.6429 35.8631 12.5394 35.5486 12.7265C35.2341 12.9136 35.1346 13.3196 35.3217 13.6341C35.5088 13.9486 35.9148 14.056 36.2293 13.8689C36.5438 13.6818 36.6473 13.2718 36.4602 12.9574ZM37.746 14.3984C37.9331 14.7129 37.8296 15.1229 37.5151 15.306C37.2006 15.4931 36.7946 15.3896 36.6075 15.0711C36.4204 14.7566 36.5199 14.3506 36.8344 14.1635C37.1489 13.9804 37.5589 14.0839 37.746 14.3984ZM38.7452 16.0623C38.5581 15.7479 38.148 15.6444 37.8336 15.8314C37.5191 16.0185 37.4196 16.4246 37.6067 16.7391C37.7938 17.0535 38.1998 17.161 38.5143 16.9739C38.8288 16.7868 38.9323 16.3768 38.7452 16.0623ZM38.164 11.998C37.9769 11.6835 37.5708 11.576 37.2564 11.7631C36.9419 11.9502 36.8384 12.3563 37.0255 12.6747C37.2126 12.9892 37.6186 13.0927 37.9331 12.9056C38.2476 12.7185 38.3511 12.3125 38.164 11.998ZM39.3502 13.4311C39.5373 13.7455 39.4378 14.1516 39.1193 14.3387C38.8049 14.5258 38.3988 14.4223 38.2117 14.1078C38.0246 13.7933 38.1281 13.3833 38.4426 13.1962C38.7571 13.0091 39.1631 13.1126 39.3502 13.4311ZM40.3454 15.103C40.1583 14.7885 39.7523 14.681 39.4378 14.8681C39.1233 15.0552 39.0198 15.4612 39.2069 15.7797C39.394 16.0942 39.804 16.1977 40.1145 16.0106C40.433 15.8195 40.5325 15.4175 40.3454 15.103ZM39.9871 10.8515C40.1742 11.166 40.0707 11.576 39.7563 11.7631C39.4418 11.9502 39.0357 11.8467 38.8487 11.5322C38.6616 11.2178 38.7651 10.8078 39.0795 10.6207C39.394 10.4336 39.8001 10.5371 39.9871 10.8515ZM41.1137 12.2926C40.9266 11.9781 40.5206 11.8746 40.2061 12.0617C39.8916 12.2488 39.7881 12.6548 39.9752 12.9733C40.1623 13.2878 40.5683 13.3913 40.8828 13.2042C41.1973 13.0171 41.3008 12.607 41.1137 12.2926ZM42.093 13.8769C41.9059 13.5624 41.4958 13.4589 41.1814 13.646C40.8669 13.8331 40.7634 14.2392 40.9505 14.5576C41.1376 14.8721 41.5436 14.9756 41.8581 14.7885C42.1766 14.5974 42.2801 14.1914 42.093 13.8769ZM41.5834 9.49012C41.3963 9.17564 40.9863 9.07215 40.6758 9.25526C40.3574 9.44235 40.2578 9.84839 40.4449 10.1669C40.632 10.4813 41.0381 10.5888 41.3565 10.3977C41.663 10.2146 41.7705 9.8046 41.5834 9.49012ZM42.7378 11.0745C42.5507 10.76 42.1407 10.6565 41.8302 10.8396C41.5118 11.0267 41.4123 11.4327 41.5994 11.7512C41.7864 12.0657 42.1925 12.1731 42.5109 11.9821C42.8175 11.799 42.9249 11.3929 42.7378 11.0745ZM43.7649 12.7504C43.5778 12.4359 43.1678 12.3324 42.8573 12.5155C42.5388 12.7026 42.4393 13.1086 42.6264 13.4271C42.8135 13.7416 43.2155 13.849 43.534 13.658C43.8485 13.4748 43.952 13.0688 43.7649 12.7504ZM39.3741 17.9014C39.187 17.587 38.777 17.4835 38.4625 17.6706C38.148 17.8576 38.0445 18.2637 38.2316 18.5782C38.4187 18.8926 38.8248 19.0001 39.1393 18.813C39.4577 18.622 39.5612 18.2159 39.3741 17.9014Z" fill="white"/>
<path fill-rule="evenodd" clip-rule="evenodd" d="M4.74555 25.863C4.93265 26.1775 5.33868 26.2849 5.65316 26.0978C5.96764 25.9107 6.07114 25.5047 5.88404 25.1863C5.69695 24.8718 5.29091 24.7683 4.97643 24.9554C4.66196 25.1425 4.56244 25.5485 4.74555 25.863ZM2.90645 27.1289C3.09354 27.4433 3.50356 27.5468 3.81804 27.3597C4.13252 27.1726 4.23602 26.7666 4.04892 26.4481C3.86183 26.1337 3.45579 26.0302 3.14131 26.2173C2.82683 26.4083 2.71935 26.8144 2.90645 27.1289ZM9.50254 32.4909C9.68964 32.8054 10.0957 32.9129 10.4101 32.7258C10.7246 32.5387 10.8281 32.1326 10.641 31.8142C10.4539 31.4997 10.0479 31.3962 9.73342 31.5833C9.41895 31.7704 9.31545 32.1764 9.50254 32.4909ZM4.24398 23.4944C4.15242 23.8487 4.35942 24.211 4.71371 24.3065C5.06799 24.3981 5.43024 24.1871 5.52578 23.8328C5.61733 23.4785 5.40635 23.1163 5.05207 23.0207C4.69778 22.9292 4.33553 23.1441 4.24398 23.4944ZM6.93894 14.1715C6.62048 14.3507 6.50504 14.7527 6.68417 15.0752C6.86331 15.3936 7.26934 15.5051 7.5878 15.3259C7.90626 15.1468 8.01772 14.7408 7.83859 14.4223C7.65946 14.0999 7.2574 13.9924 6.93894 14.1715ZM15.4179 9.52998C15.0636 9.43046 14.7014 9.63746 14.6019 9.99175C14.5063 10.346 14.7133 10.7123 15.0676 10.8078C15.4219 10.9033 15.7881 10.6963 15.8837 10.3421C15.9832 9.98777 15.7722 9.62552 15.4179 9.52998ZM24.6055 12.1851C24.4224 11.8667 24.0203 11.7552 23.7019 11.9383C23.3874 12.1214 23.2759 12.5275 23.459 12.8459C23.6421 13.1644 24.0482 13.2719 24.3666 13.0888C24.6811 12.9057 24.7846 12.5036 24.6055 12.1851ZM29.259 20.0909C29.0759 19.7724 28.6738 19.661 28.3553 19.8441C28.0369 20.0272 27.9294 20.4332 28.1125 20.7517C28.2956 21.0702 28.7017 21.1776 29.0201 20.9985C29.3346 20.8114 29.4381 20.4094 29.259 20.0909ZM1.09123 27.925C1.27832 28.2395 1.68834 28.343 1.99884 28.1599C2.3173 27.9728 2.41682 27.5667 2.22972 27.2483C2.04263 26.9338 1.63659 26.8263 1.31813 27.0174C1.01161 27.2005 0.904133 27.6105 1.09123 27.925ZM0.179637 23.4705C0.231387 23.8328 0.56975 24.0836 0.928017 24.0318C1.29425 23.9761 1.54105 23.6417 1.4893 23.2795C1.43755 22.9172 1.10317 22.6664 0.736942 22.7182C0.378675 22.7699 0.127888 23.1083 0.179637 23.4705ZM0.362752 25.5286C0.414501 25.8908 0.752865 26.1416 1.11113 26.0899C1.47736 26.0381 1.72417 25.6998 1.67242 25.3375C1.62067 24.9753 1.28628 24.7245 0.920056 24.7762C0.561789 24.828 0.311002 25.1663 0.362752 25.5286ZM2.09039 23.2397C2.14214 23.6019 2.48051 23.8527 2.84276 23.801C3.205 23.7492 3.45579 23.4108 3.40404 23.0486C3.35229 22.6863 3.01393 22.4356 2.65168 22.4873C2.28943 22.5391 2.03865 22.8774 2.09039 23.2397ZM2.32924 25.0429C2.38099 25.4052 2.71935 25.656 3.0816 25.6042C3.44385 25.5525 3.69463 25.2141 3.64288 24.8519C3.59114 24.4896 3.25277 24.2388 2.89052 24.2906C2.52828 24.3463 2.27749 24.6807 2.32924 25.0429ZM6.29008 35.3491C6.58465 35.568 6.99865 35.5083 7.21759 35.2177C7.44051 34.9232 7.37682 34.5092 7.08623 34.2902C6.79165 34.0713 6.37766 34.127 6.15872 34.4216C5.93579 34.7122 5.9955 35.1262 6.29008 35.3491ZM8.30036 37.1404C8.59493 37.3594 9.00893 37.2997 9.22787 37.0091C9.45079 36.7145 9.3871 36.3005 9.0965 36.0815C8.80193 35.8626 8.38793 35.9223 8.16899 36.2129C7.94209 36.5075 8.00578 36.9215 8.30036 37.1404ZM7.22954 33.2393C7.52411 33.4582 7.93811 33.3985 8.15705 33.1079C8.37599 32.8134 8.31628 32.3994 8.02568 32.1804C7.73111 31.9615 7.31711 32.0212 7.09817 32.3118C6.87923 32.6024 6.93894 33.0204 7.22954 33.2393ZM9.57021 34.8037C9.86479 35.0227 10.2828 34.9669 10.5017 34.6724C10.7206 34.3818 10.6609 33.9638 10.3703 33.7448C10.0758 33.5259 9.66177 33.5856 9.44283 33.8762C9.21991 34.1708 9.27962 34.5848 9.57021 34.8037ZM33.4029 21.6394C33.3552 21.2772 33.0248 21.0184 32.6625 21.0662C32.3003 21.1139 32.0415 21.4483 32.0893 21.8106C32.1371 22.1728 32.4675 22.4316 32.8337 22.3838C33.1959 22.34 33.4507 22.0056 33.4029 21.6394ZM33.18 18.8449C33.1322 18.4827 32.7979 18.2239 32.4396 18.2717C32.0734 18.3195 31.8186 18.6538 31.8664 19.0161C31.9141 19.3783 32.2445 19.6371 32.6108 19.5893C32.969 19.5416 33.2278 19.2112 33.18 18.8449ZM31.3807 21.2055C31.3329 20.8433 30.9986 20.5845 30.6363 20.6323C30.2741 20.68 30.0153 21.0144 30.0631 21.3767C30.1109 21.7389 30.4452 21.9937 30.8075 21.9499C31.1697 21.9061 31.4285 21.5717 31.3807 21.2055ZM31.2215 19.3067C31.1737 18.9444 30.8393 18.6857 30.4771 18.7335C30.1148 18.7812 29.8601 19.1156 29.9078 19.4779C29.9556 19.8401 30.29 20.0989 30.6522 20.0511C31.0145 20.0033 31.2692 19.6729 31.2215 19.3067ZM27.7622 9.43046C27.4716 9.20754 27.0536 9.25929 26.8307 9.54591C26.6038 9.84048 26.6595 10.2505 26.9501 10.4774C27.2407 10.7003 27.6547 10.6526 27.8816 10.358C28.1046 10.0753 28.0528 9.65737 27.7622 9.43046ZM26.1182 8.1407C25.8276 7.91778 25.4096 7.96953 25.1867 8.25614C24.9598 8.54674 25.0155 8.96472 25.3061 9.18764C25.5967 9.41056 26.0107 9.36279 26.2376 9.06822C26.4605 8.7816 26.4088 8.36363 26.1182 8.1407ZM26.3371 11.1541C26.0465 10.9312 25.6325 10.983 25.4056 11.2735C25.1827 11.5641 25.2344 11.9821 25.525 12.205C25.8156 12.428 26.2296 12.3762 26.4565 12.0856C26.6794 11.795 26.6277 11.377 26.3371 11.1541ZM25.0075 9.82854C25.2981 10.0554 25.3499 10.4694 25.127 10.76C24.904 11.0506 24.4861 11.1024 24.1955 10.8795C23.9049 10.6565 23.8531 10.2386 24.076 9.94796C24.3029 9.65737 24.7209 9.60562 25.0075 9.82854ZM15.609 5.53332C15.2468 5.5771 14.988 5.91149 15.0318 6.26975C15.0756 6.63598 15.41 6.89075 15.7722 6.84696C16.1345 6.80317 16.3932 6.47277 16.3494 6.10654C16.3056 5.74828 15.9712 5.48953 15.609 5.53332ZM13.6863 5.77216C13.3201 5.81595 13.0653 6.15033 13.1091 6.5086C13.1529 6.87483 13.4873 7.12959 13.8495 7.08581C14.2118 7.04202 14.4705 6.71162 14.4267 6.34539C14.3829 5.98712 14.0486 5.72439 13.6863 5.77216ZM15.7443 7.32465C15.3781 7.36844 15.1234 7.70282 15.1671 8.06507C15.2109 8.42732 15.5453 8.68606 15.9076 8.64228C16.2698 8.59849 16.5286 8.26411 16.4848 7.90186C16.441 7.53961 16.1106 7.27688 15.7443 7.32465ZM13.9052 7.59534C13.543 7.63913 13.2842 7.97351 13.328 8.33576C13.3718 8.69801 13.7062 8.95676 14.0685 8.91297C14.4307 8.86918 14.6934 8.5348 14.6457 8.17255C14.6019 7.80632 14.2715 7.54757 13.9052 7.59534ZM4.18427 10.8994C3.96134 11.19 4.02106 11.6079 4.31165 11.8269C4.60623 12.0498 5.02022 11.9901 5.24314 11.6995C5.46607 11.4089 5.41034 10.9949 5.11178 10.768C4.82119 10.5491 4.40321 10.6088 4.18427 10.8994ZM2.75518 12.8141C2.53624 13.1047 2.59197 13.5227 2.88256 13.7416C3.17714 13.9645 3.59114 13.9048 3.81406 13.6102C4.033 13.3197 3.98125 12.9057 3.68667 12.6827C3.39608 12.4638 2.9781 12.5195 2.75518 12.8141ZM5.50587 12.5434C5.28295 12.834 5.34266 13.252 5.63326 13.4749C5.92385 13.6938 6.34183 13.6381 6.56475 13.3475C6.78369 13.0569 6.72796 12.6389 6.43737 12.416C6.14279 12.1931 5.72481 12.2528 5.50587 12.5434ZM4.40321 14.0242C4.62215 13.7336 5.04013 13.6739 5.33072 13.8969C5.62131 14.1198 5.68103 14.5338 5.46209 14.8284C5.23916 15.1229 4.82517 15.1787 4.53059 14.9597C4.24 14.7328 4.18427 14.3188 4.40321 14.0242ZM1.42959 15.0393C1.33803 15.3936 1.54901 15.7559 1.89932 15.8514C2.25759 15.943 2.61585 15.732 2.71139 15.3777C2.80295 15.0234 2.59595 14.6612 2.23768 14.5656C1.88738 14.4741 1.52115 14.685 1.42959 15.0393ZM6.04725 22.2763C5.9557 22.6306 6.16668 22.9929 6.52096 23.0884C6.87525 23.18 7.23352 22.969 7.32905 22.6147C7.42061 22.2604 7.21361 21.8982 6.85933 21.8066C6.50504 21.7071 6.13881 21.922 6.04725 22.2763ZM6.15872 20.3656C6.06716 20.7199 6.27814 21.0861 6.63242 21.1776C6.98671 21.2692 7.34498 21.0582 7.44052 20.7039C7.53207 20.3496 7.32507 19.9874 6.97079 19.8958C6.61252 19.8003 6.25027 20.0113 6.15872 20.3656ZM6.60456 18.4668C6.513 18.821 6.72398 19.1833 7.07827 19.2788C7.43255 19.3704 7.79082 19.1594 7.88636 18.8051C7.97792 18.4508 7.77092 18.0886 7.41663 17.997C7.05836 17.9015 6.69612 18.1125 6.60456 18.4668ZM4.15242 21.7071C4.05688 22.0614 4.26786 22.4236 4.62215 22.5152C4.97643 22.6067 5.33868 22.3957 5.43422 22.0415C5.52578 21.6872 5.3148 21.3249 4.96051 21.2294C4.60224 21.1378 4.24398 21.3528 4.15242 21.7071ZM4.29573 19.8003C4.20417 20.1546 4.41117 20.5168 4.76545 20.6084C5.11974 20.7 5.48199 20.489 5.57753 20.1347C5.66908 19.7804 5.4581 19.4182 5.10382 19.3266C4.74953 19.2311 4.39126 19.446 4.29573 19.8003ZM4.78934 17.9254C4.6938 18.2797 4.90478 18.6419 5.25907 18.7374C5.61335 18.829 5.9756 18.618 6.06716 18.2637C6.15872 17.9094 5.94774 17.5472 5.59345 17.4517C5.23916 17.3561 4.8809 17.5711 4.78934 17.9254ZM2.07447 21.1498C1.98291 21.5041 2.19389 21.8663 2.54818 21.9618C2.90247 22.0534 3.26471 21.8424 3.36025 21.4881C3.45181 21.1339 3.24083 20.7716 2.88654 20.68C2.52828 20.5845 2.16603 20.7995 2.07447 21.1498ZM2.28943 19.2947C2.19787 19.649 2.40885 20.0113 2.76314 20.1068C3.11743 20.1984 3.47967 19.9874 3.57123 19.6331C3.66279 19.2788 3.45181 18.9166 3.09752 18.825C2.74324 18.7255 2.38099 18.9405 2.28943 19.2947ZM2.7512 17.5512C2.65964 17.9055 2.87062 18.2677 3.22491 18.3633C3.57919 18.4548 3.94144 18.2438 4.03698 17.8895C4.12854 17.5353 3.91756 17.173 3.56327 17.0775C3.205 16.9859 2.84276 17.1969 2.7512 17.5512ZM0.0204077 21.0821C-0.0711494 21.4364 0.13983 21.7986 0.490136 21.8902C0.848402 21.9857 1.20667 21.7708 1.30221 21.4165C1.39376 21.0622 1.18677 20.7 0.828499 20.6084C0.478193 20.5168 0.115946 20.7278 0.0204077 21.0821ZM0.271195 19.032C0.179637 19.3863 0.390617 19.7486 0.740922 19.8401C1.09919 19.9356 1.45746 19.7207 1.55299 19.3664C1.64455 19.0121 1.43755 18.6499 1.07929 18.5543C0.72898 18.4668 0.362752 18.6777 0.271195 19.032ZM0.796653 16.9262C0.705096 17.2805 0.916075 17.6427 1.26638 17.7383C1.62465 17.8338 1.98291 17.6189 2.07845 17.2646C2.17001 16.9103 1.96301 16.548 1.60474 16.4565C1.25444 16.3609 0.88821 16.5719 0.796653 16.9262ZM7.52809 16.6038C7.43653 16.9581 7.64751 17.3203 8.0018 17.4158C8.35609 17.5074 8.71435 17.2964 8.80989 16.9421C8.90145 16.5878 8.69445 16.2256 8.34016 16.134C7.98588 16.0385 7.61965 16.2495 7.52809 16.6038ZM5.56558 16.2455C5.47403 16.5998 5.68103 16.962 6.03531 17.0576C6.3896 17.1491 6.75185 16.9381 6.84738 16.5839C6.93894 16.2296 6.72796 15.8673 6.37368 15.7758C6.01541 15.6763 5.65714 15.8912 5.56558 16.2455ZM3.43191 15.7758C3.34035 16.1301 3.55133 16.4963 3.90561 16.5878C4.2599 16.6794 4.62215 16.4684 4.71371 16.1141C4.80526 15.7598 4.59428 15.3976 4.24 15.3021C3.88969 15.2105 3.52744 15.4215 3.43191 15.7758ZM11.0869 6.22995C10.7684 6.40908 10.657 6.81512 10.8321 7.13357C11.0152 7.45602 11.4173 7.56349 11.7357 7.38436C12.0542 7.20523 12.1696 6.80317 11.9865 6.48073C11.8114 6.16227 11.4053 6.05081 11.0869 6.22995ZM9.06068 14.5696C8.74222 14.7527 8.62678 15.1548 8.80989 15.4732C8.98902 15.7917 9.39506 15.9032 9.71352 15.72C10.032 15.5409 10.1474 15.1349 9.96431 14.8164C9.78517 14.5019 9.37914 14.3865 9.06068 14.5696ZM10.5893 13.2361C10.2708 13.4152 10.1554 13.8212 10.3385 14.1397C10.5176 14.4581 10.9237 14.5696 11.2421 14.3865C11.5606 14.2074 11.676 13.8053 11.4969 13.4868C11.3098 13.1724 10.9077 13.0569 10.5893 13.2361ZM12.2771 12.2847C11.9587 12.4638 11.8432 12.8698 12.0263 13.1883C12.2055 13.5067 12.6115 13.6182 12.93 13.4351C13.2484 13.256 13.3639 12.8539 13.1847 12.5354C13.0016 12.217 12.5956 12.1015 12.2771 12.2847ZM8.18889 12.7783C8.50735 12.5991 8.90941 12.7066 9.09252 13.0251C9.27166 13.3435 9.1602 13.7496 8.84174 13.9287C8.52328 14.1078 8.11724 13.9964 7.93811 13.6779C7.75499 13.3595 7.87044 12.9574 8.18889 12.7783ZM9.65779 11.584C9.33933 11.7632 9.22389 12.1652 9.40302 12.4837C9.58216 12.8022 9.98819 12.9136 10.3067 12.7345C10.6251 12.5553 10.7366 12.1493 10.5574 11.8309C10.3783 11.5124 9.97625 11.4049 9.65779 11.584ZM11.3496 10.6088C11.0311 10.7879 10.9157 11.19 11.0948 11.5084C11.274 11.8269 11.68 11.9423 11.9985 11.7592C12.3169 11.5801 12.4284 11.174 12.2493 10.8556C12.0701 10.5371 11.6641 10.4296 11.3496 10.6088ZM7.09817 10.9591C7.41663 10.7799 7.82267 10.8914 8.0018 11.2099C8.18093 11.5283 8.06947 11.9344 7.75101 12.1135C7.43255 12.2966 7.02652 12.1812 6.8434 11.8627C6.66825 11.5442 6.77971 11.1382 7.09817 10.9591ZM8.61882 9.76883C8.30036 9.94796 8.18491 10.354 8.36803 10.6725C8.54716 10.9909 8.9532 11.1024 9.27166 10.9232C9.59012 10.7441 9.70158 10.3381 9.52244 10.0196C9.34331 9.70116 8.94126 9.58969 8.61882 9.76883ZM10.2987 8.81345C9.98023 8.99258 9.86479 9.39862 10.0479 9.71708C10.227 10.0355 10.6331 10.147 10.9515 9.96787C11.27 9.78873 11.3815 9.3827 11.2023 9.06424C11.0232 8.74578 10.6171 8.63432 10.2987 8.81345ZM6.02337 9.08812C5.70491 9.26725 5.58947 9.67329 5.7686 9.99175C5.95172 10.3142 6.35377 10.4217 6.67223 10.2425C6.99069 10.0634 7.10613 9.66135 6.92302 9.33891C6.74787 9.02443 6.34183 8.90899 6.02337 9.08812ZM7.61567 7.98147C7.29721 8.16061 7.18177 8.57062 7.3609 8.8851C7.54401 9.20754 7.94607 9.31502 8.26453 9.13589C8.58299 8.95676 8.69843 8.5547 8.51532 8.23226C8.34016 7.9138 7.93413 7.79836 7.61567 7.98147ZM9.3035 7.02609C8.98504 7.20523 8.8696 7.61126 9.04874 7.92574C9.23185 8.24818 9.6339 8.35566 9.95236 8.17653C10.2708 7.9974 10.3863 7.59534 10.2032 7.2729C10.028 6.95842 9.62196 6.84696 9.3035 7.02609ZM14.1282 11.6239C13.8097 11.803 13.6982 12.209 13.8774 12.5275C14.0565 12.8459 14.4625 12.9574 14.781 12.7743C15.0995 12.5952 15.2149 12.1931 15.0358 11.8746C14.8527 11.5562 14.4466 11.4447 14.1282 11.6239ZM12.9817 9.95194C12.6633 10.1311 12.5478 10.5331 12.7269 10.8516C12.9061 11.17 13.3121 11.2815 13.6346 11.1024C13.953 10.9232 14.0645 10.5172 13.8853 10.1987C13.7022 9.88029 13.3002 9.77281 12.9817 9.95194ZM12.0024 8.12478C11.684 8.30391 11.5685 8.70995 11.7517 9.02841C11.9308 9.34687 12.3368 9.45833 12.6553 9.2792C12.9737 9.10006 13.0852 8.69403 12.9061 8.37557C12.7269 8.05711 12.3209 7.94565 12.0024 8.12478ZM23.8531 6.88677C23.4988 6.79123 23.1326 6.99823 23.0371 7.34853C22.9376 7.7068 23.1485 8.06905 23.5028 8.16459C23.8571 8.26013 24.2194 8.05711 24.3189 7.69884C24.4144 7.34854 24.2074 6.98231 23.8531 6.88677ZM16.652 11.3213C16.2977 11.2258 15.9314 11.4328 15.8359 11.7871C15.7404 12.1414 15.9474 12.5036 16.3017 12.5991C16.6559 12.6947 17.0182 12.4917 17.1177 12.1374C17.2132 11.7871 17.0062 11.4169 16.652 11.3213ZM18.5747 11.4646C18.2204 11.3651 17.8541 11.5761 17.7586 11.9304C17.6631 12.2847 17.8701 12.6469 18.2244 12.7424C18.5786 12.838 18.9409 12.635 19.0404 12.2807C19.1359 11.9264 18.9289 11.5602 18.5747 11.4646ZM20.3899 11.9105C20.0356 11.8149 19.6694 12.0219 19.5738 12.3762C19.4783 12.7305 19.6853 13.0927 20.0396 13.1883C20.3939 13.2878 20.7561 13.0808 20.8556 12.7265C20.9512 12.3722 20.7442 12.006 20.3899 11.9105ZM17.2331 9.42648C16.8789 9.33095 16.5166 9.53396 16.4171 9.88825C16.3216 10.2425 16.5286 10.6088 16.8828 10.7043C17.2371 10.7998 17.6034 10.5928 17.6989 10.2386C17.7944 9.88427 17.5835 9.52202 17.2331 9.42648ZM19.0563 9.61756C18.702 9.51804 18.3358 9.72504 18.2403 10.0793C18.1447 10.4336 18.3517 10.7998 18.706 10.8954C19.0603 10.9949 19.4226 10.7839 19.5221 10.4296C19.6176 10.0793 19.4066 9.71708 19.0563 9.61756ZM20.9273 10.1231C20.573 10.0276 20.2107 10.2306 20.1112 10.5849C20.0157 10.9392 20.2227 11.3054 20.577 11.4009C20.9313 11.4965 21.2975 11.2895 21.393 10.9352C21.4925 10.5849 21.2816 10.2226 20.9273 10.1231ZM17.7666 7.36048C17.4123 7.26494 17.0461 7.47194 16.9505 7.82622C16.855 8.18051 17.062 8.54674 17.4163 8.64228C17.7705 8.73781 18.1368 8.53082 18.2323 8.17653C18.3278 7.82224 18.1209 7.45601 17.7666 7.36048ZM19.5858 7.5834C19.2315 7.48786 18.8653 7.69486 18.7697 8.04915C18.6742 8.40343 18.8812 8.76568 19.2355 8.8652C19.5897 8.96074 19.956 8.75374 20.0515 8.39945C20.151 8.04517 19.9401 7.67894 19.5858 7.5834ZM21.4129 8.06507C21.0586 7.96555 20.6924 8.17653 20.5969 8.53082C20.5013 8.8851 20.7083 9.24735 21.0626 9.34687C21.4169 9.44241 21.7831 9.23541 21.8787 8.88112C21.9742 8.52684 21.7672 8.16061 21.4129 8.06507ZM18.2443 5.3502C17.89 5.25466 17.5237 5.46166 17.4282 5.81197C17.3287 6.17023 17.5397 6.53248 17.8939 6.62802C18.2482 6.72356 18.6105 6.52054 18.71 6.16227C18.8055 5.81197 18.5985 5.44574 18.2443 5.3502ZM20.1908 5.60497C19.8366 5.50943 19.4703 5.71643 19.3748 6.06674C19.2753 6.425 19.4862 6.78327 19.8405 6.88279C20.1948 6.98231 20.5571 6.77531 20.6566 6.41704C20.7521 6.06674 20.5451 5.70051 20.1908 5.60497ZM22.0419 6.14237C21.6876 6.04683 21.3214 6.25383 21.2258 6.60414C21.1263 6.9624 21.3373 7.32465 21.6916 7.42019C22.0459 7.51573 22.4081 7.31271 22.5076 6.95444C22.6032 6.60812 22.3962 6.24189 22.0419 6.14237ZM22.1414 12.7743C21.7871 12.6788 21.4209 12.8858 21.3254 13.24C21.2298 13.5943 21.4368 13.9566 21.7911 14.0521C22.1414 14.1476 22.5076 13.9446 22.6072 13.5903C22.7027 13.24 22.4957 12.8738 22.1414 12.7743ZM22.643 10.8596C22.2887 10.764 21.9225 10.967 21.8269 11.3213C21.7314 11.6716 21.9384 12.0418 22.2927 12.1374C22.647 12.2329 23.0092 12.0259 23.1087 11.6716C23.2043 11.3173 22.9973 10.9591 22.643 10.8596ZM23.2202 8.80549C22.8659 8.70597 22.4997 8.91695 22.4041 9.27124C22.3086 9.62552 22.5156 9.99175 22.8699 10.0873C23.2242 10.1828 23.5904 9.97583 23.6859 9.62154C23.7815 9.26725 23.5745 8.90103 23.2202 8.80549ZM32.555 16.5401C32.3719 16.2216 31.9659 16.1102 31.6514 16.2933C31.329 16.4764 31.2255 16.8824 31.4046 17.2009C31.5877 17.5193 31.9898 17.6308 32.3122 17.4437C32.6307 17.2646 32.7381 16.8585 32.555 16.5401ZM24.1955 14.3029C24.0124 13.9844 23.6063 13.877 23.2879 14.0561C22.9694 14.2392 22.8619 14.6413 23.045 14.9597C23.2281 15.2782 23.6302 15.3896 23.9487 15.2065C24.2671 15.0274 24.3786 14.6174 24.1955 14.3029ZM25.541 15.8434C25.3578 15.525 24.9518 15.4175 24.6333 15.6006C24.3149 15.7837 24.2074 16.1858 24.3905 16.5042C24.5736 16.8227 24.9757 16.9342 25.2942 16.7511C25.6126 16.5679 25.7241 16.1619 25.541 15.8434ZM26.5083 17.5074C26.3252 17.1889 25.9191 17.0775 25.6007 17.2606C25.2822 17.4437 25.1747 17.8458 25.3578 18.1642C25.541 18.4827 25.943 18.5941 26.2615 18.411C26.5799 18.2319 26.6914 17.8219 26.5083 17.5074ZM25.9788 13.3993C26.162 13.7177 26.0545 14.1198 25.736 14.3029C25.4176 14.486 25.0115 14.3745 24.8284 14.0601C24.6453 13.7416 24.7568 13.3356 25.0712 13.1525C25.3937 12.9693 25.7957 13.0808 25.9788 13.3993ZM27.2208 14.9358C27.0377 14.6174 26.6357 14.5059 26.3172 14.689C25.9987 14.8682 25.8913 15.2782 26.0744 15.5966C26.2575 15.9151 26.6635 16.0226 26.982 15.8434C27.2965 15.6563 27.4039 15.2543 27.2208 14.9358ZM28.1483 16.5799C27.9652 16.2614 27.5632 16.15 27.2447 16.3331C26.9263 16.5162 26.8188 16.9222 27.0019 17.2407C27.185 17.5591 27.591 17.6666 27.9095 17.4835C28.224 17.3044 28.3315 16.8983 28.1483 16.5799ZM27.8299 12.2966C28.013 12.6151 27.9015 13.0211 27.5831 13.2042C27.2646 13.3873 26.8586 13.2759 26.6755 12.9574C26.4924 12.6389 26.6038 12.2329 26.9223 12.0498C27.2407 11.8667 27.6468 11.9781 27.8299 12.2966ZM29.048 13.9168C28.8649 13.5983 28.4588 13.4908 28.1404 13.67C27.8219 13.8531 27.7144 14.2591 27.8976 14.5776C28.0807 14.896 28.4867 15.0035 28.8012 14.8244C29.1196 14.6413 29.2311 14.2352 29.048 13.9168ZM29.9516 15.5051C29.7685 15.1866 29.3625 15.0791 29.044 15.2583C28.7295 15.4414 28.6181 15.8474 28.8012 16.1659C28.9843 16.4843 29.3903 16.5918 29.7088 16.4087C30.0233 16.2296 30.1308 15.8235 29.9516 15.5051ZM29.5774 11.2616C29.3943 10.9431 28.9883 10.8357 28.6738 11.0148C28.3514 11.2019 28.2479 11.604 28.431 11.9224C28.6141 12.2409 29.0161 12.3523 29.3346 12.1692C29.6491 11.9861 29.7605 11.5761 29.5774 11.2616ZM30.7717 12.9017C30.5885 12.5832 30.1825 12.4757 29.868 12.6549C29.5456 12.838 29.4421 13.244 29.6252 13.5625C29.8083 13.8809 30.2104 13.9924 30.5328 13.8093C30.8473 13.6262 30.9548 13.2201 30.7717 12.9017ZM31.7549 14.6054C31.5718 14.287 31.1657 14.1795 30.8513 14.3586C30.5288 14.5417 30.4253 14.9478 30.6084 15.2662C30.7916 15.5847 31.1936 15.6962 31.5161 15.5091C31.8266 15.3299 31.938 14.9239 31.7549 14.6054ZM27.1333 19.3266C26.9501 19.0081 26.5441 18.9007 26.2256 19.0798C25.9072 19.2629 25.7997 19.665 25.9828 19.9874C26.1659 20.3059 26.568 20.4173 26.8864 20.2342C27.2049 20.0511 27.3124 19.6411 27.1333 19.3266ZM28.8211 18.2916C28.638 17.9731 28.2359 17.8617 27.9175 18.0448C27.599 18.2279 27.4915 18.6339 27.6707 18.9524C27.8538 19.2709 28.2598 19.3783 28.5783 19.1992C28.8967 19.0121 29.0042 18.6101 28.8211 18.2916ZM30.7279 17.3402C30.5448 17.0217 30.1387 16.9103 29.8203 17.0934C29.5018 17.2765 29.3943 17.6825 29.5735 18.001C29.7566 18.3195 30.1626 18.4269 30.4811 18.2478C30.7995 18.0607 30.907 17.6587 30.7279 17.3402ZM27.4955 21.926C27.591 21.5717 27.3801 21.2055 27.0258 21.1139C26.6715 21.0184 26.3132 21.2294 26.2177 21.5877C26.1221 21.9419 26.3291 22.3042 26.6834 22.3997C27.0377 22.4873 27.4 22.2763 27.4955 21.926ZM29.8402 23.0247C29.9357 22.6704 29.7287 22.3082 29.3704 22.2126C29.0161 22.1171 28.6539 22.3281 28.5584 22.6824C28.4628 23.0366 28.6738 23.3989 29.0281 23.4944C29.3864 23.59 29.7446 23.375 29.8402 23.0247ZM28.6021 24.5454C28.6977 24.1911 28.4867 23.8288 28.1324 23.7333C27.7781 23.6377 27.4119 23.8487 27.3203 24.207C27.2248 24.5613 27.4398 24.9235 27.7901 25.0191C28.1483 25.1106 28.5066 24.8996 28.6021 24.5454ZM32.0972 23.8925C32.1928 23.5382 31.9818 23.172 31.6275 23.0804C31.2732 22.9849 30.911 23.1959 30.8154 23.5502C30.7199 23.9045 30.9309 24.2667 31.2852 24.3622C31.6395 24.4578 32.0017 24.2468 32.0972 23.8925ZM30.6005 25.9506C30.696 25.5963 30.485 25.23 30.1308 25.1385C29.7765 25.0429 29.4142 25.2539 29.3187 25.6082C29.2231 25.9625 29.4341 26.3247 29.7884 26.4203C30.1427 26.5118 30.5089 26.3009 30.6005 25.9506ZM11.0311 39.6762C11.3854 39.7677 11.7477 39.5567 11.8392 39.2025C11.9308 38.8482 11.7158 38.4859 11.3615 38.3944C11.0073 38.3028 10.645 38.5138 10.5535 38.8721C10.4619 39.2224 10.6769 39.5886 11.0311 39.6762ZM13.3798 33.1159C13.7341 33.2075 14.1003 32.9925 14.1879 32.6382C14.2794 32.2839 14.0645 31.9257 13.7102 31.8341C13.3559 31.7425 12.9937 31.9535 12.9021 32.3078C12.8105 32.6621 13.0255 33.0243 13.3798 33.1159ZM14.9761 36.3522C15.3303 36.4438 15.6926 36.2368 15.7842 35.8785C15.8757 35.5242 15.6608 35.162 15.3065 35.0704C14.9522 34.9789 14.5899 35.1938 14.4984 35.5481C14.4028 35.9024 14.6178 36.2607 14.9761 36.3522ZM13.8017 38.7725C14.156 38.8641 14.5183 38.6531 14.6098 38.2948C14.7014 37.9406 14.4864 37.5783 14.1321 37.4868C13.7779 37.3952 13.4156 37.6102 13.3241 37.9644C13.2325 38.3187 13.4475 38.681 13.8017 38.7725ZM15.8678 40.9301C16.222 41.0217 16.5843 40.8067 16.6758 40.4564C16.7674 40.0981 16.5524 39.7399 16.1982 39.6483C15.8439 39.5567 15.4816 39.7717 15.3901 40.126C15.3025 40.4803 15.5135 40.8385 15.8678 40.9301ZM11.3018 31.2688C11.6561 31.3604 12.0184 31.1454 12.1099 30.7911C12.2015 30.4369 11.9865 30.0786 11.6322 29.987C11.278 29.8955 10.9157 30.1064 10.8241 30.4607C10.7326 30.815 10.9476 31.1773 11.3018 31.2688ZM12.4881 35.2297C12.8424 35.3212 13.2046 35.1102 13.2962 34.756C13.3877 34.4017 13.1728 34.0394 12.8185 33.9479C12.4642 33.8563 12.102 34.0713 12.0104 34.4256C11.9189 34.7798 12.1338 35.1381 12.4881 35.2297ZM11.3576 37.2001C11.7119 37.2917 12.0741 37.0767 12.1657 36.7224C12.2572 36.3682 12.0423 36.0059 11.688 35.9144C11.3337 35.8228 10.9714 36.0338 10.8799 36.392C10.7923 36.7463 11.0033 37.1086 11.3576 37.2001ZM9.32739 29.7522C9.51448 30.0666 9.9245 30.1701 10.239 29.983C10.5535 29.796 10.653 29.3899 10.4659 29.0754C10.2788 28.761 9.87275 28.6535 9.55827 28.8406C9.24379 29.0277 9.14029 29.4377 9.32739 29.7522ZM8.04161 28.3111C7.85451 27.9967 7.95801 27.5866 8.27249 27.3995C8.58697 27.2125 8.993 27.3159 9.1801 27.6344C9.36719 27.9489 9.26768 28.3549 8.94922 28.542C8.63474 28.7291 8.2287 28.6256 8.04161 28.3111ZM7.04244 26.6472C7.22954 26.9617 7.63955 27.0652 7.95403 26.8781C8.26851 26.691 8.36803 26.2849 8.18093 25.9705C7.99384 25.656 7.5878 25.5485 7.27332 25.7356C6.95885 25.9227 6.85535 26.3327 7.04244 26.6472ZM7.62363 30.7115C7.81072 31.026 8.21676 31.1335 8.53124 30.9464C8.84572 30.7593 8.94922 30.3533 8.76212 30.0348C8.57503 29.7203 8.16501 29.6168 7.85053 29.8039C7.53605 29.991 7.43653 30.397 7.62363 30.7115ZM6.43737 29.2785C6.25027 28.964 6.34979 28.5579 6.66427 28.3708C6.97875 28.1837 7.38877 28.2872 7.57586 28.6017C7.76296 28.9162 7.65946 29.3262 7.34498 29.5133C7.02652 29.7004 6.62446 29.5969 6.43737 29.2785ZM5.4382 27.6105C5.6253 27.925 6.03133 28.0325 6.34581 27.8454C6.66029 27.6583 6.76379 27.2523 6.57669 26.9338C6.3896 26.6193 5.98356 26.5158 5.66908 26.7029C5.3546 26.89 5.25509 27.296 5.4382 27.6105ZM5.79647 31.858C5.60937 31.5435 5.71287 31.1335 6.02735 30.9464C6.34183 30.7593 6.75185 30.8628 6.93496 31.1773C7.12206 31.4917 7.01856 31.9018 6.70408 32.0889C6.39358 32.276 5.98356 32.1725 5.79647 31.858ZM4.6739 30.417C4.86099 30.7314 5.26703 30.8349 5.58151 30.6478C5.89599 30.4607 5.99949 30.0547 5.81239 29.7362C5.6253 29.4218 5.21926 29.3183 4.9008 29.5054C4.5903 29.6964 4.4868 30.1025 4.6739 30.417ZM3.69065 28.8366C3.87775 29.1511 4.28777 29.2546 4.60224 29.0675C4.91672 28.8804 5.02022 28.4743 4.83313 28.1559C4.64603 27.8414 4.24 27.7379 3.92552 27.925C3.60706 28.1121 3.50356 28.5221 3.69065 28.8366ZM4.20417 33.2194C4.39127 33.5339 4.80128 33.6374 5.11178 33.4543C5.43024 33.2672 5.52976 32.8611 5.34266 32.5466C5.15557 32.2322 4.74953 32.1247 4.43107 32.3158C4.12057 32.4989 4.01708 32.9049 4.20417 33.2194ZM3.04975 31.6351C3.23685 31.9495 3.64288 32.053 3.95736 31.8699C4.27582 31.6828 4.37534 31.2768 4.18825 30.9623C4.00115 30.6478 3.5991 30.5404 3.28064 30.7314C2.96616 30.9106 2.86266 31.3206 3.04975 31.6351ZM2.02272 29.9592C2.20982 30.2736 2.61983 30.3771 2.93033 30.194C3.24879 30.0069 3.34831 29.6009 3.16121 29.2824C2.97412 28.968 2.57206 28.8605 2.25361 29.0516C1.93913 29.2347 1.83563 29.6447 2.02272 29.9592ZM6.41348 24.8121C6.60058 25.1265 7.01059 25.23 7.32507 25.0429C7.63955 24.8558 7.73907 24.4498 7.55198 24.1353C7.36488 23.8209 6.95885 23.7174 6.64437 23.9005C6.32989 24.0876 6.22639 24.4936 6.41348 24.8121Z" fill="white"/>
<path d="M55.4595 0H54.8066V43H55.4595V0Z" fill="url(#paint0_linear_73_3831)"/>
<path fill-rule="evenodd" clip-rule="evenodd" d="M67.3818 40.8665L66.5379 39.6643C67.0355 39.4692 67.3181 39.0632 67.3181 38.5099C67.3181 37.6978 66.721 37.2081 65.7577 37.2081H64.2529V40.8704H64.9336V39.8036H65.7616C65.8094 39.8036 65.8572 39.8036 65.901 39.7996L66.6493 40.8704H67.3818V40.8665ZM66.6334 38.5059C66.6334 38.9676 66.3229 39.2383 65.7298 39.2383H64.9336V37.7774H65.7298C66.3229 37.7814 66.6334 38.0481 66.6334 38.5059ZM69.6548 40.2972V39.2861H71.4222V38.7248H69.6548V37.7734H71.6492V37.2042H68.9781V40.8665H71.7248V40.2972H69.6548ZM74.5073 40.9182C75.5105 40.9182 75.9882 40.4166 75.9882 39.8275C75.9882 38.486 73.8187 38.9915 73.8187 38.2113C73.8187 37.9326 74.0495 37.7137 74.6148 37.7137C74.9333 37.7137 75.2955 37.8092 75.6259 38.0003L75.8409 37.4709C75.5224 37.2599 75.0607 37.1484 74.6228 37.1484C73.6196 37.1484 73.1459 37.65 73.1459 38.2431C73.1459 39.6006 75.3234 39.0831 75.3234 39.8752C75.3234 40.1459 75.0845 40.3529 74.5113 40.3529C74.0615 40.3529 73.5957 40.1857 73.3012 39.9509L73.0663 40.4803C73.3688 40.7391 73.9381 40.9182 74.5073 40.9182ZM79.1329 40.9182C80.1321 40.9182 80.7332 40.337 80.7332 39.2702V37.2042H80.0644V39.2423C80.0644 39.9947 79.7301 40.3211 79.1369 40.3211C78.5478 40.3211 78.2054 39.9947 78.2054 39.2423V37.2042H77.5247V39.2702C77.5287 40.337 78.1298 40.9182 79.1329 40.9182ZM82.5843 40.8665H85.1797V40.2892H83.265V37.2042H82.5843V40.8665ZM87.0148 40.8665H87.6955V37.7814H88.9097V37.2042H85.8047V37.7814H87.0188V40.8665H87.0148ZM91.4175 40.9182C92.4207 40.9182 92.8984 40.4166 92.8984 39.8275C92.8984 38.486 90.7289 38.9915 90.7289 38.2113C90.7289 37.9326 90.9597 37.7137 91.525 37.7137C91.8435 37.7137 92.2057 37.8092 92.5361 38.0003L92.7511 37.4709C92.4326 37.2599 91.9709 37.1484 91.533 37.1484C90.5298 37.1484 90.0561 37.65 90.0561 38.2431C90.0561 39.6006 92.2336 39.0831 92.2336 39.8752C92.2336 40.1459 91.9947 40.3529 91.4215 40.3529C90.9717 40.3529 90.5059 40.1857 90.2114 39.9509L89.9765 40.4803C90.2751 40.7391 90.8483 40.9182 91.4175 40.9182ZM99.4586 37.2042H98.7899L97.7071 38.9875L96.6363 37.2042H95.9078L97.3449 39.5847V40.8665H98.0256V39.5727L99.4586 37.2042ZM102.353 40.9182C103.487 40.9182 104.323 40.1221 104.323 39.0353C104.323 37.9486 103.487 37.1524 102.353 37.1524C101.218 37.1524 100.382 37.9525 100.382 39.0353C100.378 40.1181 101.218 40.9182 102.353 40.9182ZM102.353 40.3211C101.616 40.3211 101.067 39.7837 101.067 39.0353C101.067 38.2869 101.616 37.7495 102.353 37.7495C103.089 37.7495 103.638 38.2869 103.638 39.0353C103.638 39.7837 103.089 40.3211 102.353 40.3211ZM107.516 40.9182C108.515 40.9182 109.116 40.337 109.116 39.2702V37.2042H108.447V39.2423C108.447 39.9947 108.113 40.3211 107.52 40.3211C106.93 40.3211 106.588 39.9947 106.588 39.2423V37.2042H105.907V39.2702C105.911 40.337 106.513 40.9182 107.516 40.9182ZM114.637 40.9182C115.238 40.9182 115.752 40.7032 116.09 40.3052L115.652 39.8872C115.386 40.1818 115.055 40.3211 114.673 40.3211C113.913 40.3211 113.363 39.7877 113.363 39.0353C113.363 38.2829 113.913 37.7495 114.673 37.7495C115.055 37.7495 115.386 37.8889 115.652 38.1795L116.09 37.7655C115.752 37.3674 115.238 37.1524 114.641 37.1524C113.515 37.1524 112.679 37.9406 112.679 39.0353C112.683 40.13 113.519 40.9182 114.637 40.9182ZM120.302 40.8665H121.014L119.362 37.2042H118.694L117.046 40.8665H117.746L118.108 40.0186H119.94L120.302 40.8665ZM118.335 39.4851L119.02 37.8849L119.709 39.4851H118.335ZM124.955 37.2042V39.6842L122.937 37.2042H122.376V40.8665H123.052V38.3864L125.071 40.8665H125.632V37.2042H124.955ZM130.624 40.9182C131.627 40.9182 132.105 40.4166 132.105 39.8275C132.105 38.486 129.935 38.9915 129.935 38.2113C129.935 37.9326 130.166 37.7137 130.731 37.7137C131.05 37.7137 131.412 37.8092 131.742 38.0003L131.957 37.4709C131.639 37.2599 131.177 37.1484 130.739 37.1484C129.736 37.1484 129.262 37.65 129.262 38.2431C129.262 39.6006 131.44 39.0831 131.44 39.8752C131.44 40.1459 131.201 40.3529 130.628 40.3529C130.178 40.3529 129.712 40.1857 129.418 39.9509L129.183 40.4803C129.481 40.7391 130.051 40.9182 130.624 40.9182ZM134.354 40.2972V39.2861H136.121V38.7248H134.354V37.7734H136.348V37.2042H133.677V40.8665H136.424V40.2972H134.354ZM138.753 40.2972V39.2861H140.52V38.7248H138.753V37.7734H140.747V37.2042H138.076V40.8665H140.823V40.2972H138.753Z" fill="white"/>
<path fill-rule="evenodd" clip-rule="evenodd" d="M77.5287 23.8526C76.9833 23.8925 76.442 23.9243 75.8966 23.9243H69.1254V32.9924H64.2529V2.4243H75.8966C82.5922 2.4243 88.3245 5.68055 88.3245 13.1962C88.3245 17.6984 86.159 21.1378 82.1742 22.7898L89.1644 32.9964H83.7546L77.5287 23.8526ZM97.7947 23.9681V32.9924H92.9222V2.4243H104.566C111.262 2.4243 116.994 5.68055 116.994 13.1962C116.994 20.7118 111.262 23.9681 104.566 23.9681H97.7947ZM130.182 33.3348C126.464 33.3348 121.659 32.1644 118.865 29.4854L118.666 29.2943L120.525 25.2618L120.895 25.6082C123.267 27.8175 127.033 28.952 130.182 28.952C132.833 28.952 136.953 28.2872 136.953 24.7443C136.953 17.9731 119.446 22.3599 119.446 10.9909C119.446 9.99568 119.601 9.00845 119.936 8.07696C121.584 3.45133 126.564 2.08594 130.883 2.08594C134.067 2.08594 137.741 2.91791 140.385 4.79284L140.631 4.968L138.987 9.08409L138.613 8.83728C136.34 7.33654 133.594 6.46874 130.887 6.46874C128.16 6.46874 124.239 7.26887 124.239 10.8197C124.239 17.6228 141.746 13.2559 141.746 24.4856C141.746 25.3653 141.619 26.2371 141.352 27.0691C139.799 31.8977 134.605 33.3348 130.182 33.3348ZM69.1254 6.89468V19.5415H75.7732C79.9251 19.5415 83.4521 17.9492 83.4521 13.1962C83.4521 8.44319 79.9092 6.89468 75.7732 6.89468H69.1254ZM97.7947 6.89468V19.4977H104.443C108.582 19.4977 112.121 17.9492 112.121 13.1962C112.121 8.44319 108.579 6.89468 104.443 6.89468H97.7947Z" fill="white"/>
</g>
<defs>
<linearGradient id="paint0_linear_73_3831" x1="-22.5239" y1="357.867" x2="141.058" y2="-350.689" gradientUnits="userSpaceOnUse">
<stop stop-color="#6D6E71"/>
<stop offset="1" stop-color="#BCBEC0"/>
</linearGradient>
<clipPath id="clip0_73_3831">
<rect width="141.742" height="43" fill="white"/>
</clipPath>
</defs>
</svg>
