<svg width="12" height="15" viewBox="0 0 12 15" fill="none" xmlns="http://www.w3.org/2000/svg">
    <path d="M6.00046 0.0666504C2.76046 0.0666504 0.133789 2.69332 0.133789 5.93332C0.133789 9.79145 3.94819 11.6384 4.42606 12.0682C4.91406 12.5072 5.31726 13.4912 5.47992 14.049C5.55886 14.32 5.78072 14.457 6.00046 14.4629C6.22072 14.4565 6.44206 14.3194 6.52099 14.049C6.68366 13.4912 7.08686 12.5077 7.57486 12.0682C8.05272 11.6384 11.8671 9.79145 11.8671 5.93332C11.8671 2.69332 9.24046 0.0666504 6.00046 0.0666504ZM6.00046 7.53332C5.11672 7.53332 4.40046 6.81705 4.40046 5.93332C4.40046 5.04958 5.11672 4.33332 6.00046 4.33332C6.88419 4.33332 7.60046 5.04958 7.60046 5.93332C7.60046 6.81705 6.88419 7.53332 6.00046 7.53332Z" fill="white"/>
</svg>
