<svg width="15" height="15" viewBox="0 0 15 15" fill="none" xmlns="http://www.w3.org/2000/svg">
<path d="M12.5144 9.68C12.1206 9.67062 11.625 9.6475 11.3119 9.5925C10.9731 9.5325 10.5656 9.41625 10.2787 9.32688C10.0537 9.25688 9.80875 9.31875 9.64188 9.485L8.25625 10.8625C7.29875 10.3581 6.53187 9.77063 5.8825 9.1175C5.22937 8.46813 4.64188 7.70125 4.1375 6.74375L5.515 5.3575C5.68125 5.19062 5.74312 4.94563 5.67312 4.72062C5.58437 4.43438 5.4675 4.02688 5.40812 3.68813C5.3525 3.375 5.33 2.87937 5.32 2.48563C5.31188 2.145 5.03438 1.875 4.69375 1.875H2.5C2.22625 1.875 1.875 2.08 1.875 2.5C1.875 5.33687 3.025 8.04625 4.97875 10.0212C6.95375 11.975 9.66313 13.125 12.5 13.125C12.92 13.125 13.125 12.7738 13.125 12.5V10.3062C13.125 9.96562 12.855 9.68813 12.5144 9.68Z" fill="#12688D"/>
</svg>
