<svg width="40" height="31" viewBox="0 0 40 31" fill="none" xmlns="http://www.w3.org/2000/svg">
<g opacity="0.3">
<path d="M32.0499 15.8419C36.4706 15.8419 39.4545 18.9191 39.4545 23.4779C39.4545 27.5809 36.0285 31 31.3868 31C26.303 31 22.5455 26.8971 22.5455 20.6287C22.5455 6.38235 32.934 0.68383 39.4545 1.97099e-06V6.26838C35.0339 7.06618 30.0606 11.511 29.8396 16.4118C30.0606 16.2978 30.9447 15.8419 32.0499 15.8419Z" fill="white"/>
<path d="M9.50446 15.8419C13.9251 15.8419 16.9091 18.9191 16.9091 23.4779C16.9091 27.5809 13.4831 31 8.84135 31C3.75757 31 -5.47999e-07 26.8971 0 20.6287C-1.44217e-06 6.38235 10.3886 0.683828 16.9091 0V6.26838C12.4884 7.06618 7.51515 11.511 7.29412 16.4118C7.51515 16.2978 8.39929 15.8419 9.50446 15.8419Z" fill="white"/>
</g>
</svg>
