<svg width="48" height="607" viewBox="0 0 48 607" fill="none" xmlns="http://www.w3.org/2000/svg">
<g opacity="0.1">
<path d="M46.3257 607H3.4101L3.4101 592.909C3.4101 587.247 4.11786 584.095 5.91941 581.65C7.84965 578.947 11.0024 577.467 14.7342 577.467C20.3319 577.467 24.0637 580.684 24.8357 586.153C25.7365 583.773 27.0233 582.679 31.3986 580.877L46.3257 574.701V584.352L34.1652 589.049C29.597 590.786 28.5032 592.137 28.5032 596.191V598.25H46.3257V607ZM21.876 598.314V594.453C21.876 589.306 19.7528 586.668 15.6993 586.668C12.0318 586.668 10.1016 589.113 10.1016 593.746V598.314H21.876Z" fill="#BBBDC0"/>
<path d="M37.7683 544.092L44.9102 543.963C46.3901 547.245 47.1622 550.912 47.1622 555.03C47.1622 565.453 40.9854 571.566 30.3048 571.566C20.1388 571.566 13.6404 565.582 13.6404 556.188C13.6404 547.309 19.6241 541.84 29.404 541.84C30.0474 541.84 31.6559 541.904 33.0071 542.033V563.459C37.9614 563.073 41.0497 559.469 41.0497 554.065C41.0497 550.783 40.149 548.081 37.7683 544.092ZM27.2807 563.587V549.69C22.3264 549.754 19.4311 552.263 19.4311 556.381C19.4311 560.37 22.3908 563.073 27.2807 563.587Z" fill="#BBBDC0"/>
<path d="M8.68609 535.207H0.900793L0.900793 526.714H8.68609V535.207ZM46.3257 535.079H14.4768V526.843H46.3257V535.079Z" fill="#BBBDC0"/>
<path d="M46.3257 496.556L40.9211 496.685C44.9746 498.679 46.8405 501.832 46.8405 506.722C46.8405 515.087 40.535 520.041 29.8544 520.041C20.2675 520.041 13.8977 514.765 13.8977 506.851C13.8977 502.347 15.828 499.13 19.7528 496.942C18.0156 497.135 16.021 497.264 14.1551 497.264H1.3758e-05L1.33981e-05 489.028H37.0606C40.9854 489.028 44.0738 488.9 46.3257 488.771V496.556ZM40.342 504.341C40.342 500.095 36.4172 497.135 30.6908 497.135C24.7071 497.135 20.7822 500.159 20.7822 504.663C20.7822 508.845 24.4497 511.483 30.2404 511.483C36.3528 511.483 40.342 508.652 40.342 504.341Z" fill="#BBBDC0"/>
<path d="M46.3257 463.426H3.4101L3.4101 451.652C3.4101 445.925 4.18219 442.579 6.17677 439.748C8.5574 436.403 12.3535 434.537 16.6644 434.537C20.9753 434.537 24.9001 436.467 27.345 439.684C29.404 442.451 30.1761 445.603 30.1761 450.815C30.1761 451.652 30.1761 452.424 30.0474 454.74H46.3257V463.426ZM23.3559 454.74C23.4202 453.968 23.4202 453.389 23.4202 453.003C23.4202 450.236 23.2272 448.563 22.6481 447.341C21.6187 445.024 19.4954 443.738 16.7287 443.738C13.4473 443.738 11.131 445.475 10.359 448.499C10.0372 449.721 10.0372 450.493 9.97291 454.74H23.3559Z" fill="#BBBDC0"/>
<path d="M30.3047 431.195C20.3319 431.195 13.6404 424.567 13.6404 414.659C13.6404 404.686 20.3962 398.123 30.7551 398.123C40.535 398.123 47.1622 404.815 47.1622 414.723C47.1622 424.567 40.4063 431.195 30.3047 431.195ZM30.3047 422.637C36.7389 422.637 41.0497 419.42 41.0497 414.659C41.0497 409.962 36.7389 406.681 30.6265 406.681C24.128 406.681 19.7528 409.898 19.7528 414.659C19.7528 419.356 24.128 422.637 30.3047 422.637Z" fill="#BBBDC0"/>
<path d="M46.3257 385.178L14.4768 395.987L14.4768 387.301L25.9295 383.569C32.3637 381.511 36.2885 380.61 39.9559 380.095C36.9319 379.773 33.9079 379.194 27.345 377.264L14.4768 373.468V363.945L28.8249 359.441C33.7148 357.897 37.1249 357.125 39.7629 356.803C37.511 356.546 32.3637 355.388 28.6962 354.359L14.4768 350.241V342.262L46.3257 352.107V361.693L33.9722 365.683C26.0582 368.256 24.8357 368.385 21.0396 368.835C24.321 369.35 25.6722 369.672 27.9885 370.315L30.7551 371.087L33.2644 371.731L46.3257 375.72V385.178Z" fill="#BBBDC0"/>
<path d="M37.7683 312.3L44.9102 312.171C46.3901 315.453 47.1622 319.12 47.1622 323.238C47.1622 333.661 40.9854 339.774 30.3047 339.774C20.1388 339.774 13.6404 333.79 13.6404 324.396C13.6404 315.517 19.6241 310.048 29.404 310.048C30.0474 310.048 31.6559 310.112 33.0071 310.241L33.0071 331.667C37.9614 331.281 41.0497 327.677 41.0497 322.273C41.0497 318.991 40.149 316.289 37.7683 312.3ZM27.2807 331.795V317.898C22.3264 317.962 19.4311 320.471 19.4311 324.589C19.4311 328.578 22.3908 331.281 27.2807 331.795Z" fill="#BBBDC0"/>
<path d="M46.3257 303.218H24.0636C19.238 303.218 16.0853 303.346 14.4768 303.475V295.947L22.5838 295.819C17.0504 294.339 14.2194 291.25 14.2194 286.875C14.2194 285.91 14.2838 285.395 14.6055 284.43H22.2621C21.9404 285.653 21.8117 286.296 21.8117 287.261C21.8117 289.835 23.0985 292.215 25.3505 293.567C27.0233 294.596 29.0823 294.982 33.2001 294.982H46.3257L46.3257 303.218Z" fill="#BBBDC0"/>
<path d="M45.2963 262.94L37.5753 262.168C39.5055 258.758 40.4063 255.734 40.4063 252.517C40.4063 247.884 38.09 244.989 34.4226 244.989C32.6854 244.989 31.2055 245.697 30.3047 247.048C29.597 248.077 29.2109 248.849 27.9241 252.002C26.1869 256.442 25.3505 257.986 23.6776 259.98C21.5543 262.554 18.7233 263.777 15.0559 263.777C7.07754 263.777 2.44497 258.179 2.44497 248.592C2.44497 244.86 2.9597 241.708 4.11784 238.426L11.1954 239.134C9.71554 242.544 9.07212 245.118 9.07212 248.077C9.07212 252.259 11.0667 254.897 14.2194 254.897C16.0853 254.897 17.4365 254.061 18.4659 252.259C19.1094 251.101 19.1094 251.101 20.9753 246.404C23.935 238.876 27.6667 235.788 33.8435 235.788C42.2079 235.788 47.2908 241.901 47.2908 251.873C47.2908 255.927 46.7118 259.015 45.2963 262.94Z" fill="#BBBDC0"/>
<path d="M30.3047 230.442C20.3318 230.442 13.6404 223.815 13.6404 213.907C13.6404 203.934 20.3962 197.371 30.7551 197.371C40.535 197.371 47.1622 204.062 47.1622 213.971C47.1622 223.815 40.4063 230.442 30.3047 230.442ZM30.3047 221.885C36.7389 221.885 41.0497 218.668 41.0497 213.907C41.0497 209.21 36.7389 205.928 30.6264 205.928C24.128 205.928 19.7528 209.145 19.7528 213.907C19.7528 218.603 24.128 221.885 30.3047 221.885Z" fill="#BBBDC0"/>
<path d="M46.3257 190.752H3.59993e-07L0 182.517H46.3257V190.752Z" fill="#BBBDC0"/>
<path d="M46.3257 152.93L41.4358 153.188C44.9102 155.375 46.8404 159.107 46.8404 163.675C46.8404 167.729 45.2319 170.881 42.3366 172.619C40.0846 173.905 37.1249 174.484 32.428 174.484L14.4768 174.484V166.249H29.79C33.5861 166.249 35.3877 166.056 36.9962 165.348C38.9265 164.512 39.9559 162.839 39.9559 160.587C39.9559 156.083 36.4172 153.831 29.404 153.831H14.4768V145.595H33.9078C39.9559 145.595 44.1381 145.338 46.3257 145.209V152.93Z" fill="#BBBDC0"/>
<path d="M34.1009 134.975H20.5892V140.959H14.4768V134.847H8.17134L5.469 126.675H14.4768L14.4768 119.34H20.5892V126.675H32.428C35.5164 126.675 36.9319 126.482 37.897 125.903C39.1838 125.196 39.9559 123.716 39.9559 121.914C39.9559 121.078 39.8272 120.434 39.5055 119.019L45.9397 118.761C46.4544 121.142 46.5831 122.429 46.5831 124.23C46.5831 131.758 42.8513 134.975 34.1009 134.975Z" fill="#BBBDC0"/>
<path d="M8.68607 113.219H0.900775L0.900774 104.726H8.68607V113.219ZM46.3257 113.09H14.4768V104.855H46.3257V113.09Z" fill="#BBBDC0"/>
<path d="M30.3047 98.2411C20.3318 98.2411 13.6403 91.6139 13.6403 81.7054C13.6403 71.7325 20.3962 65.1697 30.7551 65.1697C40.535 65.1697 47.1621 71.8611 47.1621 81.7697C47.1621 91.6139 40.4063 98.2411 30.3047 98.2411ZM30.3047 89.6837C36.7389 89.6837 41.0497 86.4666 41.0497 81.7054C41.0497 77.0084 36.7389 73.727 30.6264 73.727C24.128 73.727 19.7528 76.9441 19.7528 81.7054C19.7528 86.4023 24.128 89.6837 30.3047 89.6837Z" fill="#BBBDC0"/>
<path d="M46.3257 58.355H26.0582C22.3908 58.355 18.0799 58.4837 14.4768 58.6767L14.4768 50.9558L19.5597 50.6984C17.8225 49.4759 17.1791 48.9612 16.3427 47.8674C14.8628 45.9371 13.962 42.9774 13.962 39.8891C13.962 36.0929 15.4419 32.8759 18.0799 31.0743C20.2032 29.6588 23.0985 29.0797 28.3745 29.0797H46.3257V37.3154L30.3047 37.3154C23.6132 37.3154 20.8466 38.9883 20.8466 42.9774C20.8466 45.6154 22.2621 47.803 24.707 49.0255C26.3156 49.862 27.8598 50.1193 31.2055 50.1193H46.3257V58.355Z" fill="#BBBDC0"/>
<path d="M45.4893 22.4551L38.5404 22.0691C40.0203 19.3024 40.7924 16.6 40.7924 14.0907C40.7924 10.6163 39.3125 8.30002 37.1249 8.30002C36.1598 8.30002 35.3877 8.81475 34.7443 9.90856C34.2939 10.6806 34.2295 10.745 32.9427 14.4768C30.9481 20.2675 28.3102 22.5838 23.8063 22.5838C17.7582 22.5838 13.962 17.5652 13.962 9.58685C13.962 6.88452 14.3481 4.31087 15.1202 1.28683L21.3613 1.8659C20.5249 4.18218 20.0745 6.75583 20.0745 8.8791C20.0745 12.1605 21.4256 14.4124 23.4202 14.4124C24.9644 14.4124 25.6078 13.4473 27.2163 8.55739C28.2458 5.53335 28.6319 4.50389 29.5326 3.2814C31.1412 1.0938 33.5218 1.34997e-07 36.6102 0C43.0443 -2.81245e-07 46.9048 4.88994 46.9048 13.1256C46.9048 16.214 46.5831 18.2086 45.4893 22.4551Z" fill="#BBBDC0"/>
</g>
</svg>
