<svg width="15" height="16" viewBox="0 0 15 16" fill="none" xmlns="http://www.w3.org/2000/svg">
<path fill-rule="evenodd" clip-rule="evenodd" d="M12.6307 1.33309C12.8755 1.02824 13.2059 0.85667 13.5506 0.855475C13.8952 0.85428 14.2264 1.02356 14.4725 1.32671C14.7186 1.62986 14.8599 2.04252 14.8658 2.47549C14.8717 2.90845 14.7417 3.32693 14.5039 3.64044L7.52165 14.6058C7.40165 14.7682 7.25682 14.8985 7.09581 14.989C6.9348 15.0795 6.76093 15.1282 6.58459 15.1323C6.40825 15.1364 6.23306 15.0958 6.0695 15.0129C5.90594 14.93 5.75737 14.8065 5.63266 14.6498L1.00638 8.83527C0.877501 8.68438 0.774127 8.50243 0.70243 8.30026C0.630732 8.0981 0.592179 7.87986 0.589071 7.65857C0.585964 7.43728 0.618365 7.21746 0.684341 7.01225C0.750318 6.80703 0.848518 6.62061 0.973085 6.46411C1.09765 6.30761 1.24603 6.18423 1.40937 6.10134C1.57271 6.01845 1.74767 5.97774 1.92381 5.98164C2.09994 5.98555 2.27365 6.03399 2.43456 6.12406C2.59547 6.21414 2.7403 6.34402 2.86039 6.50594L6.52293 11.1053L12.5974 1.38144C12.6083 1.36441 12.62 1.34827 12.6324 1.33309H12.6307Z" fill="#1D263A"/>
</svg>
